<svg xmlns="http://www.w3.org/2000/svg" width="210.861" height="68.977" viewBox="0 0 210.861 68.977">
  <g id="Grupo_1526" data-name="Grupo 1526" transform="translate(-125.482 -24.615)">
    <path id="Trazado_384" data-name="Trazado 384" d="M128.272,93.389a2.7,2.7,0,0,1-2.79-2.6V55.033a8.633,8.633,0,0,1,.793-3.671,9.539,9.539,0,0,1,2.169-3,10.3,10.3,0,0,1,3.217-2.02A10.435,10.435,0,0,1,135.6,45.6h18.754a2.7,2.7,0,0,1,2.791,2.6v4.229a2.7,2.7,0,0,1-2.791,2.6H138.78a3.172,3.172,0,0,0-2.241.876A2.755,2.755,0,0,0,135.6,58l.117,5.719h8.542a2.7,2.7,0,0,1,2.79,2.6v4.23a2.7,2.7,0,0,1-2.79,2.6h-8.542l-.1,17.654a2.7,2.7,0,0,1-2.79,2.587Z" fill="#fff"/>
    <path id="Trazado_385" data-name="Trazado 385" d="M169.245,45.591a2.7,2.7,0,0,1,2.791,2.6V81.2a2.757,2.757,0,0,0,.939,2.089,3.173,3.173,0,0,0,2.24.875l11.427-.041a2.7,2.7,0,0,1,2.8,2.6v4.227a2.7,2.7,0,0,1-2.782,2.6l-14.625.043a10.427,10.427,0,0,1-3.939-.741,10.276,10.276,0,0,1-3.218-2.021,9.543,9.543,0,0,1-2.169-3,8.638,8.638,0,0,1-.793-3.671V48.191a2.7,2.7,0,0,1,2.79-2.6Z" fill="#fff"/>
    <path id="Trazado_386" data-name="Trazado 386" d="M226.929,76.462h0c-4.2,5.851-7.745,7.865-14.449,8.043a13.524,13.524,0,0,1-9.837-3.774,13.335,13.335,0,0,1-3.907-6.351,16.776,16.776,0,0,1-.471-2.284l.006-.007H235.6a1.79,1.79,0,0,0,1.853-1.786c-.024-.661-.05-1.316-.071-1.583-.515-6.621-2.928-11.992-7.184-15.985a24.669,24.669,0,0,0-17.471-6.6,24.121,24.121,0,0,0-17.537,6.969,23.159,23.159,0,0,0-.043,33.233c4.671,4.6,10.668,6.931,17.828,6.931a24.848,24.848,0,0,0,13.43-3.415c3.582-2.26,5.824-4.615,8.882-9.1h0l.528-.893a1.794,1.794,0,0,0-.833-2.542l-4.954-2.374a2.063,2.063,0,0,0-2.652.757ZM198.72,63.909a19.624,19.624,0,0,1,.907-1.831c2.734-4.848,7.044-7.224,13.083-7.224a16.649,16.649,0,0,1,9.73,2.891,12.482,12.482,0,0,1,3.9,4.209,13.178,13.178,0,0,1,.892,1.947l-.005.008H198.72Z" fill="#fff"/>
    <path id="Trazado_387" data-name="Trazado 387" d="M316.717,51.2h4.54a2.7,2.7,0,0,1,2.79,2.6V90.825a2.7,2.7,0,0,1-2.79,2.6h-4.54a2.7,2.7,0,0,1-2.79-2.6V53.8a2.7,2.7,0,0,1,2.79-2.6" fill="#fff"/>
    <path id="Trazado_388" data-name="Trazado 388" d="M324.889,39.567a6.162,6.162,0,0,1-12.293,0,6.162,6.162,0,0,1,12.293,0" fill="#fff"/>
    <path id="Trazado_389" data-name="Trazado 389" d="M267.049,68.175l-14.84-13.832a1.923,1.923,0,0,1,0-2.855l4.091-3.813a2.279,2.279,0,0,1,3.064,0l16.61,15.48,16.61-15.481a2.28,2.28,0,0,1,3.063,0l4.093,3.814a1.923,1.923,0,0,1,0,2.855L284.9,68.175a2.222,2.222,0,0,0,0,3.3L299.74,85.3a1.923,1.923,0,0,1,0,2.855l-4.093,3.815a2.28,2.28,0,0,1-3.063,0l-16.61-15.481-16.61,15.48a2.279,2.279,0,0,1-3.064,0l-4.092-3.814a1.925,1.925,0,0,1,0-2.855l14.841-13.831a2.222,2.222,0,0,0,0-3.3" fill="#fff"/>
    <path id="Trazado_390" data-name="Trazado 390" d="M242.333,62.872l5.882,5.571c.964.915.887,1.773-.088,2.678l-5.843,5.423a1.922,1.922,0,0,0-.028,2.834l2.15,2.069a2.278,2.278,0,0,0,3.1.013l10.59-10a2.221,2.221,0,0,0,0-3.275l-10.61-10.036a2.278,2.278,0,0,0-3.061-.023l-2.066,1.893a1.923,1.923,0,0,0-.026,2.854" fill="#fff"/>
    <path id="Trazado_391" data-name="Trazado 391" d="M309.726,76.734l-5.882-5.57c-.964-.915-.887-1.773.088-2.678l5.843-5.423a1.923,1.923,0,0,0,.028-2.835l-2.15-2.068a2.279,2.279,0,0,0-3.1-.014l-10.59,10a2.22,2.22,0,0,0,0,3.274l10.61,10.037a2.278,2.278,0,0,0,3.061.023l2.066-1.893a1.924,1.924,0,0,0,.026-2.855" fill="#fff"/>
    <path id="Trazado_392" data-name="Trazado 392" d="M330.442,27.142a3.356,3.356,0,0,1,1.87.435,1.741,1.741,0,0,1,.387,2.277,1.721,1.721,0,0,1-.754.56q.163.2.344.465t.356.548c.118.191.231.389.341.595s.211.409.3.607h-1.365c-.1-.177-.2-.358-.3-.54s-.207-.36-.314-.533-.214-.335-.318-.489-.21-.293-.314-.419h-.6v1.981h-1.221V27.283a6.769,6.769,0,0,1,.826-.109q.426-.031.763-.032m.07,1.041c-.089,0-.168,0-.238.008l-.2.016v1.471h.344a2.084,2.084,0,0,0,.987-.172.623.623,0,0,0,.3-.587.6.6,0,0,0-.3-.568,1.863,1.863,0,0,0-.888-.168" fill="#fff"/>
    <path id="Trazado_393" data-name="Trazado 393" d="M331.072,35.156a5.27,5.27,0,1,1,5.271-5.271,5.277,5.277,0,0,1-5.271,5.271m0-10.243a4.973,4.973,0,1,0,4.973,4.972,4.979,4.979,0,0,0-4.973-4.972" fill="#fff"/>
  </g>
</svg>
