<svg xmlns="http://www.w3.org/2000/svg" width="438.081" height="141.906" viewBox="0 0 438.081 141.906">
  <g id="Grupo_2137" data-name="Grupo 2137" transform="translate(-628.069 -2298.577)">
    <path id="Trazado_2584" data-name="Trazado 2584" d="M728.8,2360.939c-1.012-2.384-3.251-4.282-5.842-5.679a37.48,37.48,0,0,0-8.557-3.147,106.224,106.224,0,0,0-56.025,1.455,69.474,69.474,0,0,0-8.791,3.253,45.619,45.619,0,0,0-8.027,4.556,26.6,26.6,0,0,0-6.387,6.254l-.616.909c-.194.309-.356.634-.536.95a17.516,17.516,0,0,0-.931,1.958,16.55,16.55,0,0,0-1.035,4.176,19.736,19.736,0,0,0-.135,2.164c.055.728.03,1.457.158,2.184a22.793,22.793,0,0,0,.966,4.324,31.8,31.8,0,0,0,4.1,8.061,44.856,44.856,0,0,0,6.051,6.966,67.722,67.722,0,0,0,7.213,5.949,103.744,103.744,0,0,0,16.388,9.39c2.875,1.337,5.8,2.589,8.748,3.779s5.976,2.211,8.96,3.326a251.516,251.516,0,0,0,36.852,10.151c3.111.716,6.271,1.168,9.42,1.685,3.151.5,6.29,1.082,9.469,1.387l9.511,1.092,9.551.683,2.388.171,2.393.074,4.786.131,4.787.131c1.6.04,3.192-.035,4.788-.047,3.191-.074,6.386-.059,9.575-.207l9.561-.581a291.974,291.974,0,0,0,37.884-5.521,281.4,281.4,0,0,0,36.7-10.88,88.264,88.264,0,0,0,8.691-3.788,39.207,39.207,0,0,0,7.782-5.068,24.492,24.492,0,0,0,3.138-3.284,18.676,18.676,0,0,0,2.253-3.854,17.372,17.372,0,0,0,1.119-8.792,26.6,26.6,0,0,0-2.733-8.729,37.951,37.951,0,0,0-5.147-7.767,69.172,69.172,0,0,0-14.044-12.589,101.6,101.6,0,0,0-16.674-9.149,163.453,163.453,0,0,0-17.937-6.612,299.3,299.3,0,0,0-37.376-8.607c-6.312-1.061-12.662-1.887-19.025-2.588-6.366-.68-12.754-1.142-19.148-1.471-12.8-.614-25.585-.294-38.457-.415a167.548,167.548,0,0,1,19.231-1.659c6.436-.147,12.877-.043,19.31.219,6.431.3,12.858.736,19.265,1.391,6.4.676,12.8,1.478,19.153,2.515a301.5,301.5,0,0,1,37.693,8.5,165.823,165.823,0,0,1,18.217,6.622,104.017,104.017,0,0,1,17.092,9.28,71.627,71.627,0,0,1,14.6,12.978,40.414,40.414,0,0,1,5.5,8.225,29.117,29.117,0,0,1,3.024,9.549,19.961,19.961,0,0,1-1.257,10.1,21.311,21.311,0,0,1-2.571,4.452,27.379,27.379,0,0,1-3.486,3.686,41.855,41.855,0,0,1-8.289,5.464,90.926,90.926,0,0,1-8.939,3.947,284.121,284.121,0,0,1-37.056,11.172,294.906,294.906,0,0,1-38.27,5.756l-9.664.632c-3.223.165-6.453.165-9.68.254-1.613.019-3.227.1-4.841.069l-4.841-.109-4.842-.111-2.42-.064-2.416-.161-9.666-.648-9.629-1.06c-3.218-.3-6.4-.87-9.591-1.36-3.19-.509-6.391-.953-9.545-1.662a254.942,254.942,0,0,1-37.4-10.119c-3.035-1.117-6.107-2.127-9.111-3.335s-6-2.462-8.95-3.819a107.415,107.415,0,0,1-17.032-9.663,69.54,69.54,0,0,1-7.644-6.281,48.663,48.663,0,0,1-6.56-7.547,35.57,35.57,0,0,1-4.6-9.044,26.574,26.574,0,0,1-1.135-5.057,25.866,25.866,0,0,1-.188-2.617,23.305,23.305,0,0,1,.158-2.638,20.42,20.42,0,0,1,1.272-5.143,21.61,21.61,0,0,1,1.128-2.389c.217-.382.417-.775.65-1.146l.731-1.086a30.406,30.406,0,0,1,7.285-7.178,49.44,49.44,0,0,1,8.687-4.949,73.162,73.162,0,0,1,9.255-3.44,110.155,110.155,0,0,1,58.132-1.565,41.326,41.326,0,0,1,9.473,3.494,20.941,20.941,0,0,1,4.34,3.058,13.625,13.625,0,0,1,3.267,4.544,1.985,1.985,0,1,1-3.647,1.567Z" fill="#ff3b67"/>
    <g id="Grupo_2136" data-name="Grupo 2136">
      <g id="Grupo_2130" data-name="Grupo 2130">
        <g id="Grupo_2129" data-name="Grupo 2129">
          <g id="Grupo_2128" data-name="Grupo 2128">
            <path id="Trazado_2585" data-name="Trazado 2585" d="M876.753,2301.628a2.3,2.3,0,0,1,.5-1.525,3.5,3.5,0,0,1,1.238-.941,5.74,5.74,0,0,1,1.594-.464,11,11,0,0,1,1.543-.121,4.12,4.12,0,0,1,2.223.564,4.411,4.411,0,0,1,1.462,1.492,6.665,6.665,0,0,1,.8,2.144,12.528,12.528,0,0,1,.245,2.476,14.162,14.162,0,0,1-.164,1.978,19.547,19.547,0,0,1-.487,2.344,20.6,20.6,0,0,1-.8,2.388,11.56,11.56,0,0,1-1.106,2.122,6,6,0,0,1-1.411,1.515,2.84,2.84,0,0,1-1.715.574q-.183,0-.437-.541t-.568-1.448q-.315-.907-.65-2.089t-.659-2.454q-.325-1.272-.61-2.554t-.517-2.365q-.236-1.083-.356-1.9A9.158,9.158,0,0,1,876.753,2301.628Zm1.686,1.26q0,.706.09,1.613t.285,1.88q.192.972.487,1.956a14.993,14.993,0,0,0,.681,1.846,9.229,9.229,0,0,0,.873,1.558,4.065,4.065,0,0,0,1.1,1.095q.69-1.061,1.2-1.9a10.956,10.956,0,0,0,.832-1.68,8.835,8.835,0,0,0,.477-1.791,14.089,14.089,0,0,0,.152-2.211,15.291,15.291,0,0,0-.1-1.769,4.641,4.641,0,0,0-.437-1.536,2.761,2.761,0,0,0-.944-1.083,2.825,2.825,0,0,0-1.6-.409,4.584,4.584,0,0,0-1.574.276,7.919,7.919,0,0,0-1.472.718c0,.045,0,.133-.01.266s-.01.276-.01.431,0,.3-.011.442S878.439,2302.829,878.439,2302.888Z" fill="#ff3b67"/>
            <path id="Trazado_2586" data-name="Trazado 2586" d="M887.149,2312.129a5.657,5.657,0,0,1,.588-2.554,6.622,6.622,0,0,1,1.553-2.034,7.486,7.486,0,0,1,2.172-1.337,6.5,6.5,0,0,1,2.447-.486,1.78,1.78,0,0,1,1.228.486,4.2,4.2,0,0,1,.9,1.183,6.583,6.583,0,0,1,.559,1.469,5.675,5.675,0,0,1,.193,1.349,5.551,5.551,0,0,1-.549,2.4,7.511,7.511,0,0,1-1.421,2.056,7.354,7.354,0,0,1-1.968,1.447,4.818,4.818,0,0,1-2.194.553,3.4,3.4,0,0,1-1.644-.364,2.968,2.968,0,0,1-1.075-.973,4.315,4.315,0,0,1-.6-1.437A7.716,7.716,0,0,1,887.149,2312.129Zm1.725.221a4.878,4.878,0,0,0,.091,1,1.853,1.853,0,0,0,.325.741,1.486,1.486,0,0,0,.619.475,2.412,2.412,0,0,0,.954.166,2.891,2.891,0,0,0,1.5-.453,5.579,5.579,0,0,0,1.35-1.149,6.076,6.076,0,0,0,.965-1.537,4.1,4.1,0,0,0,.365-1.636,5.4,5.4,0,0,0-.062-.774,3.375,3.375,0,0,0-.2-.774,1.628,1.628,0,0,0-.406-.6.953.953,0,0,0-.67-.243,1.9,1.9,0,0,0-.863.266,7.191,7.191,0,0,0-1.035.685,10.469,10.469,0,0,0-1.056.951q-.519.53-.944,1.061a6.276,6.276,0,0,0-.68,1.017A1.831,1.831,0,0,0,888.874,2312.35Z" fill="#ff3b67"/>
            <path id="Trazado_2587" data-name="Trazado 2587" d="M897.583,2309.166a1.113,1.113,0,0,1,.264-.829,1.2,1.2,0,0,1,.852-.254h.2c.041.235.088.508.143.817a6.622,6.622,0,0,0,.243.952,5.529,5.529,0,0,0,.386.9,1.964,1.964,0,0,0,.548.651,3.747,3.747,0,0,1,.355-1.492,5.358,5.358,0,0,1,.833-1.282,5.294,5.294,0,0,1,1.1-.95,3.7,3.7,0,0,1,1.187-.52h.448a2.862,2.862,0,0,1,1.664.476,3.919,3.919,0,0,1,1.147,1.237,6.351,6.351,0,0,1,.7,1.737,16.919,16.919,0,0,1,.376,1.978c.088.671.142,1.318.163,1.945s.03,1.161.03,1.6h-1.482q-.121-1.327-.3-2.542-.062-.486-.162-1.028c-.069-.362-.143-.7-.224-1.017s-.17-.611-.264-.885a3.354,3.354,0,0,0-.325-.7c-.055-.059-.125-.14-.213-.243s-.18-.206-.274-.31-.183-.191-.264-.265a.554.554,0,0,0-.142-.111,1.017,1.017,0,0,0-1.056.255,3.917,3.917,0,0,0-.792,1.16,8.14,8.14,0,0,0-.558,1.658c-.142.62-.261,1.212-.355,1.78s-.162,1.061-.2,1.481-.068.674-.081.763a.963.963,0,0,1-.955.232,1.929,1.929,0,0,1-.842-.7,5.76,5.76,0,0,1-.711-1.327q-.315-.8-.578-1.691t-.478-1.8C897.817,2310.242,897.692,2309.683,897.583,2309.166Z" fill="#ff3b67"/>
            <path id="Trazado_2588" data-name="Trazado 2588" d="M908.891,2314.008a4.386,4.386,0,0,1,.589-2.278,6.775,6.775,0,0,1,1.462-1.735,9.8,9.8,0,0,1,1.888-1.26q1.014-.519,1.888-.862t1.462-.553c.392-.139.589-.255.589-.342,0-.516-.025-1.021-.072-1.515s-.1-.991-.152-1.492-.1-1-.152-1.492-.072-.984-.072-1.47v-1.438q.832-.33,1.188.067a1.5,1.5,0,0,1,.112,1.371q.081.486.223,1.525t.315,2.343q.172,1.305.366,2.741t.365,2.753q.172,1.315.295,2.343t.182,1.537c.013.073.027.218.04.431s.024.442.031.685.013.468.02.674.011.355.011.442a5.278,5.278,0,0,1-1.046-.066.439.439,0,0,1-.345-.265,1.775,1.775,0,0,1-.071-.575,3.831,3.831,0,0,0-.2-1.039,12.353,12.353,0,0,1-1.421,1.062,7.615,7.615,0,0,1-1.34.673,6.355,6.355,0,0,1-1.351.354,10.049,10.049,0,0,1-1.451.1,6.273,6.273,0,0,1-1.249-.122,2.957,2.957,0,0,1-1.065-.431,2.262,2.262,0,0,1-.752-.84A2.78,2.78,0,0,1,908.891,2314.008Zm1.766-.465a1.036,1.036,0,0,0,.143.575,1.3,1.3,0,0,0,.365.376,1.321,1.321,0,0,0,.477.21,2.331,2.331,0,0,0,.5.055,4.507,4.507,0,0,0,1.532-.3,5.573,5.573,0,0,0,1.522-.84,4.688,4.688,0,0,0,1.158-1.294,3.1,3.1,0,0,0,.457-1.636,1.515,1.515,0,0,0-.223-.95,1.085,1.085,0,0,0-.853-.265,4.283,4.283,0,0,0-1.512.332,7.9,7.9,0,0,0-1.665.883,5.687,5.687,0,0,0-1.351,1.293A2.588,2.588,0,0,0,910.657,2313.543Z" fill="#ff3b67"/>
            <path id="Trazado_2589" data-name="Trazado 2589" d="M920.667,2310.471a11.029,11.029,0,0,1,.264-2.388,7,7,0,0,1,.843-2.145,4.761,4.761,0,0,1,1.5-1.547,4.048,4.048,0,0,1,2.244-.6,2.8,2.8,0,0,1,1.32.3,2.964,2.964,0,0,1,.954.784,3.337,3.337,0,0,1,.578,1.139,4.753,4.753,0,0,1,.194,1.359,5.287,5.287,0,0,1-.478,2.189,6.275,6.275,0,0,1-1.278,1.868,5.324,5.324,0,0,1-1.838,1.216,3.642,3.642,0,0,1-2.112.188,1.488,1.488,0,0,0,.4,1.028,2.436,2.436,0,0,0,.9.585,4.258,4.258,0,0,0,1.1.255q.568.055,1.016.055a4.172,4.172,0,0,0,.873-.088c.27-.059.541-.125.811-.2s.545-.14.822-.2a4.324,4.324,0,0,1,.883-.087,3.172,3.172,0,0,1,.366.021,1.148,1.148,0,0,1,.345.1.61.61,0,0,1,.264.243.776.776,0,0,1,.1.409.926.926,0,0,1-.284.7,2.5,2.5,0,0,1-.72.476,4.206,4.206,0,0,1-.964.3c-.353.065-.7.118-1.026.154s-.636.059-.914.066-.483.011-.619.011a5.756,5.756,0,0,1-2.335-.453,4.926,4.926,0,0,1-1.745-1.26,5.509,5.509,0,0,1-1.087-1.945A8.065,8.065,0,0,1,920.667,2310.471Zm2.151-1.438a2.459,2.459,0,0,0,.194,1.128c.128.235.443.354.944.354a2.683,2.683,0,0,0,1.035-.21,3.179,3.179,0,0,0,.924-.586,2.806,2.806,0,0,0,.659-.885,2.511,2.511,0,0,0,.244-1.1,4.934,4.934,0,0,0-.05-.685,1.985,1.985,0,0,0-.213-.652,1.456,1.456,0,0,0-.417-.487,1.081,1.081,0,0,0-.659-.187,2.1,2.1,0,0,0-1.107.3,2.839,2.839,0,0,0-.843.774,3.593,3.593,0,0,0-.527,1.061A3.943,3.943,0,0,0,922.818,2309.033Z" fill="#ff3b67"/>
            <path id="Trazado_2590" data-name="Trazado 2590" d="M946.592,2328.377a4.427,4.427,0,0,0,2.03-.453,4.5,4.5,0,0,0,1.513-1.237,5.862,5.862,0,0,0,.954-1.791,6.555,6.555,0,0,0,.335-2.089q0-.553-.051-1.46t-.152-1.967q-.1-1.062-.294-2.167a19.819,19.819,0,0,0-.478-2.089,8.164,8.164,0,0,0-.7-1.725,2.643,2.643,0,0,0-.964-1.049q-.528.442-1.036.806a5.863,5.863,0,0,1-1.056.609,6.655,6.655,0,0,1-1.136.386,5.279,5.279,0,0,1-1.259.144,5.476,5.476,0,0,1-1.492-.177,2.312,2.312,0,0,1-1.035-.6,2.566,2.566,0,0,1-.62-1.1,6.191,6.191,0,0,1-.2-1.725,3.327,3.327,0,0,1,.326-1.425,5.387,5.387,0,0,1,.862-1.305,8,8,0,0,1,1.219-1.116,10.221,10.221,0,0,1,1.4-.884,7.513,7.513,0,0,1,1.421-.575,4.62,4.62,0,0,1,1.249-.2q.527,0,.873.033a1.431,1.431,0,0,1,.589.176,1.2,1.2,0,0,1,.416.443,4.319,4.319,0,0,1,.335.807q.465,1.725,1.076,3.714t1.157,4.089q.548,2.1.923,4.235a23.692,23.692,0,0,1,.376,4.123,8.62,8.62,0,0,1-.457,3,5.87,5.87,0,0,1-1.2,2.011,5.228,5.228,0,0,1-1.686,1.206,6.785,6.785,0,0,1-1.9.541,9.219,9.219,0,0,1-1.847.055,7.639,7.639,0,0,1-1.543-.254,3.246,3.246,0,0,1-.985-.431c-.223-.162-.278-.3-.162-.409a1.78,1.78,0,0,1,.923-.232A13.093,13.093,0,0,1,946.592,2328.377Zm.284-21.333a7.245,7.245,0,0,0-2.426.983,4.812,4.812,0,0,0-1.381,1.349,3.008,3.008,0,0,0-.5,1.437,2.2,2.2,0,0,0,.245,1.227,1.785,1.785,0,0,0,.822.763,1.6,1.6,0,0,0,1.227.022,4.036,4.036,0,0,0,1.473-1.006,9.278,9.278,0,0,0,1.573-2.3q0-.375.01-.818a3.352,3.352,0,0,0-.071-.807,1.288,1.288,0,0,0-.3-.608A.864.864,0,0,0,946.876,2307.044Z" fill="#ff3b67"/>
            <path id="Trazado_2591" data-name="Trazado 2591" d="M953.109,2307.6c0-.089,0-.247.01-.476s.011-.468.011-.719,0-.482.01-.7.01-.364.01-.453a4.05,4.05,0,0,1,.334-.52,1.132,1.132,0,0,1,.407-.353.67.67,0,0,1,.467-.033,1.021,1.021,0,0,1,.517.442v.464c-.014.074-.04.247-.081.519s-.088.572-.142.9-.1.623-.152.9a4.08,4.08,0,0,0-.071.52,8.5,8.5,0,0,0,.081,1.05q.081.63.233,1.315a13.256,13.256,0,0,0,.386,1.371,6.308,6.308,0,0,0,.559,1.227,3.814,3.814,0,0,0,.72.9,1.342,1.342,0,0,0,.924.354,1.852,1.852,0,0,0,1.148-.376,3.449,3.449,0,0,0,.862-.973,5.927,5.927,0,0,0,.6-1.348,13.334,13.334,0,0,0,.376-1.514q.141-.764.2-1.471t.06-1.238a6.728,6.728,0,0,0-.071-1.006c-.047-.316-.1-.63-.172-.939s-.126-.616-.173-.917a5.85,5.85,0,0,1-.071-.918.657.657,0,0,1,.274-.6,1.125,1.125,0,0,1,.619-.177.91.91,0,0,1,.691.277,1.97,1.97,0,0,1,.416.7,3.925,3.925,0,0,1,.2.962c.033.361.051.719.051,1.072s-.007.689-.021,1.006-.02.571-.02.763a15.858,15.858,0,0,1-.1,1.7,14.017,14.017,0,0,1-.354,1.956,17.264,17.264,0,0,1-.63,1.978,8,8,0,0,1-.913,1.736,4.689,4.689,0,0,1-1.24,1.227,2.924,2.924,0,0,1-3.176-.01,4.076,4.076,0,0,1-1.167-1.261,8.451,8.451,0,0,1-.8-1.779,14.194,14.194,0,0,1-.5-1.991q-.172-.995-.243-1.933T953.109,2307.6Z" fill="#ff3b67"/>
            <path id="Trazado_2592" data-name="Trazado 2592" d="M972.274,2313.765q-.773.573-1.331,1.027a8.7,8.7,0,0,1-1.085.763,4.4,4.4,0,0,1-1.127.465,5.993,5.993,0,0,1-1.472.154,3.443,3.443,0,0,1-2.8-1.094,4.994,4.994,0,0,1-.913-3.261,7.958,7.958,0,0,1,.2-1.747,9.654,9.654,0,0,1,.6-1.8,10.668,10.668,0,0,1,.944-1.7,7.713,7.713,0,0,1,1.238-1.425,6,6,0,0,1,1.472-.984,3.867,3.867,0,0,1,1.654-.365,4.543,4.543,0,0,1,2.295.785,3.96,3.96,0,0,1,1.258,1.613,8.271,8.271,0,0,1,.589,2.189q.162,1.206.254,2.487t.233,2.565a8.679,8.679,0,0,0,.589,2.365,3.994,3.994,0,0,1-.5,1.028.34.34,0,0,1-.517.1,2.669,2.669,0,0,1-.661-.973Q972.82,2315.181,972.274,2313.765Zm-7-1.9a3.112,3.112,0,0,0,.436,1.846,1.819,1.819,0,0,0,1.553.586,4.083,4.083,0,0,0,1.594-.32,4.175,4.175,0,0,0,1.33-.885,4.294,4.294,0,0,0,.913-1.36,4.4,4.4,0,0,0,.346-1.768c0-.266.006-.638.02-1.116a8.385,8.385,0,0,0-.082-1.426,3.591,3.591,0,0,0-.386-1.228.917.917,0,0,0-.852-.519,3.477,3.477,0,0,0-1.949.586,5.8,5.8,0,0,0-1.543,1.492,7.481,7.481,0,0,0-1.015,2A6.672,6.672,0,0,0,965.27,2311.863Z" fill="#ff3b67"/>
            <path id="Trazado_2593" data-name="Trazado 2593" d="M976.151,2307.331c0-.133.007-.268.021-.409a1.477,1.477,0,0,1,.081-.376.64.64,0,0,1,.192-.275.565.565,0,0,1,.376-.112q.2,0,.457.343a6.288,6.288,0,0,1,.518.862q.264.52.518,1.139t.446,1.139q.193.519.314.9a3.153,3.153,0,0,0,.143.4q.264-.774.589-1.68a9.165,9.165,0,0,1,.8-1.692,5,5,0,0,1,1.136-1.315,2.5,2.5,0,0,1,1.614-.53,2.563,2.563,0,0,1,.924.165,2.3,2.3,0,0,1,.772.486,2.5,2.5,0,0,1,.538.763,2.419,2.419,0,0,1,.2,1.017.719.719,0,0,1-.355.685,1.614,1.614,0,0,1-.8.2h-.2l-.873-.95a.084.084,0,0,1-.062-.022.186.186,0,0,1-.07-.011.2.2,0,0,0-.072-.011,1.429,1.429,0,0,0-1.106.431,2.809,2.809,0,0,0-.6,1.061,5.618,5.618,0,0,0-.253,1.326c-.035.464-.051.888-.051,1.272a4.962,4.962,0,0,0,.081.894c.053.3.115.6.182.885s.129.582.183.884a5.341,5.341,0,0,1,.081.939.814.814,0,0,1-.913.929,1.516,1.516,0,0,1-1.056-.586,8.583,8.583,0,0,1-1.086-1.492,18.9,18.9,0,0,1-1.025-2q-.488-1.094-.853-2.134t-.579-1.879A5.717,5.717,0,0,1,976.151,2307.331Z" fill="#ff3b67"/>
            <path id="Trazado_2594" data-name="Trazado 2594" d="M986.079,2314.008a4.386,4.386,0,0,1,.589-2.278A6.812,6.812,0,0,1,988.13,2310a9.812,9.812,0,0,1,1.889-1.26q1.012-.519,1.887-.862t1.462-.553c.393-.139.589-.255.589-.342q0-.774-.071-1.515t-.153-1.492q-.081-.751-.152-1.492t-.071-1.47v-1.438q.832-.33,1.187.067a1.5,1.5,0,0,1,.113,1.371c.053.324.128.833.222,1.525s.2,1.474.316,2.343.236,1.784.365,2.741.25,1.876.365,2.753.213,1.658.295,2.343.142,1.2.183,1.537c.012.073.026.218.04.431s.023.442.03.685.014.468.021.674.01.355.01.442a5.284,5.284,0,0,1-1.046-.066.439.439,0,0,1-.344-.265,1.769,1.769,0,0,1-.072-.575,3.831,3.831,0,0,0-.2-1.039,12.258,12.258,0,0,1-1.421,1.062,7.605,7.605,0,0,1-1.339.673,6.386,6.386,0,0,1-1.351.354,10.059,10.059,0,0,1-1.451.1,6.258,6.258,0,0,1-1.249-.122,2.962,2.962,0,0,1-1.066-.431,2.279,2.279,0,0,1-.752-.84A2.792,2.792,0,0,1,986.079,2314.008Zm1.767-.465a1.044,1.044,0,0,0,.142.575,1.291,1.291,0,0,0,.366.376,1.308,1.308,0,0,0,.476.21,2.331,2.331,0,0,0,.5.055,4.5,4.5,0,0,0,1.532-.3,5.594,5.594,0,0,0,1.523-.84,4.683,4.683,0,0,0,1.157-1.294,3.087,3.087,0,0,0,.457-1.636,1.517,1.517,0,0,0-.222-.95,1.088,1.088,0,0,0-.854-.265,4.283,4.283,0,0,0-1.512.332,7.9,7.9,0,0,0-1.665.883,5.684,5.684,0,0,0-1.35,1.293A2.581,2.581,0,0,0,987.846,2313.543Z" fill="#ff3b67"/>
            <path id="Trazado_2595" data-name="Trazado 2595" d="M1006.584,2313.765q-.773.573-1.33,1.027a8.633,8.633,0,0,1-1.086.763,4.371,4.371,0,0,1-1.127.465,5.987,5.987,0,0,1-1.472.154,3.441,3.441,0,0,1-2.8-1.094,4.988,4.988,0,0,1-.913-3.261,7.958,7.958,0,0,1,.2-1.747,9.654,9.654,0,0,1,.6-1.8,10.668,10.668,0,0,1,.945-1.7,7.71,7.71,0,0,1,1.238-1.425,5.979,5.979,0,0,1,1.472-.984,3.864,3.864,0,0,1,1.654-.365,4.547,4.547,0,0,1,2.295.785,3.97,3.97,0,0,1,1.258,1.613,8.31,8.31,0,0,1,.589,2.189q.162,1.206.253,2.487t.234,2.565a8.683,8.683,0,0,0,.589,2.365,3.992,3.992,0,0,1-.5,1.028.341.341,0,0,1-.518.1,2.682,2.682,0,0,1-.66-.973Q1007.132,2315.181,1006.584,2313.765Zm-7-1.9a3.112,3.112,0,0,0,.437,1.846,1.817,1.817,0,0,0,1.552.586,4.083,4.083,0,0,0,1.594-.32,4.163,4.163,0,0,0,1.33-.885,4.278,4.278,0,0,0,.913-1.36,4.381,4.381,0,0,0,.346-1.768q0-.4.021-1.116a8.493,8.493,0,0,0-.082-1.426,3.634,3.634,0,0,0-.386-1.228.919.919,0,0,0-.853-.519,3.474,3.474,0,0,0-1.948.586,5.78,5.78,0,0,0-1.543,1.492,7.484,7.484,0,0,0-1.016,2A6.672,6.672,0,0,0,999.58,2311.863Z" fill="#ff3b67"/>
            <path id="Trazado_2596" data-name="Trazado 2596" d="M1010.015,2307.331a1.777,1.777,0,0,1,.173-.862.777.777,0,0,1,.741-.31c.041,0,.118,0,.233.012s.186.011.213.011q.142.686.295,1.492t.355,1.625q.2.817.457,1.613a7.465,7.465,0,0,0,.619,1.438,2.547,2.547,0,0,0,.528-1,8.583,8.583,0,0,0,.243-1.16q.082-.585.153-1.128a2.486,2.486,0,0,1,.294-.928,1.307,1.307,0,0,1,.66-.564,2.085,2.085,0,0,1,1.208,0,2.39,2.39,0,0,1,1.36.343,3.545,3.545,0,0,1,.884.862q.375.52.73,1.106a4.3,4.3,0,0,0,.9,1.05l.3-.719a8.541,8.541,0,0,1,.457-.906q.274-.476.589-.951a7.476,7.476,0,0,1,.659-.862,4.137,4.137,0,0,1,.711-.642,1.257,1.257,0,0,1,.71-.253,2.053,2.053,0,0,1,1.442.563,5.04,5.04,0,0,1,1.046,1.415,9.677,9.677,0,0,1,.72,1.9q.285,1.051.447,2.023t.234,1.78q.07.807.07,1.16a.7.7,0,0,1-.121.443.767.767,0,0,1-.305.232,1.358,1.358,0,0,1-.4.1q-.213.021-.4.021a.867.867,0,0,1-.122-.011c-.053-.007-.115-.018-.182-.033s-.129-.037-.224-.066l-1.319-6.61c0-.044-.054-.129-.162-.254a1.176,1.176,0,0,0-.244-.233.222.222,0,0,1-.1-.021.126.126,0,0,1-.061-.012.086.086,0,0,0-.041-.011,1.123,1.123,0,0,0-.8.376,4.464,4.464,0,0,0-.7.95,10.976,10.976,0,0,0-.609,1.283q-.284.707-.507,1.4t-.4,1.282c-.115.391-.206.689-.274.9a1.155,1.155,0,0,1-.325.077c-.162.021-.27.033-.325.033a1,1,0,0,1-.873-.432,3.711,3.711,0,0,1-.5-1.072,11.616,11.616,0,0,1-.325-1.4,12.046,12.046,0,0,0-.325-1.4,3.271,3.271,0,0,0-.528-1.073,1.125,1.125,0,0,0-.943-.43q-.225,0-.427.486a7.229,7.229,0,0,0-.365,1.226q-.164.743-.3,1.592t-.233,1.592c-.061.494-.12,1.08-.173,1.758a.514.514,0,0,1-.162.143l-.254.166a1.09,1.09,0,0,1-.264.133.669.669,0,0,1-.193.044,1.514,1.514,0,0,1-1.1-.563,5.9,5.9,0,0,1-.965-1.459,15.739,15.739,0,0,1-.792-1.979q-.354-1.083-.6-2.123t-.375-1.879A8.825,8.825,0,0,1,1010.015,2307.331Z" fill="#ff3b67"/>
            <path id="Trazado_2597" data-name="Trazado 2597" d="M1028.287,2312.129a5.646,5.646,0,0,1,.589-2.554,6.606,6.606,0,0,1,1.553-2.034,7.475,7.475,0,0,1,2.172-1.337,6.5,6.5,0,0,1,2.447-.486,1.776,1.776,0,0,1,1.227.486,4.187,4.187,0,0,1,.9,1.183,6.581,6.581,0,0,1,.558,1.469,5.688,5.688,0,0,1,.194,1.349,5.551,5.551,0,0,1-.549,2.4,7.512,7.512,0,0,1-1.421,2.056,7.342,7.342,0,0,1-1.969,1.447,4.814,4.814,0,0,1-2.193.553,3.408,3.408,0,0,1-1.645-.364,2.984,2.984,0,0,1-1.075-.973,4.315,4.315,0,0,1-.6-1.437A7.716,7.716,0,0,1,1028.287,2312.129Zm1.726.221a4.878,4.878,0,0,0,.091,1,1.855,1.855,0,0,0,.325.741,1.486,1.486,0,0,0,.619.475,2.413,2.413,0,0,0,.954.166,2.89,2.89,0,0,0,1.5-.453,5.6,5.6,0,0,0,1.35-1.149,6.07,6.07,0,0,0,.964-1.537,4.083,4.083,0,0,0,.366-1.636,5.414,5.414,0,0,0-.062-.774,3.375,3.375,0,0,0-.2-.774,1.642,1.642,0,0,0-.406-.6.954.954,0,0,0-.67-.243,1.9,1.9,0,0,0-.863.266,7.251,7.251,0,0,0-1.036.685,10.461,10.461,0,0,0-1.055.951q-.519.53-.945,1.061a6.266,6.266,0,0,0-.679,1.017A1.832,1.832,0,0,0,1030.013,2312.35Z" fill="#ff3b67"/>
            <path id="Trazado_2598" data-name="Trazado 2598" d="M1042.62,2315.621q.326-.243.782-.63t.924-.829a10.776,10.776,0,0,0,.873-.929,5.084,5.084,0,0,0,.639-.939,1.863,1.863,0,0,0,.233-.851.792.792,0,0,0-.365-.663q-.648,0-1.421.055t-1.543.044a8.844,8.844,0,0,1-1.492-.144,3.664,3.664,0,0,1-1.289-.486,2.473,2.473,0,0,1-.9-1.006,3.633,3.633,0,0,1-.335-1.669,5.361,5.361,0,0,1,.416-2.155,5.911,5.911,0,0,1,1.106-1.7,8.371,8.371,0,0,1,1.553-1.3,13.189,13.189,0,0,1,1.736-.962,2.544,2.544,0,0,1,.975.553,4.626,4.626,0,0,1,.771.885,1.29,1.29,0,0,1-.558.752,5.1,5.1,0,0,1-.954.464q-.538.2-1.127.419a4.155,4.155,0,0,0-1.066.586,3.029,3.029,0,0,0-.8.951,3.168,3.168,0,0,0-.325,1.537,1.442,1.442,0,0,0,.325,1.039,1.7,1.7,0,0,0,.853.453,4.4,4.4,0,0,0,1.2.088q.672-.033,1.37-.1c.468-.045.924-.07,1.372-.078a3.4,3.4,0,0,1,1.2.177,1.769,1.769,0,0,1,.843.608,2.047,2.047,0,0,1,.314,1.238,2.63,2.63,0,0,1-.213.907,9.208,9.208,0,0,1-.568,1.182,10.708,10.708,0,0,1-.832,1.249,10.305,10.305,0,0,1-.995,1.117,6.314,6.314,0,0,1-1.036.818,1.851,1.851,0,0,1-.964.32.536.536,0,0,1-.559-.332A1.776,1.776,0,0,1,1042.62,2315.621Z" fill="#ff3b67"/>
            <path id="Trazado_2599" data-name="Trazado 2599" d="M876.713,2337.463a1.113,1.113,0,0,1,.264-.829,1.2,1.2,0,0,1,.852-.254h.2c.041.235.088.508.143.817a6.575,6.575,0,0,0,.243.951,5.368,5.368,0,0,0,.386.9,1.977,1.977,0,0,0,.548.651,3.733,3.733,0,0,1,.355-1.492,5.369,5.369,0,0,1,.833-1.282,5.275,5.275,0,0,1,1.1-.95,3.706,3.706,0,0,1,1.187-.52h.448a2.853,2.853,0,0,1,1.664.476,3.928,3.928,0,0,1,1.147,1.237,6.353,6.353,0,0,1,.7,1.736,17.412,17.412,0,0,1,.376,1.979c.088.671.142,1.318.162,1.945s.031,1.16.031,1.6h-1.482q-.121-1.328-.3-2.542-.062-.486-.163-1.029t-.223-1.016c-.081-.318-.17-.611-.264-.885a3.4,3.4,0,0,0-.325-.7c-.055-.059-.125-.14-.213-.243s-.18-.206-.274-.31-.183-.191-.264-.266a.534.534,0,0,0-.143-.11,1.016,1.016,0,0,0-1.055.255,3.921,3.921,0,0,0-.792,1.16,8.109,8.109,0,0,0-.558,1.658q-.213.928-.355,1.78t-.2,1.481q-.061.63-.082.763a.963.963,0,0,1-.954.232,1.935,1.935,0,0,1-.842-.7,5.78,5.78,0,0,1-.711-1.327q-.315-.8-.578-1.691t-.478-1.8Q876.875,2338.237,876.713,2337.463Z" fill="#ff3b67"/>
            <path id="Trazado_2600" data-name="Trazado 2600" d="M888.468,2335.894c0-.089,0-.248.01-.476s.01-.468.01-.719,0-.482.01-.7.01-.364.01-.453a4.049,4.049,0,0,1,.335-.52,1.135,1.135,0,0,1,.406-.353.671.671,0,0,1,.467-.033,1.011,1.011,0,0,1,.517.442v.464q-.02.111-.081.519t-.141.9q-.082.486-.153.9a4.279,4.279,0,0,0-.071.52,8.706,8.706,0,0,0,.081,1.05q.081.63.234,1.315a13.021,13.021,0,0,0,.385,1.371,6.4,6.4,0,0,0,.559,1.227,3.82,3.82,0,0,0,.721.9,1.339,1.339,0,0,0,.924.354,1.852,1.852,0,0,0,1.147-.376,3.447,3.447,0,0,0,.862-.973,5.89,5.89,0,0,0,.6-1.348,13.333,13.333,0,0,0,.376-1.514q.143-.764.2-1.471t.061-1.238a6.721,6.721,0,0,0-.072-1.006c-.047-.316-.1-.63-.172-.939s-.126-.616-.172-.917a5.846,5.846,0,0,1-.072-.918.656.656,0,0,1,.275-.6,1.121,1.121,0,0,1,.619-.177.908.908,0,0,1,.69.277,1.956,1.956,0,0,1,.416.7,3.866,3.866,0,0,1,.2.962q.051.542.051,1.072c0,.354-.007.688-.02,1.006s-.021.571-.021.763a16.1,16.1,0,0,1-.1,1.7,14.206,14.206,0,0,1-.355,1.956,17.28,17.28,0,0,1-.63,1.978,7.958,7.958,0,0,1-.913,1.736,4.684,4.684,0,0,1-1.239,1.227,2.922,2.922,0,0,1-3.177-.011,4.068,4.068,0,0,1-1.167-1.26,8.51,8.51,0,0,1-.8-1.78,14.431,14.431,0,0,1-.5-1.99q-.172-.994-.243-1.933T888.468,2335.894Z" fill="#ff3b67"/>
            <path id="Trazado_2601" data-name="Trazado 2601" d="M898.9,2338.768a11.035,11.035,0,0,1,.264-2.388,6.994,6.994,0,0,1,.843-2.145,4.775,4.775,0,0,1,1.5-1.547,4.044,4.044,0,0,1,2.243-.6,2.788,2.788,0,0,1,1.32.3,2.954,2.954,0,0,1,.954.784,3.337,3.337,0,0,1,.579,1.139,4.788,4.788,0,0,1,.193,1.359,5.272,5.272,0,0,1-.478,2.189,6.29,6.29,0,0,1-1.278,1.868,5.313,5.313,0,0,1-1.838,1.216,3.638,3.638,0,0,1-2.111.188,1.481,1.481,0,0,0,.4,1.028,2.432,2.432,0,0,0,.9.585,4.241,4.241,0,0,0,1.1.255q.568.056,1.016.055a4.19,4.19,0,0,0,.873-.088q.405-.089.812-.2t.822-.2a4.292,4.292,0,0,1,.883-.088,3.229,3.229,0,0,1,.366.022,1.173,1.173,0,0,1,.345.1.608.608,0,0,1,.263.243.768.768,0,0,1,.1.409.929.929,0,0,1-.284.7,2.526,2.526,0,0,1-.721.476,4.2,4.2,0,0,1-.964.3c-.353.065-.694.118-1.025.154s-.637.058-.914.066-.484.011-.62.011a5.756,5.756,0,0,1-2.335-.453,4.926,4.926,0,0,1-1.745-1.26,5.521,5.521,0,0,1-1.087-1.945A8.065,8.065,0,0,1,898.9,2338.768Zm2.152-1.438a2.464,2.464,0,0,0,.193,1.128c.128.235.444.354.944.354a2.693,2.693,0,0,0,1.036-.21,3.179,3.179,0,0,0,.923-.586,2.8,2.8,0,0,0,.66-.885,2.512,2.512,0,0,0,.244-1.105,4.942,4.942,0,0,0-.051-.685,1.946,1.946,0,0,0-.213-.653,1.454,1.454,0,0,0-.417-.486,1.081,1.081,0,0,0-.659-.187,2.1,2.1,0,0,0-1.107.3,2.827,2.827,0,0,0-.842.774,3.584,3.584,0,0,0-.528,1.06A3.957,3.957,0,0,0,901.055,2337.33Z" fill="#ff3b67"/>
            <path id="Trazado_2602" data-name="Trazado 2602" d="M914.129,2343.918q.325-.243.782-.63t.924-.829a10.909,10.909,0,0,0,.873-.929,5.08,5.08,0,0,0,.639-.939,1.864,1.864,0,0,0,.233-.851.793.793,0,0,0-.365-.663q-.65,0-1.421.055c-.515.037-1.028.052-1.543.044a8.825,8.825,0,0,1-1.492-.144,3.653,3.653,0,0,1-1.289-.486,2.47,2.47,0,0,1-.9-1.006,3.636,3.636,0,0,1-.335-1.669,5.357,5.357,0,0,1,.416-2.155,5.911,5.911,0,0,1,1.106-1.7,8.379,8.379,0,0,1,1.553-1.3,13.182,13.182,0,0,1,1.736-.962,2.541,2.541,0,0,1,.975.553,4.621,4.621,0,0,1,.771.885,1.294,1.294,0,0,1-.558.752,5.007,5.007,0,0,1-.955.463l-1.126.42a4.138,4.138,0,0,0-1.066.586,3.039,3.039,0,0,0-.8.95,3.187,3.187,0,0,0-.324,1.538,1.447,1.447,0,0,0,.324,1.039,1.7,1.7,0,0,0,.854.453,4.384,4.384,0,0,0,1.2.088q.671-.033,1.37-.1c.468-.045.924-.07,1.371-.078a3.4,3.4,0,0,1,1.2.177,1.766,1.766,0,0,1,.842.608,2.043,2.043,0,0,1,.315,1.238,2.637,2.637,0,0,1-.213.907,9.337,9.337,0,0,1-.568,1.182,10.676,10.676,0,0,1-.832,1.249,10.063,10.063,0,0,1-1,1.116,6.284,6.284,0,0,1-1.035.819,1.854,1.854,0,0,1-.965.32.536.536,0,0,1-.558-.332A1.777,1.777,0,0,1,914.129,2343.918Z" fill="#ff3b67"/>
            <path id="Trazado_2603" data-name="Trazado 2603" d="M919.793,2333.771a.279.279,0,0,1,.021-.111.373.373,0,0,1,.02-.11q.081-.109.243-.287c.109-.118.176-.177.2-.177h4.081a7.753,7.753,0,0,0-.06-.774q-.062-.531-.112-1.171a12.494,12.494,0,0,1-.031-1.338,5.5,5.5,0,0,1,.173-1.26,2.2,2.2,0,0,1,.487-.929,1.219,1.219,0,0,1,.944-.365,18.094,18.094,0,0,0,.284,3.582,6.154,6.154,0,0,0,.762,2.078,2.255,2.255,0,0,0,1.086.95,3.153,3.153,0,0,0,1.249.189,5.535,5.535,0,0,0,1.248-.211,8.031,8.031,0,0,1,1.087-.243,1.176,1.176,0,0,1,.76.1c.19.112.285.373.285.786a.938.938,0,0,1-.193.663,1.461,1.461,0,0,1-.741.309l-.538.077c-.251.037-.531.071-.843.1s-.642.063-.994.1-.684.07-.995.1-.6.048-.853.055-.447.012-.568.012c0,.073-.007.2-.021.376s-.02.294-.02.353a6.368,6.368,0,0,0,.284,1.89q.285.918.619,1.824t.619,1.812a6.238,6.238,0,0,1,.285,1.879,2.216,2.216,0,0,1-.031.366.854.854,0,0,1-.122.332.58.58,0,0,1-.263.22.651.651,0,0,1-.477-.033,1.8,1.8,0,0,1-1.147-.95,6.2,6.2,0,0,1-.559-1.735,17.165,17.165,0,0,1-.243-2.134q-.061-1.128-.194-2.112a6.832,6.832,0,0,0-.416-1.679,1.312,1.312,0,0,0-.913-.852l-3.919-.972c-.053,0-.134-.063-.243-.188a1.492,1.492,0,0,1-.2-.276.263.263,0,0,1-.02-.112A.335.335,0,0,1,919.793,2333.771Z" fill="#ff3b67"/>
            <path id="Trazado_2604" data-name="Trazado 2604" d="M933.294,2335.628q0-.2.021-.409a1.437,1.437,0,0,1,.081-.376.635.635,0,0,1,.192-.276.57.57,0,0,1,.376-.111q.2,0,.457.343a6.225,6.225,0,0,1,.518.862q.262.521.517,1.139t.446,1.138q.194.52.315.9a3.3,3.3,0,0,0,.142.4q.264-.772.589-1.679a9.233,9.233,0,0,1,.8-1.692,4.967,4.967,0,0,1,1.137-1.315,2.488,2.488,0,0,1,1.614-.53,2.573,2.573,0,0,1,.924.165,2.281,2.281,0,0,1,.771.486,2.466,2.466,0,0,1,.538.763,2.42,2.42,0,0,1,.2,1.017.72.72,0,0,1-.356.685,1.613,1.613,0,0,1-.8.2h-.2l-.873-.95a.077.077,0,0,1-.061-.023.215.215,0,0,1-.071-.01.2.2,0,0,0-.071-.011,1.422,1.422,0,0,0-1.106.431,2.806,2.806,0,0,0-.6,1.061,5.563,5.563,0,0,0-.254,1.326q-.051.7-.051,1.272a5.055,5.055,0,0,0,.081.894c.054.3.116.6.183.885s.129.582.183.884a5.436,5.436,0,0,1,.081.939.815.815,0,0,1-.913.929,1.515,1.515,0,0,1-1.056-.586,8.62,8.62,0,0,1-1.086-1.492,19.087,19.087,0,0,1-1.025-2q-.489-1.095-.853-2.134t-.579-1.879A5.65,5.65,0,0,1,933.294,2335.628Z" fill="#ff3b67"/>
            <path id="Trazado_2605" data-name="Trazado 2605" d="M943.669,2340.426a5.644,5.644,0,0,1,.589-2.554,6.608,6.608,0,0,1,1.553-2.034,7.473,7.473,0,0,1,2.172-1.337,6.506,6.506,0,0,1,2.447-.486,1.777,1.777,0,0,1,1.227.486,4.2,4.2,0,0,1,.9,1.183,6.554,6.554,0,0,1,.558,1.469,5.681,5.681,0,0,1,.194,1.349,5.544,5.544,0,0,1-.549,2.4,7.517,7.517,0,0,1-1.421,2.057,7.354,7.354,0,0,1-1.969,1.447,4.83,4.83,0,0,1-2.193.553,3.406,3.406,0,0,1-1.645-.364,3,3,0,0,1-1.075-.973,4.335,4.335,0,0,1-.6-1.437A7.775,7.775,0,0,1,943.669,2340.426Zm1.726.22a4.963,4.963,0,0,0,.09,1.006,1.863,1.863,0,0,0,.326.741,1.483,1.483,0,0,0,.619.475,2.408,2.408,0,0,0,.954.166,2.89,2.89,0,0,0,1.5-.453,5.577,5.577,0,0,0,1.349-1.149,6.042,6.042,0,0,0,.965-1.537,4.1,4.1,0,0,0,.366-1.636,5.383,5.383,0,0,0-.062-.774,3.377,3.377,0,0,0-.2-.774,1.652,1.652,0,0,0-.406-.6.953.953,0,0,0-.67-.243,1.9,1.9,0,0,0-.864.266,7.148,7.148,0,0,0-1.035.685,10.564,10.564,0,0,0-1.055.95q-.519.531-.945,1.062a6.193,6.193,0,0,0-.679,1.017A1.826,1.826,0,0,0,945.4,2340.646Z" fill="#ff3b67"/>
            <path id="Trazado_2606" data-name="Trazado 2606" d="M958,2343.918q.326-.243.782-.63t.924-.829a10.9,10.9,0,0,0,.873-.929,5.08,5.08,0,0,0,.639-.939,1.864,1.864,0,0,0,.233-.851.793.793,0,0,0-.365-.663q-.649,0-1.421.055c-.515.037-1.028.052-1.543.044a8.824,8.824,0,0,1-1.492-.144,3.653,3.653,0,0,1-1.289-.486,2.47,2.47,0,0,1-.9-1.006,3.636,3.636,0,0,1-.335-1.669,5.357,5.357,0,0,1,.416-2.155,5.912,5.912,0,0,1,1.106-1.7,8.381,8.381,0,0,1,1.553-1.3,13.186,13.186,0,0,1,1.736-.962,2.541,2.541,0,0,1,.975.553,4.623,4.623,0,0,1,.771.885,1.29,1.29,0,0,1-.558.752,5.026,5.026,0,0,1-.954.463l-1.127.42a4.155,4.155,0,0,0-1.066.586,3.039,3.039,0,0,0-.8.95,3.187,3.187,0,0,0-.324,1.538,1.447,1.447,0,0,0,.324,1.039,1.7,1.7,0,0,0,.854.453,4.384,4.384,0,0,0,1.2.088q.671-.033,1.37-.1c.468-.045.924-.07,1.371-.078a3.4,3.4,0,0,1,1.2.177,1.766,1.766,0,0,1,.842.608,2.043,2.043,0,0,1,.315,1.238,2.636,2.636,0,0,1-.213.907,9.336,9.336,0,0,1-.568,1.182,10.676,10.676,0,0,1-.832,1.249,10.162,10.162,0,0,1-.995,1.116,6.336,6.336,0,0,1-1.036.819,1.854,1.854,0,0,1-.964.32.537.537,0,0,1-.559-.332A1.777,1.777,0,0,1,958,2343.918Z" fill="#ff3b67"/>
            <path id="Trazado_2607" data-name="Trazado 2607" d="M973.025,2333.771a.28.28,0,0,1,.02-.111.38.38,0,0,1,.021-.11,3.418,3.418,0,0,1,.243-.287c.108-.118.175-.177.2-.177h4.081c0-.162-.021-.42-.061-.774s-.078-.744-.112-1.171a12.5,12.5,0,0,1-.03-1.338,5.394,5.394,0,0,1,.173-1.26,2.176,2.176,0,0,1,.487-.929,1.217,1.217,0,0,1,.943-.365,18.1,18.1,0,0,0,.284,3.582,6.2,6.2,0,0,0,.762,2.078,2.264,2.264,0,0,0,1.086.95,3.153,3.153,0,0,0,1.249.189,5.516,5.516,0,0,0,1.248-.211,8.065,8.065,0,0,1,1.087-.243,1.18,1.18,0,0,1,.761.1c.189.112.284.373.284.786a.938.938,0,0,1-.192.663,1.461,1.461,0,0,1-.742.309l-.538.077c-.251.037-.531.071-.842.1s-.643.063-.995.1-.683.07-.995.1-.6.048-.852.055-.448.012-.569.012c0,.073-.006.2-.02.376s-.021.294-.021.353a6.338,6.338,0,0,0,.285,1.89q.283.918.619,1.824t.619,1.812a6.268,6.268,0,0,1,.284,1.879,2.33,2.33,0,0,1-.03.366.887.887,0,0,1-.122.332.589.589,0,0,1-.264.22.651.651,0,0,1-.477-.033,1.8,1.8,0,0,1-1.147-.95,6.2,6.2,0,0,1-.559-1.735,17.165,17.165,0,0,1-.243-2.134q-.062-1.128-.193-2.112a6.921,6.921,0,0,0-.416-1.679,1.313,1.313,0,0,0-.913-.852l-3.919-.972c-.054,0-.135-.063-.243-.188a1.443,1.443,0,0,1-.2-.276.262.262,0,0,1-.021-.112A.338.338,0,0,1,973.025,2333.771Z" fill="#ff3b67"/>
            <path id="Trazado_2608" data-name="Trazado 2608" d="M986.526,2338.768a11.035,11.035,0,0,1,.264-2.388,6.994,6.994,0,0,1,.843-2.145,4.775,4.775,0,0,1,1.5-1.547,4.044,4.044,0,0,1,2.243-.6,2.788,2.788,0,0,1,1.32.3,2.953,2.953,0,0,1,.954.784,3.338,3.338,0,0,1,.579,1.139,4.79,4.79,0,0,1,.193,1.359,5.272,5.272,0,0,1-.478,2.189,6.29,6.29,0,0,1-1.278,1.868,5.314,5.314,0,0,1-1.838,1.216,3.638,3.638,0,0,1-2.111.188,1.486,1.486,0,0,0,.4,1.028,2.432,2.432,0,0,0,.9.585,4.241,4.241,0,0,0,1.1.255q.568.056,1.016.055a4.175,4.175,0,0,0,.873-.088c.271-.059.541-.125.812-.2s.544-.14.822-.2a4.291,4.291,0,0,1,.883-.088,3.228,3.228,0,0,1,.366.022,1.173,1.173,0,0,1,.345.1.609.609,0,0,1,.263.243.769.769,0,0,1,.1.409.929.929,0,0,1-.284.7,2.525,2.525,0,0,1-.721.476,4.2,4.2,0,0,1-.964.3c-.352.065-.694.118-1.025.154s-.637.058-.914.066-.484.011-.62.011a5.757,5.757,0,0,1-2.335-.453,4.926,4.926,0,0,1-1.745-1.26,5.521,5.521,0,0,1-1.087-1.945A8.065,8.065,0,0,1,986.526,2338.768Zm2.152-1.438a2.464,2.464,0,0,0,.193,1.128c.128.235.444.354.945.354a2.691,2.691,0,0,0,1.035-.21,3.2,3.2,0,0,0,.924-.586,2.81,2.81,0,0,0,.659-.885,2.513,2.513,0,0,0,.244-1.105,4.942,4.942,0,0,0-.051-.685,1.944,1.944,0,0,0-.213-.653,1.453,1.453,0,0,0-.417-.486,1.081,1.081,0,0,0-.659-.187,2.1,2.1,0,0,0-1.106.3,2.831,2.831,0,0,0-.843.774,3.608,3.608,0,0,0-.528,1.06A3.956,3.956,0,0,0,988.678,2337.33Z" fill="#ff3b67"/>
            <path id="Trazado_2609" data-name="Trazado 2609" d="M1001.752,2343.918q.325-.243.782-.63t.924-.829a10.909,10.909,0,0,0,.873-.929,5.08,5.08,0,0,0,.639-.939,1.864,1.864,0,0,0,.233-.851.793.793,0,0,0-.365-.663q-.649,0-1.421.055c-.515.037-1.028.052-1.543.044a8.824,8.824,0,0,1-1.492-.144,3.652,3.652,0,0,1-1.289-.486,2.47,2.47,0,0,1-.9-1.006,3.636,3.636,0,0,1-.335-1.669,5.357,5.357,0,0,1,.416-2.155,5.911,5.911,0,0,1,1.106-1.7,8.379,8.379,0,0,1,1.553-1.3,13.182,13.182,0,0,1,1.736-.962,2.541,2.541,0,0,1,.975.553,4.621,4.621,0,0,1,.771.885,1.294,1.294,0,0,1-.558.752,5.027,5.027,0,0,1-.954.463l-1.127.42a4.155,4.155,0,0,0-1.066.586,3.039,3.039,0,0,0-.8.95,3.188,3.188,0,0,0-.324,1.538,1.448,1.448,0,0,0,.324,1.039,1.7,1.7,0,0,0,.854.453,4.384,4.384,0,0,0,1.2.088q.67-.033,1.37-.1c.468-.045.924-.07,1.371-.078a3.4,3.4,0,0,1,1.2.177,1.767,1.767,0,0,1,.842.608,2.044,2.044,0,0,1,.315,1.238,2.636,2.636,0,0,1-.213.907,9.345,9.345,0,0,1-.568,1.182,10.684,10.684,0,0,1-.832,1.249,10.062,10.062,0,0,1-1,1.116,6.287,6.287,0,0,1-1.035.819,1.854,1.854,0,0,1-.965.32.536.536,0,0,1-.558-.332A1.778,1.778,0,0,1,1001.752,2343.918Z" fill="#ff3b67"/>
            <path id="Trazado_2610" data-name="Trazado 2610" d="M1007.863,2340.426a5.657,5.657,0,0,1,.589-2.554,6.606,6.606,0,0,1,1.553-2.034,7.486,7.486,0,0,1,2.172-1.337,6.509,6.509,0,0,1,2.447-.486,1.781,1.781,0,0,1,1.228.486,4.2,4.2,0,0,1,.9,1.183,6.556,6.556,0,0,1,.559,1.469,5.725,5.725,0,0,1,.193,1.349,5.545,5.545,0,0,1-.549,2.4,7.516,7.516,0,0,1-1.421,2.057,7.352,7.352,0,0,1-1.969,1.447,4.826,4.826,0,0,1-2.193.553,3.4,3.4,0,0,1-1.644-.364,2.99,2.99,0,0,1-1.076-.973,4.333,4.333,0,0,1-.6-1.437A7.719,7.719,0,0,1,1007.863,2340.426Zm1.726.22a4.888,4.888,0,0,0,.091,1.006,1.861,1.861,0,0,0,.325.741,1.483,1.483,0,0,0,.619.475,2.407,2.407,0,0,0,.954.166,2.89,2.89,0,0,0,1.5-.453,5.6,5.6,0,0,0,1.35-1.149,6.1,6.1,0,0,0,.965-1.537,4.1,4.1,0,0,0,.365-1.636,5.383,5.383,0,0,0-.062-.774,3.377,3.377,0,0,0-.2-.774,1.64,1.64,0,0,0-.406-.6.951.951,0,0,0-.67-.243,1.9,1.9,0,0,0-.863.266,7.092,7.092,0,0,0-1.035.685,10.579,10.579,0,0,0-1.056.95q-.519.531-.944,1.062a6.2,6.2,0,0,0-.68,1.017A1.826,1.826,0,0,0,1009.589,2340.646Z" fill="#ff3b67"/>
            <path id="Trazado_2611" data-name="Trazado 2611" d="M1018.3,2335.628c0-.133.007-.269.02-.409a1.477,1.477,0,0,1,.081-.376.645.645,0,0,1,.193-.276.57.57,0,0,1,.376-.111q.2,0,.457.343a6.134,6.134,0,0,1,.517.862q.264.521.518,1.139t.446,1.138q.194.52.315.9a3.3,3.3,0,0,0,.142.4q.264-.772.589-1.679a9.233,9.233,0,0,1,.8-1.692,4.967,4.967,0,0,1,1.137-1.315,2.488,2.488,0,0,1,1.614-.53,2.573,2.573,0,0,1,.924.165,2.283,2.283,0,0,1,.771.486,2.466,2.466,0,0,1,.538.763,2.42,2.42,0,0,1,.2,1.017.719.719,0,0,1-.355.685,1.614,1.614,0,0,1-.8.2h-.2l-.873-.95a.077.077,0,0,1-.061-.023.215.215,0,0,1-.071-.01.2.2,0,0,0-.071-.011,1.422,1.422,0,0,0-1.106.431,2.8,2.8,0,0,0-.6,1.061,5.563,5.563,0,0,0-.254,1.326q-.051.7-.051,1.272a5.055,5.055,0,0,0,.081.894q.081.454.183.885c.067.287.129.582.182.884a5.346,5.346,0,0,1,.082.939.815.815,0,0,1-.914.929,1.515,1.515,0,0,1-1.055-.586,8.62,8.62,0,0,1-1.086-1.492,19.1,19.1,0,0,1-1.026-2q-.488-1.095-.852-2.134t-.579-1.879A5.65,5.65,0,0,1,1018.3,2335.628Z" fill="#ff3b67"/>
            <path id="Trazado_2612" data-name="Trazado 2612" d="M1029.81,2328.333a1.564,1.564,0,0,1,.649.574,1.131,1.131,0,0,1,.233.719q-.029.321-.456.442a2.6,2.6,0,0,1-1.421-.255,2.375,2.375,0,0,1,.213-1.039A.79.79,0,0,1,1029.81,2328.333Zm-.285,8.29c0-.089,0-.232.01-.432s.014-.408.021-.629.013-.435.02-.641.01-.354.01-.442a1.807,1.807,0,0,1,.579-.576,3.925,3.925,0,0,1,.721-.353,16.318,16.318,0,0,0,.345,2.543q.284,1.347.609,2.708t.578,2.685a13.161,13.161,0,0,1,.254,2.477q0,.995-.934.994a1.157,1.157,0,0,1-.954-.508,3.983,3.983,0,0,1-.619-1.294,12.557,12.557,0,0,1-.376-1.746q-.142-.961-.192-1.89t-.062-1.7Q1029.524,2337.044,1029.525,2336.623Z" fill="#ff3b67"/>
            <path id="Trazado_2613" data-name="Trazado 2613" d="M1033.017,2333.771a.3.3,0,0,1,.02-.111.378.378,0,0,1,.021-.11,3.406,3.406,0,0,1,.243-.287c.108-.118.176-.177.2-.177h4.081q0-.243-.06-.774t-.113-1.171a12.532,12.532,0,0,1-.03-1.338,5.446,5.446,0,0,1,.173-1.26,2.176,2.176,0,0,1,.487-.929,1.217,1.217,0,0,1,.943-.365,18,18,0,0,0,.285,3.582,6.176,6.176,0,0,0,.761,2.078,2.264,2.264,0,0,0,1.086.95,3.159,3.159,0,0,0,1.249.189,5.516,5.516,0,0,0,1.248-.211,8.1,8.1,0,0,1,1.087-.243,1.178,1.178,0,0,1,.761.1c.189.112.284.373.284.786a.938.938,0,0,1-.192.663,1.46,1.46,0,0,1-.741.309l-.538.077c-.251.037-.532.071-.843.1s-.643.063-.994.1-.684.07-1,.1-.595.048-.852.055-.447.012-.568.012c0,.073-.007.2-.021.376s-.02.294-.02.353a6.335,6.335,0,0,0,.284,1.89q.283.918.619,1.824t.619,1.812a6.27,6.27,0,0,1,.284,1.879,2.323,2.323,0,0,1-.03.366.886.886,0,0,1-.122.332.589.589,0,0,1-.264.22.648.648,0,0,1-.476-.033,1.8,1.8,0,0,1-1.148-.95,6.207,6.207,0,0,1-.558-1.735,16.989,16.989,0,0,1-.244-2.134q-.061-1.128-.193-2.112a6.924,6.924,0,0,0-.416-1.679,1.312,1.312,0,0,0-.913-.852l-3.919-.972c-.054,0-.135-.063-.243-.188a1.44,1.44,0,0,1-.2-.276.262.262,0,0,1-.021-.112A.359.359,0,0,1,1033.017,2333.771Z" fill="#ff3b67"/>
            <path id="Trazado_2614" data-name="Trazado 2614" d="M1046.519,2340.426a5.643,5.643,0,0,1,.589-2.554,6.6,6.6,0,0,1,1.552-2.034,7.484,7.484,0,0,1,2.172-1.337,6.509,6.509,0,0,1,2.447-.486,1.779,1.779,0,0,1,1.228.486,4.2,4.2,0,0,1,.9,1.183,6.556,6.556,0,0,1,.559,1.469,5.671,5.671,0,0,1,.193,1.349,5.531,5.531,0,0,1-.549,2.4,7.494,7.494,0,0,1-1.421,2.057,7.365,7.365,0,0,1-1.968,1.447,4.834,4.834,0,0,1-2.194.553,3.4,3.4,0,0,1-1.644-.364,2.987,2.987,0,0,1-1.075-.973,4.311,4.311,0,0,1-.6-1.437A7.719,7.719,0,0,1,1046.519,2340.426Zm1.725.22a4.962,4.962,0,0,0,.091,1.006,1.875,1.875,0,0,0,.325.741,1.5,1.5,0,0,0,.619.475,2.411,2.411,0,0,0,.954.166,2.89,2.89,0,0,0,1.5-.453,5.582,5.582,0,0,0,1.35-1.149,6.071,6.071,0,0,0,.965-1.537,4.1,4.1,0,0,0,.365-1.636,5.373,5.373,0,0,0-.061-.774,3.381,3.381,0,0,0-.2-.774,1.627,1.627,0,0,0-.406-.6.951.951,0,0,0-.67-.243,1.9,1.9,0,0,0-.863.266,7.093,7.093,0,0,0-1.035.685,10.586,10.586,0,0,0-1.056.95q-.519.531-.944,1.062a6.266,6.266,0,0,0-.68,1.017A1.826,1.826,0,0,0,1048.244,2340.646Z" fill="#ff3b67"/>
            <path id="Trazado_2615" data-name="Trazado 2615" d="M1060.851,2343.918q.324-.243.782-.63c.3-.258.612-.534.924-.829a11.262,11.262,0,0,0,.873-.929,5.129,5.129,0,0,0,.638-.939,1.854,1.854,0,0,0,.234-.851.792.792,0,0,0-.365-.663q-.649,0-1.421.055t-1.543.044a8.825,8.825,0,0,1-1.492-.144,3.645,3.645,0,0,1-1.289-.486,2.479,2.479,0,0,1-.9-1.006,3.649,3.649,0,0,1-.335-1.669,5.375,5.375,0,0,1,.416-2.155,5.935,5.935,0,0,1,1.107-1.7,8.378,8.378,0,0,1,1.552-1.3,13.259,13.259,0,0,1,1.737-.962,2.538,2.538,0,0,1,.974.553,4.628,4.628,0,0,1,.772.885,1.292,1.292,0,0,1-.559.752,4.966,4.966,0,0,1-.954.463l-1.127.42a4.148,4.148,0,0,0-1.065.586,3.025,3.025,0,0,0-.8.95,3.175,3.175,0,0,0-.324,1.538,1.443,1.443,0,0,0,.324,1.039,1.7,1.7,0,0,0,.854.453,4.383,4.383,0,0,0,1.2.088q.671-.033,1.37-.1c.468-.045.924-.07,1.371-.078a3.4,3.4,0,0,1,1.2.177,1.764,1.764,0,0,1,.843.608,2.043,2.043,0,0,1,.315,1.238,2.661,2.661,0,0,1-.213.907,9.235,9.235,0,0,1-.569,1.182,10.443,10.443,0,0,1-.832,1.249,9.959,9.959,0,0,1-.995,1.116,6.333,6.333,0,0,1-1.035.819,1.857,1.857,0,0,1-.965.32.535.535,0,0,1-.558-.332A1.777,1.777,0,0,1,1060.851,2343.918Z" fill="#ff3b67"/>
          </g>
        </g>
      </g>
      <g id="Grupo_2135" data-name="Grupo 2135">
        <g id="Grupo_2131" data-name="Grupo 2131">
          <path id="Trazado_2616" data-name="Trazado 2616" d="M959.013,2390.326q.564,7.2,1.026,14.4l.441,7.207a33,33,0,0,0,.29,3.446,4.307,4.307,0,0,0,.461,1.341,3.076,3.076,0,0,0,.89.956,11.875,11.875,0,0,0,2.957,1.352,20.109,20.109,0,0,0,3.335.77,31.932,31.932,0,0,0,6.972.155c4.7-.347,9.417-1.444,14.279-1.919,4.9-.516,9.765.022,14.537.261,1.2.063,2.39.113,3.581.121.6.011,1.189,0,1.783-.011a12.529,12.529,0,0,0,1.692-.11c.5-.113.735-.269.853-.682a11.656,11.656,0,0,0,.185-1.666l.286-3.6.57-7.2c.188-2.4.385-4.809.443-7.17a21.483,21.483,0,0,0-.819-6.907,18.361,18.361,0,0,0-3.17-6.073l-.012-.015,1.318.259a17.769,17.769,0,0,1-6.615,2.186c-2.267.335-4.495.4-6.7.509l-13.232.5c-8.789.372-17.6.842-26.14,2.617l-.012,0a1,1,0,0,1-.408-1.958h0c8.768-1.82,17.655-2.284,26.48-2.66l13.222-.495c2.2-.112,4.393-.176,6.495-.49a15.788,15.788,0,0,0,5.876-1.92l.033-.02a.963.963,0,0,1,1.285.279l.012.017a21.27,21.27,0,0,1,3.15,6.821,24.478,24.478,0,0,1,.664,7.4c-.11,2.449-.417,4.83-.6,7.23l-.616,7.194-.308,3.6a11.616,11.616,0,0,1-.243,1.913,2.084,2.084,0,0,1-.682,1.041,2.506,2.506,0,0,1-1.069.477,12.987,12.987,0,0,1-1.9.157c-.609.018-1.218.037-1.826.033-1.216.006-2.428-.03-3.636-.08-4.826-.215-9.611-.6-14.3.029-4.71.576-9.379,1.819-14.279,2.324a32.756,32.756,0,0,1-7.436-.027,22.34,22.34,0,0,1-3.707-.789,13.771,13.771,0,0,1-3.6-1.6,5.133,5.133,0,0,1-1.556-1.659,6.556,6.556,0,0,1-.731-2.049,33.914,33.914,0,0,1-.338-3.741l-.438-7.206q-.418-7.208-.734-14.422a1,1,0,0,1,2-.122Z" fill="#ff3b67"/>
          <path id="Trazado_2617" data-name="Trazado 2617" d="M967.13,2389.427c.109,4.948.3,9.878.327,14.848a62.98,62.98,0,0,1-1.47,14.933,1,1,0,1,1-1.944-.472l.013-.047a61.349,61.349,0,0,0,2.1-14.444c.207-4.917.251-9.876.376-14.816a.3.3,0,0,1,.3-.292A.3.3,0,0,1,967.13,2389.427Z" fill="#ff3b67"/>
          <path id="Trazado_2618" data-name="Trazado 2618" d="M1003.638,2387.424c-.027,2.422-.132,4.843-.2,7.265l-.3,7.261c-.21,4.84-.408,9.679-.657,14.514a.577.577,0,0,1-1.153-.028v-.023c0-4.838.044-9.673.08-14.507l.069-7.249c.051-2.416.069-4.832.164-7.247l0-.037a1,1,0,0,1,2,.051Z" fill="#ff3b67"/>
          <path id="Trazado_2619" data-name="Trazado 2619" d="M978.725,2390.673a44.841,44.841,0,0,0,1.374,10.564l-.54-.48a55.391,55.391,0,0,0,6.067.116l1.511-.073c.5-.034,1.025-.059,1.442-.131a2.166,2.166,0,0,0,1.009-.4,2.935,2.935,0,0,0,.715-.871,8.958,8.958,0,0,0,.832-2.614,13,13,0,0,0-.243-5.664,7.212,7.212,0,0,0-.417-1.263,1.044,1.044,0,0,0-.476-.562,1,1,0,1,1,.614-1.9l.007,0,.014.005a2.965,2.965,0,0,1,1.653,1.553,8.922,8.922,0,0,1,.586,1.644,14.346,14.346,0,0,1,.466,3.268,14.946,14.946,0,0,1-.267,3.284,10.726,10.726,0,0,1-1.1,3.21,4.455,4.455,0,0,1-1.287,1.441,4.053,4.053,0,0,1-1.847.672c-.6.073-1.107.07-1.631.087s-1.046.017-1.568,0a42.856,42.856,0,0,1-6.232-.555l-.037-.007a.616.616,0,0,1-.5-.474,45.914,45.914,0,0,1-1.109-10.86.482.482,0,0,1,.963,0Z" fill="#ff3b67"/>
          <path id="Trazado_2620" data-name="Trazado 2620" d="M984.779,2396.509a1.741,1.741,0,0,1-.649-.124,1.854,1.854,0,0,1-.3-.157,2.012,2.012,0,0,1-1.385-.867,1.722,1.722,0,0,1-.2-1.61,2.2,2.2,0,0,1,.923-1.03c.022-.014.043-.028.065-.04s.033-.037.05-.055a2.353,2.353,0,0,1,1.835-.751,1,1,0,0,1,.858.616,2.011,2.011,0,0,1,.933,1.8,2.165,2.165,0,0,1-.609,1.481,1.964,1.964,0,0,1-.364.351A1.94,1.94,0,0,1,984.779,2396.509Z" fill="#ff3b67"/>
          <path id="Trazado_2621" data-name="Trazado 2621" d="M957.117,2389.64c1.423-2.627,3.239-4.643,4.468-7.042a4.961,4.961,0,0,1,.731-1.023,2.4,2.4,0,0,1,1.373-.753,2.335,2.335,0,0,1,1.522.342,9.152,9.152,0,0,1,.932.673,6.671,6.671,0,0,0,3.186,1.776,2.147,2.147,0,0,0,1.454-.337,1.713,1.713,0,0,0,.6-1.313c.047-.322.081-.686.172-1.086a4.165,4.165,0,0,1,.48-1.163,4.682,4.682,0,0,1,1.767-1.654,4.544,4.544,0,0,1,4.649.1c.654.449,1.131.959,1.621,1.271a1.972,1.972,0,0,0,1.49.3c1.056-.226,2.061-1.244,3.107-2.147a10.649,10.649,0,0,1,1.764-1.311,4.286,4.286,0,0,1,2.323-.607,5.157,5.157,0,0,1,2.213.758c.633.365,1.2.762,1.762,1.076a3.153,3.153,0,0,0,1.638.483,4.285,4.285,0,0,0,1.676-.678,4.15,4.15,0,0,1,1.136-.429,2.451,2.451,0,0,1,1.366.125,9.56,9.56,0,0,1,1.842,1.233,3.548,3.548,0,0,0,1.655.563,17.686,17.686,0,0,1,2.137.282,4.918,4.918,0,0,1,2.119,1.138c.584.507,1.041,1.069,1.507,1.557.429.433,1.015,1.066,1.406,1.482a1.044,1.044,0,0,0,.461.321.826.826,0,0,0,.334-.11,1,1,0,0,1,.9,1.792c-.025.012-.051.024-.077.034l-.051.02a2.472,2.472,0,0,1-1.689.064,2.94,2.94,0,0,1-1.2-.887c-.511-.632-.831-1.044-1.33-1.636-.881-1.109-1.651-2.093-2.748-2.384a17.335,17.335,0,0,0-1.961-.345,4.916,4.916,0,0,1-2.211-.819,9.717,9.717,0,0,0-1.561-1.118,1.663,1.663,0,0,0-1.468.225,5.447,5.447,0,0,1-2.166.787,4.326,4.326,0,0,1-2.3-.62c-1.269-.708-2.349-1.6-3.457-1.66a4.876,4.876,0,0,0-3.172,1.628c-.512.448-1.018.928-1.595,1.383a5.3,5.3,0,0,1-2.086,1.077,3.31,3.31,0,0,1-2.469-.466c-.675-.44-1.155-.952-1.651-1.276a3.136,3.136,0,0,0-3.244.006,3.293,3.293,0,0,0-1.21,1.166,3.817,3.817,0,0,0-.428,1.716,4.466,4.466,0,0,1-.286,1.2,2.731,2.731,0,0,1-.858,1.112,3.634,3.634,0,0,1-2.476.674,7.936,7.936,0,0,1-4.046-2.03c-.56-.44-1.062-.728-1.222-.638-.187.008-.565.4-.829.949-1.231,2.571-3.069,4.807-4.2,7.1l-.021.042a1,1,0,0,1-1.794-.886Z" fill="#ff3b67"/>
        </g>
        <g id="Grupo_2132" data-name="Grupo 2132">
          <path id="Trazado_2622" data-name="Trazado 2622" d="M1005.938,2365.854a6.817,6.817,0,0,1,.414,1.726,10.8,10.8,0,0,1,.083,1.659,12.325,12.325,0,0,1-.145,1.644,7.011,7.011,0,0,1-.438,1.667l0,.006a.575.575,0,0,1-1.043.037,5.463,5.463,0,0,1-.5-1.719,8.182,8.182,0,0,1-.054-1.741,7.436,7.436,0,0,1,.324-1.719,5.175,5.175,0,0,1,.8-1.637.32.32,0,0,1,.449-.063A.326.326,0,0,1,1005.938,2365.854Z" fill="#ff3b67"/>
          <path id="Trazado_2623" data-name="Trazado 2623" d="M1003.075,2366.894a23.829,23.829,0,0,1,3.047,1.769,10.125,10.125,0,0,1,1.4,1.1,6.166,6.166,0,0,1,1.183,1.548.325.325,0,0,1-.138.439.334.334,0,0,1-.122.036,4.714,4.714,0,0,1-1.99-.311,6.9,6.9,0,0,1-1.665-.927,9.185,9.185,0,0,1-1.437-1.3,5.123,5.123,0,0,1-1.052-1.743.53.53,0,0,1,.733-.641Z" fill="#ff3b67"/>
          <path id="Trazado_2624" data-name="Trazado 2624" d="M1008.709,2367.284a8.094,8.094,0,0,1-1.586,1.637,20.06,20.06,0,0,1-1.779,1.285,39.464,39.464,0,0,1-3.73,2.069l-.032.016a.385.385,0,0,1-.51-.531,6.482,6.482,0,0,1,1.526-1.749,15.32,15.32,0,0,1,1.8-1.3,23.818,23.818,0,0,1,3.9-1.923l.017-.006a.335.335,0,0,1,.435.191A.339.339,0,0,1,1008.709,2367.284Z" fill="#ff3b67"/>
        </g>
        <g id="Grupo_2133" data-name="Grupo 2133">
          <path id="Trazado_2625" data-name="Trazado 2625" d="M986.83,2360.984a8.468,8.468,0,0,1-.205,2.692,9.14,9.14,0,0,1-.9,2.528.43.43,0,0,1-.582.167.441.441,0,0,1-.208-.27,6.01,6.01,0,0,1,.045-2.8,5.725,5.725,0,0,1,1.23-2.523.356.356,0,0,1,.5-.028A.36.36,0,0,1,986.83,2360.984Z" fill="#ff3b67"/>
          <path id="Trazado_2626" data-name="Trazado 2626" d="M986.689,2360.906a10,10,0,0,1-1.875,3,13.38,13.38,0,0,1-2.615,2.382.367.367,0,0,1-.511-.506c.639-.979,1.336-1.875,2.033-2.773a19.547,19.547,0,0,1,2.275-2.567.43.43,0,0,1,.693.468Z" fill="#ff3b67"/>
          <path id="Trazado_2627" data-name="Trazado 2627" d="M981.576,2362.2c1.019.091,1.965.107,3.01.219a7.809,7.809,0,0,1,1.582.276,3.739,3.739,0,0,1,1.557.9.415.415,0,0,1-.011.588.407.407,0,0,1-.116.079l-.024.011a4.92,4.92,0,0,1-1.65.4,6.791,6.791,0,0,1-1.64-.127,7.63,7.63,0,0,1-1.673-.488,3.9,3.9,0,0,1-1.509-1.1.474.474,0,0,1,.416-.762Z" fill="#ff3b67"/>
        </g>
        <g id="Grupo_2134" data-name="Grupo 2134">
          <path id="Trazado_2628" data-name="Trazado 2628" d="M964.878,2365.273a8.479,8.479,0,0,1,.6,1.786,15.452,15.452,0,0,1,.313,1.757,15.109,15.109,0,0,1,.1,1.774,8.171,8.171,0,0,1-.171,1.856.341.341,0,0,1-.606.133,5.658,5.658,0,0,1-.853-1.727,8.555,8.555,0,0,1-.329-3.722,5.767,5.767,0,0,1,.537-1.861.223.223,0,0,1,.3-.1A.228.228,0,0,1,964.878,2365.273Z" fill="#ff3b67"/>
          <path id="Trazado_2629" data-name="Trazado 2629" d="M967.578,2366.266a3.412,3.412,0,0,1-.263,1.1,2.986,2.986,0,0,1-.71.986,19.711,19.711,0,0,1-1.652,1.244c-.551.39-1.11.783-1.712,1.143a7.928,7.928,0,0,1-.955.5,2.789,2.789,0,0,1-1.193.29.419.419,0,0,1-.135-.812l.09-.032a6.866,6.866,0,0,0,1.462-1l1.575-1.254c.538-.423,1.164-.822,1.649-1.134a5.454,5.454,0,0,0,1.274-1.249.32.32,0,0,1,.45-.051A.334.334,0,0,1,967.578,2366.266Z" fill="#ff3b67"/>
          <path id="Trazado_2630" data-name="Trazado 2630" d="M960.838,2368.359a20,20,0,0,1,3.548-.489,7.869,7.869,0,0,1,3.547.356.439.439,0,0,1,0,.809,7.868,7.868,0,0,1-3.548.348,20.045,20.045,0,0,1-3.547-.5.271.271,0,0,1,0-.528Z" fill="#ff3b67"/>
        </g>
      </g>
    </g>
  </g>
</svg>
