<svg id="Grupo_2447" data-name="Grupo 2447" xmlns="http://www.w3.org/2000/svg" width="44.585" height="44" viewBox="0 0 44.585 44">
  <g id="Grupo_2445" data-name="Grupo 2445" transform="translate(9.085 8.338)">
    <g id="Grupo_2442" data-name="Grupo 2442">
      <path id="Trazado_3870" data-name="Trazado 3870" d="M640.241,2157.83c2.036.045,4.073.068,6.108.142a8.4,8.4,0,0,1,4.232,1.2,6.935,6.935,0,0,1,2.886,3.548,12.057,12.057,0,0,1,.624,4.222q.015,4.978-.023,9.956a9.812,9.812,0,0,1-.667,3.657,6.953,6.953,0,0,1-4.528,4.165,10.261,10.261,0,0,1-3.088.462q-5.371.021-10.745-.005a9.432,9.432,0,0,1-3.845-.77,6.921,6.921,0,0,1-3.825-4.158,12.286,12.286,0,0,1-.575-4.152q-.012-4.874.021-9.745a9.807,9.807,0,0,1,.85-4.2,6.9,6.9,0,0,1,4.126-3.678,12.817,12.817,0,0,1,4.1-.564c1.449-.018,2.9,0,4.346,0Zm.176,24.985v-.046c1.22,0,2.441.016,3.661,0a15.985,15.985,0,0,0,3.768-.319,4.519,4.519,0,0,0,3.343-3.021,8.546,8.546,0,0,0,.416-2.8c.025-3.1.041-6.2.031-9.3a12.67,12.67,0,0,0-.306-3.164,4.563,4.563,0,0,0-3.343-3.45,11.345,11.345,0,0,0-3.079-.339c-2.73-.023-5.461-.039-8.191-.011a25.986,25.986,0,0,0-3.277.238,4.475,4.475,0,0,0-3.135,1.891,5.617,5.617,0,0,0-.977,3.229c-.056,3.265-.075,6.531-.081,9.8a13.811,13.811,0,0,0,.306,3.427,4.554,4.554,0,0,0,2.332,3.067,6.191,6.191,0,0,0,2.739.67C636.555,2182.746,638.487,2182.773,640.417,2182.815Z" transform="translate(-626.791 -2157.83)" fill="#ffffff"/>
    </g>
    <g id="Grupo_2443" data-name="Grupo 2443" transform="translate(6.617 6.7)">
      <path id="Trazado_3871" data-name="Trazado 3871" d="M647.481,2171.595a7.037,7.037,0,1,1-6.984-7.065A7.062,7.062,0,0,1,647.481,2171.595Zm-7.033-4.59a4.558,4.558,0,1,0,4.554,4.581A4.545,4.545,0,0,0,640.448,2167Z" transform="translate(-633.408 -2164.53)" fill="#ffffff"/>
    </g>
    <g id="Grupo_2444" data-name="Grupo 2444" transform="translate(19.319 4.784)">
      <path id="Trazado_3872" data-name="Trazado 3872" d="M647.771,2162.614a1.637,1.637,0,0,1,1.623,1.655,1.642,1.642,0,1,1-1.623-1.655Z" transform="translate(-646.11 -2162.614)" fill="#ffffff"/>
    </g>
  </g>
  <g id="Grupo_2446" data-name="Grupo 2446">
    <path id="Trazado_3873" data-name="Trazado 3873" d="M648.33,2193.767H631.667a14.067,14.067,0,0,1-13.961-14.138V2163.9a14.065,14.065,0,0,1,13.961-14.137H648.33a14.065,14.065,0,0,1,13.961,14.137v15.724A14.066,14.066,0,0,1,648.33,2193.767Zm-16.663-41.916a11.993,11.993,0,0,0-11.9,12.053v15.724a11.993,11.993,0,0,0,11.9,12.053H648.33a11.993,11.993,0,0,0,11.9-12.053V2163.9a11.993,11.993,0,0,0-11.9-12.053Z" transform="translate(-617.706 -2149.767)" fill="#ffffff"/>
  </g>
</svg>
