<svg xmlns="http://www.w3.org/2000/svg" width="77.34" height="36.228" viewBox="0 0 77.34 36.228">
  <g id="Grupo_2315" data-name="Grupo 2315" transform="translate(-550 -548)">
    <g id="Grupo_2314" data-name="Grupo 2314" transform="translate(-235.601 -129.074)">
      <g id="Grupo_2313" data-name="Grupo 2313">
        <g id="Grupo_2312" data-name="Grupo 2312">
          <path id="Trazado_3645" data-name="Trazado 3645" d="M804.978,688.241q.037-1.265.076-2.1c.025-.557.054-.992.084-1.3a6.828,6.828,0,0,1,.092-.684.636.636,0,0,1,.091-.267.133.133,0,0,1,.091-.046,1.476,1.476,0,0,1,.442.054.464.464,0,0,1,.244.159.674.674,0,0,1,.106.275,2.176,2.176,0,0,1,.031.4,6.348,6.348,0,0,0-.129,1.235q-.024.775-.031,1.644c-.005.578-.013,1.145-.023,1.7a8.588,8.588,0,0,1-.13,1.424,1.494,1.494,0,0,1-.343.807c-.152.142-.365.087-.639-.168Q804.94,689.505,804.978,688.241Zm.83-6.936a.775.775,0,0,1-.312-.152,1.051,1.051,0,0,1-.244-.274.47.47,0,0,1-.076-.32.5.5,0,0,1,.2-.3,1.221,1.221,0,0,1,.586-.205,1.394,1.394,0,0,1,.656.4.441.441,0,0,1,.1.388.538.538,0,0,1-.243.3.717.717,0,0,1-.389.122A.3.3,0,0,1,805.808,681.3Z" fill="#0899d7"/>
          <path id="Trazado_3646" data-name="Trazado 3646" d="M810.759,677.472q.093-.3.267-.348a1.455,1.455,0,0,1,.4-.05,1.159,1.159,0,0,1,.784.506,7.726,7.726,0,0,1,.892,1.352q.457.846.921,1.941t.9,2.264q.434,1.17.815,2.33t.663,2.132q.281.972.433,1.684a5.646,5.646,0,0,1,.153.978,1.154,1.154,0,0,1-.115.507.408.408,0,0,1-.4.24.433.433,0,0,1-.312-.125,1.094,1.094,0,0,1-.221-.306c-.061-.121-.117-.244-.167-.365s-.1-.226-.138-.315c-.041-.122-.124-.355-.251-.7s-.259-.7-.4-1.078-.267-.73-.389-1.062-.208-.569-.259-.713q-1.066-.2-2.139-.373t-2.263-.341h-.168q-.547,2.573-.967,4.065a17.108,17.108,0,0,1-.7,2.123c-.188.42-.335.6-.441.522s-.178-.326-.213-.762a12.624,12.624,0,0,1,.014-1.75q.069-1.1.259-2.414t.465-2.762q.274-1.443.663-2.787a23.35,23.35,0,0,1,.868-2.5A8.755,8.755,0,0,1,810.759,677.472Zm-.365,5.839a1.086,1.086,0,0,0,.365.9,1.854,1.854,0,0,0,.884.373,5.693,5.693,0,0,0,1.09.067c.38-.011.708-.017.982-.017a5.783,5.783,0,0,0-.2-1.434,12.56,12.56,0,0,0-.5-1.535q-.3-.762-.647-1.485t-.632-1.3a2.25,2.25,0,0,0-.359.672c-.127.326-.254.692-.381,1.095s-.241.8-.342,1.185-.178.7-.229.947c0,.033-.005.118-.014.257S810.394,683.267,810.394,683.311Z" fill="#0899d7"/>
          <path id="Trazado_3647" data-name="Trazado 3647" d="M817.661,683.46c0-.1,0-.2.007-.306a.951.951,0,0,1,.061-.3.467.467,0,0,1,.152-.216.491.491,0,0,1,.3-.074h.092a.235.235,0,0,0,.076.017,4.4,4.4,0,0,1,.5,1.1q.213.672.411,1.427t.426,1.526a5.971,5.971,0,0,0,.6,1.385,3.054,3.054,0,0,0,.9.979,2.051,2.051,0,0,0,1.325.315q.351,0,.457-.414a4.542,4.542,0,0,0,.115-1.063c0-.43-.005-.906-.031-1.425a14.743,14.743,0,0,1,0-1.486,4.367,4.367,0,0,1,.229-1.235,1.122,1.122,0,0,1,.663-.714,5.2,5.2,0,0,1,.327,1.353q.129.92.19,2.123t.061,2.6q0,1.4-.061,2.787t-.182,2.662q-.123,1.278-.275,2.24a8.138,8.138,0,0,1-.358,1.517c-.137.371-.281.528-.434.473a2.242,2.242,0,0,1-.495-.863,5.651,5.651,0,0,1-.244-1.177,10.993,10.993,0,0,1-.053-1.368c.01-.482.028-.965.053-1.453s.056-.961.092-1.425.054-.891.054-1.278a2.36,2.36,0,0,1-1.12-.182,3.959,3.959,0,0,1-1.121-.722,7.111,7.111,0,0,1-1.043-1.187,8.234,8.234,0,0,1-.868-1.575,10.224,10.224,0,0,1-.587-1.9A10.509,10.509,0,0,1,817.661,683.46Z" fill="#0899d7"/>
          <path id="Trazado_3648" data-name="Trazado 3648" d="M827.516,689.515a.464.464,0,0,1,.282.083.438.438,0,0,1,.159.207,1.111,1.111,0,0,1,.062.282c.01.106.015.207.015.307a5.8,5.8,0,0,1-.069.821,8.708,8.708,0,0,1-.548,2.008,4.538,4.538,0,0,1-.48.9,2.586,2.586,0,0,1-.616.63,1.292,1.292,0,0,1-.755.241,7.456,7.456,0,0,1,.069-.9c.045-.364.111-.752.2-1.161s.191-.815.313-1.219a10.008,10.008,0,0,1,.4-1.094,3.558,3.558,0,0,1,.457-.8A.679.679,0,0,1,827.516,689.515Z" fill="#0899d7"/>
          <path id="Trazado_3649" data-name="Trazado 3649" d="M841.424,689.88a1.731,1.731,0,0,0-.625.117c-.2.077-.406.166-.609.264a6.483,6.483,0,0,1-.616.266,1.88,1.88,0,0,1-.663.116,2.9,2.9,0,0,1-1.2-.24,2.578,2.578,0,0,1-.906-.672,3.094,3.094,0,0,1-.579-1.021,3.848,3.848,0,0,1-.206-1.285,3.317,3.317,0,0,1,.32-1.534,2.792,2.792,0,0,1,.846-1,3.308,3.308,0,0,1,1.2-.539,5.986,5.986,0,0,1,1.371-.158,2.285,2.285,0,0,1,1.4.557,5.22,5.22,0,0,1,1.12,1.351,10.443,10.443,0,0,1,.86,1.866,17.727,17.727,0,0,1,.6,2.116,19.478,19.478,0,0,1,.343,2.089,14.712,14.712,0,0,1,.091,1.8,5.859,5.859,0,0,1-.13,1.252q-.114.465-.342.415a.853.853,0,0,1-.617-.389,2.636,2.636,0,0,1-.32-.8,5.593,5.593,0,0,1-.138-1.054c-.014-.381-.027-.763-.038-1.144s-.027-.746-.052-1.1a3.977,3.977,0,0,0-.145-.862.787.787,0,0,0-.336-.473A.655.655,0,0,0,841.424,689.88Zm-4.113-2.289a1.333,1.333,0,0,0,.13.564,1.949,1.949,0,0,0,.343.514,1.909,1.909,0,0,0,.471.381,1.029,1.029,0,0,0,.519.15,2.433,2.433,0,0,0,.67-.124,3.453,3.453,0,0,0,.807-.366,2.988,2.988,0,0,0,.686-.563,1.06,1.06,0,0,0,.289-.722,6.9,6.9,0,0,0-.061-.978,1.952,1.952,0,0,0-.213-.681.911.911,0,0,0-.442-.39,1.956,1.956,0,0,0-.762-.124,1.981,1.981,0,0,0-.807.191,2.893,2.893,0,0,0-.784.522,3.177,3.177,0,0,0-.6.755A1.718,1.718,0,0,0,837.311,687.591Z" fill="#0899d7"/>
          <path id="Trazado_3650" data-name="Trazado 3650" d="M844.38,685.269c0-.066,0-.186.008-.357s.008-.351.008-.539,0-.362.007-.523.008-.273.008-.34a2.948,2.948,0,0,1,.251-.389.845.845,0,0,1,.3-.266.5.5,0,0,1,.35-.024.757.757,0,0,1,.388.331v.348c-.009.056-.03.186-.06.39s-.067.429-.107.672-.079.468-.114.672a3.152,3.152,0,0,0-.054.389,6.469,6.469,0,0,0,.061.788q.061.474.176.988a9.7,9.7,0,0,0,.289,1.028,4.857,4.857,0,0,0,.419.921,2.883,2.883,0,0,0,.541.672,1.006,1.006,0,0,0,.693.264,1.391,1.391,0,0,0,.861-.281,2.6,2.6,0,0,0,.647-.73,4.458,4.458,0,0,0,.449-1.012,9.977,9.977,0,0,0,.282-1.136q.106-.573.153-1.1c.03-.354.045-.663.045-.929a5.166,5.166,0,0,0-.053-.755q-.054-.357-.13-.705c-.051-.232-.094-.462-.129-.688a4.384,4.384,0,0,1-.054-.689.492.492,0,0,1,.207-.448.837.837,0,0,1,.463-.132.682.682,0,0,1,.519.207,1.477,1.477,0,0,1,.312.523,2.889,2.889,0,0,1,.153.721c.024.271.038.539.038.8s-.006.516-.016.755-.015.428-.015.572a12.1,12.1,0,0,1-.077,1.277,10.462,10.462,0,0,1-.266,1.468,12.865,12.865,0,0,1-.472,1.485,6.045,6.045,0,0,1-.685,1.3,3.53,3.53,0,0,1-.93.92,2.189,2.189,0,0,1-2.384-.008,3.031,3.031,0,0,1-.876-.945,6.38,6.38,0,0,1-.6-1.336,10.551,10.551,0,0,1-.373-1.493q-.13-.746-.183-1.451T844.38,685.269Z" fill="#0899d7"/>
          <path id="Trazado_3651" data-name="Trazado 3651" d="M852.209,687.425a8.229,8.229,0,0,1,.2-1.792,5.232,5.232,0,0,1,.631-1.608,3.573,3.573,0,0,1,1.127-1.161,3.037,3.037,0,0,1,1.684-.448,2.1,2.1,0,0,1,.99.223,2.224,2.224,0,0,1,.716.589,2.5,2.5,0,0,1,.435.855,3.594,3.594,0,0,1,.144,1.02,3.958,3.958,0,0,1-.358,1.642,4.737,4.737,0,0,1-.959,1.4,4.015,4.015,0,0,1-1.379.912,2.723,2.723,0,0,1-1.584.141,1.106,1.106,0,0,0,.3.771,1.823,1.823,0,0,0,.677.44,3.2,3.2,0,0,0,.823.191q.426.041.761.041a3.033,3.033,0,0,0,.656-.066q.3-.066.609-.15t.617-.149a3.2,3.2,0,0,1,.662-.066,2.283,2.283,0,0,1,.275.016.841.841,0,0,1,.259.075.464.464,0,0,1,.2.183.574.574,0,0,1,.076.306.7.7,0,0,1-.213.523,1.857,1.857,0,0,1-.541.356,3.145,3.145,0,0,1-.724.225c-.263.05-.52.088-.769.116s-.478.044-.686.049-.363.009-.463.009a4.316,4.316,0,0,1-1.752-.34,3.691,3.691,0,0,1-1.311-.945,4.149,4.149,0,0,1-.814-1.46A6.011,6.011,0,0,1,852.209,687.425Zm1.616-1.078a1.85,1.85,0,0,0,.144.846q.144.266.708.265a2,2,0,0,0,.777-.158,2.378,2.378,0,0,0,.693-.439,2.111,2.111,0,0,0,.5-.663,1.9,1.9,0,0,0,.184-.829,3.689,3.689,0,0,0-.039-.515,1.458,1.458,0,0,0-.16-.489,1.092,1.092,0,0,0-.312-.365.811.811,0,0,0-.495-.141,1.575,1.575,0,0,0-.83.224,2.113,2.113,0,0,0-.633.581,2.728,2.728,0,0,0-.4.795A2.947,2.947,0,0,0,853.825,686.347Zm2.467-6.968-1.645,2.655q-.183.233-.366.2a.4.4,0,0,1-.282-.191.783.783,0,0,1-.106-.4.759.759,0,0,1,.159-.473.839.839,0,0,0,.1-.14c.035-.062.058-.1.068-.125q.153-.266.351-.6a7.36,7.36,0,0,1,.411-.622,6.317,6.317,0,0,1,.419-.515,1.126,1.126,0,0,1,.388-.3.287.287,0,0,1,.313.033A.8.8,0,0,1,856.292,679.379Z" fill="#0899d7"/>
          <path id="Trazado_3652" data-name="Trazado 3652" d="M808.932,707.679a.829.829,0,0,1,.2-.622.9.9,0,0,1,.64-.191h.152c.031.177.066.382.107.614a5.016,5.016,0,0,0,.182.713,4.071,4.071,0,0,0,.29.672,1.477,1.477,0,0,0,.411.489,2.784,2.784,0,0,1,.267-1.119,3.978,3.978,0,0,1,1.447-1.676,2.8,2.8,0,0,1,.891-.39h.336a2.156,2.156,0,0,1,1.249.357,2.951,2.951,0,0,1,.86.929,4.764,4.764,0,0,1,.526,1.3,13.369,13.369,0,0,1,.282,1.485q.1.754.122,1.46c.015.469.022.871.022,1.2H815.8q-.09-.994-.228-1.907c-.031-.244-.072-.5-.122-.772s-.107-.525-.167-.763-.127-.459-.2-.664a2.464,2.464,0,0,0-.244-.522c-.04-.044-.094-.1-.159-.183s-.135-.154-.206-.232-.137-.144-.2-.2a.392.392,0,0,0-.107-.083.761.761,0,0,0-.792.19,2.949,2.949,0,0,0-.594.871,6.088,6.088,0,0,0-.418,1.244q-.162.7-.267,1.335t-.152,1.112c-.032.315-.052.505-.062.572a.723.723,0,0,1-.716.175,1.455,1.455,0,0,1-.632-.523,4.3,4.3,0,0,1-.533-1q-.237-.6-.434-1.268t-.358-1.352Q809.053,708.259,808.932,707.679Z" fill="#0899d7"/>
          <path id="Trazado_3653" data-name="Trazado 3653" d="M817.752,708.658a8.215,8.215,0,0,1,.2-1.792,5.239,5.239,0,0,1,.631-1.609,3.584,3.584,0,0,1,1.127-1.161,3.037,3.037,0,0,1,1.684-.448,2.089,2.089,0,0,1,.99.224,2.208,2.208,0,0,1,.716.588,2.52,2.52,0,0,1,.435.855,3.592,3.592,0,0,1,.144,1.02,3.955,3.955,0,0,1-.358,1.642,4.741,4.741,0,0,1-.959,1.4,4.018,4.018,0,0,1-1.379.913,2.722,2.722,0,0,1-1.584.14,1.11,1.11,0,0,0,.3.772,1.831,1.831,0,0,0,.677.439,3.16,3.16,0,0,0,.823.191c.284.028.538.041.761.041a3.034,3.034,0,0,0,.656-.066q.3-.066.609-.149t.617-.15a3.2,3.2,0,0,1,.662-.065,2.519,2.519,0,0,1,.275.015.842.842,0,0,1,.259.076.461.461,0,0,1,.2.182.577.577,0,0,1,.076.307.7.7,0,0,1-.213.522,1.877,1.877,0,0,1-.541.357,3.145,3.145,0,0,1-.724.224c-.263.05-.52.088-.769.117s-.478.044-.686.048-.363.009-.464.009a4.313,4.313,0,0,1-1.751-.34,3.679,3.679,0,0,1-1.311-.945,4.142,4.142,0,0,1-.814-1.46A6.006,6.006,0,0,1,817.752,708.658Zm1.616-1.078a1.844,1.844,0,0,0,.144.845q.144.266.708.266a2.014,2.014,0,0,0,.777-.158,2.383,2.383,0,0,0,.693-.44,2.1,2.1,0,0,0,.495-.663,1.9,1.9,0,0,0,.184-.829,3.7,3.7,0,0,0-.039-.515,1.473,1.473,0,0,0-.16-.489,1.111,1.111,0,0,0-.312-.365.811.811,0,0,0-.495-.141,1.584,1.584,0,0,0-.83.224,2.125,2.125,0,0,0-.633.581,2.72,2.72,0,0,0-.4.8A2.945,2.945,0,0,0,819.368,707.58Z" fill="#0899d7"/>
          <path id="Trazado_3654" data-name="Trazado 3654" d="M826.252,706.3a2.924,2.924,0,0,1,.016-.306,1.148,1.148,0,0,1,.06-.283.493.493,0,0,1,.145-.208.435.435,0,0,1,.282-.083q.153,0,.343.258a4.65,4.65,0,0,1,.389.647c.132.259.26.545.387.854s.24.595.335.855.176.483.237.672a2.479,2.479,0,0,0,.106.3q.2-.58.442-1.26a7.024,7.024,0,0,1,.6-1.27,3.712,3.712,0,0,1,.854-.987,1.87,1.87,0,0,1,1.211-.4,1.929,1.929,0,0,1,.692.124,1.685,1.685,0,0,1,.579.366,1.786,1.786,0,0,1,.557,1.335.541.541,0,0,1-.267.514,1.209,1.209,0,0,1-.6.15h-.152l-.654-.714a.055.055,0,0,1-.046-.017.15.15,0,0,1-.054-.008.139.139,0,0,0-.052-.008,1.071,1.071,0,0,0-.831.324,2.114,2.114,0,0,0-.45.8,4.236,4.236,0,0,0-.19.995c-.026.348-.038.666-.038.954a3.772,3.772,0,0,0,.061.672q.06.339.137.663t.138.664a4.044,4.044,0,0,1,.06.705.61.61,0,0,1-.685.7,1.137,1.137,0,0,1-.792-.439,6.464,6.464,0,0,1-.816-1.12,14.456,14.456,0,0,1-.768-1.5q-.366-.822-.641-1.6t-.434-1.41A4.285,4.285,0,0,1,826.252,706.3Z" fill="#0899d7"/>
          <path id="Trazado_3655" data-name="Trazado 3655" d="M833.945,704.626c.071-.265.155-.386.252-.365s.215.15.357.382a8.968,8.968,0,0,1,.481.929q.266.58.571,1.253t.662,1.368a12.486,12.486,0,0,0,.747,1.277,4.867,4.867,0,0,0,.822.962,1.728,1.728,0,0,0,.892.448l1.218-6.867c.02-.188.1-.3.236-.324a2.087,2.087,0,0,1,.4-.041.611.611,0,0,1,.686.7q0,.366-.062,1.161t-.2,1.75q-.137.956-.335,1.958a15.186,15.186,0,0,1-.472,1.833,5.584,5.584,0,0,1-.632,1.361.986.986,0,0,1-.785.53,2.039,2.039,0,0,1-1.234-.456,5.616,5.616,0,0,1-1.149-1.194,10.883,10.883,0,0,1-.991-1.651,17.4,17.4,0,0,1-.777-1.833,13.987,13.987,0,0,1-.51-1.766A6.917,6.917,0,0,1,833.945,704.626Z" fill="#0899d7"/>
          <path id="Trazado_3656" data-name="Trazado 3656" d="M843.04,700.828a1.179,1.179,0,0,1,.488.431.853.853,0,0,1,.175.539c-.015.16-.129.272-.343.332a1.949,1.949,0,0,1-1.067-.191,1.785,1.785,0,0,1,.16-.779A.593.593,0,0,1,843.04,700.828Zm-.213,6.22c0-.066,0-.173.007-.323s.01-.307.016-.473.01-.326.015-.481.007-.266.007-.332a1.347,1.347,0,0,1,.435-.431,2.873,2.873,0,0,1,.54-.265,12.274,12.274,0,0,0,.259,1.907q.213,1.012.457,2.032T845,710.7a9.924,9.924,0,0,1,.191,1.858q0,.745-.7.746a.869.869,0,0,1-.716-.382,2.983,2.983,0,0,1-.464-.969,9.436,9.436,0,0,1-.282-1.311c-.072-.481-.119-.954-.145-1.419s-.041-.889-.046-1.277S842.827,707.258,842.827,707.048Z" fill="#0899d7"/>
          <path id="Trazado_3657" data-name="Trazado 3657" d="M845.782,709.9a4.246,4.246,0,0,1,.441-1.916,4.98,4.98,0,0,1,1.166-1.527,5.627,5.627,0,0,1,1.63-1,4.859,4.859,0,0,1,1.836-.365,1.331,1.331,0,0,1,.921.365,3.176,3.176,0,0,1,.677.887,4.871,4.871,0,0,1,.419,1.1,4.237,4.237,0,0,1,.146,1.011,4.173,4.173,0,0,1-.412,1.8,5.634,5.634,0,0,1-1.067,1.543,5.489,5.489,0,0,1-1.477,1.086,3.607,3.607,0,0,1-1.645.415,2.555,2.555,0,0,1-1.234-.273,2.244,2.244,0,0,1-.808-.731,3.246,3.246,0,0,1-.449-1.078A5.766,5.766,0,0,1,845.782,709.9Zm1.3.166a3.663,3.663,0,0,0,.068.755,1.389,1.389,0,0,0,.244.555,1.124,1.124,0,0,0,.464.357,1.818,1.818,0,0,0,.717.124,2.166,2.166,0,0,0,1.127-.34,4.2,4.2,0,0,0,1.012-.862,4.528,4.528,0,0,0,.724-1.154,3.059,3.059,0,0,0,.274-1.227,3.984,3.984,0,0,0-.046-.58,2.511,2.511,0,0,0-.152-.581,1.218,1.218,0,0,0-.3-.448.707.707,0,0,0-.5-.182,1.427,1.427,0,0,0-.648.2,5.394,5.394,0,0,0-.777.515,7.745,7.745,0,0,0-.792.713q-.389.4-.709.8a4.729,4.729,0,0,0-.51.762A1.379,1.379,0,0,0,847.077,710.068Z" fill="#0899d7"/>
          <path id="Trazado_3658" data-name="Trazado 3658" d="M856.536,712.523c.163-.122.359-.279.587-.473s.459-.4.693-.622a8.264,8.264,0,0,0,.655-.7,4.007,4.007,0,0,0,.481-.705,1.412,1.412,0,0,0,.174-.639.594.594,0,0,0-.274-.5c-.325,0-.681.014-1.066.041s-.772.039-1.158.033a6.805,6.805,0,0,1-1.12-.107,2.774,2.774,0,0,1-.967-.365,1.873,1.873,0,0,1-.678-.755,2.739,2.739,0,0,1-.251-1.252,4.019,4.019,0,0,1,.312-1.618,4.46,4.46,0,0,1,.83-1.278,6.306,6.306,0,0,1,1.165-.978,10.058,10.058,0,0,1,1.3-.722,1.9,1.9,0,0,1,.731.415,3.542,3.542,0,0,1,.58.664.974.974,0,0,1-.419.564,3.733,3.733,0,0,1-.717.348c-.269.1-.551.2-.845.315a3.132,3.132,0,0,0-.8.44,2.245,2.245,0,0,0-.6.713,2.366,2.366,0,0,0-.244,1.153,1.077,1.077,0,0,0,.244.78,1.266,1.266,0,0,0,.639.34,3.27,3.27,0,0,0,.9.066c.335-.017.678-.041,1.028-.074s.694-.053,1.028-.059a2.556,2.556,0,0,1,.9.133,1.323,1.323,0,0,1,.633.456,1.541,1.541,0,0,1,.235.929,1.993,1.993,0,0,1-.159.68,6.943,6.943,0,0,1-.427.888,7.918,7.918,0,0,1-.625.937,7.464,7.464,0,0,1-.746.838,4.684,4.684,0,0,1-.777.614,1.394,1.394,0,0,1-.724.24.4.4,0,0,1-.419-.249A1.358,1.358,0,0,1,856.536,712.523Z" fill="#0899d7"/>
          <path id="Trazado_3659" data-name="Trazado 3659" d="M861.153,700.811q.411-.414.639-.183a1.71,1.71,0,0,1,.343.88,10.165,10.165,0,0,1,.13,1.551q.015.9.022,1.85t.032,1.791a7.481,7.481,0,0,0,.129,1.343,2.585,2.585,0,0,1-.031.432.762.762,0,0,1-.106.3.46.46,0,0,1-.244.174,1.375,1.375,0,0,1-.442.058.127.127,0,0,1-.091-.049.736.736,0,0,1-.091-.291c-.032-.161-.062-.41-.092-.747s-.059-.809-.084-1.418-.051-1.371-.076-2.29S861.153,702.161,861.153,700.811Zm1.142,11.015a.684.684,0,0,1,.389.132.584.584,0,0,1,.243.324.51.51,0,0,1-.1.423,1.375,1.375,0,0,1-.655.431,1.158,1.158,0,0,1-.586-.223.556.556,0,0,1-.2-.332.544.544,0,0,1,.076-.349,1.129,1.129,0,0,1,.244-.3.747.747,0,0,1,.312-.166A.278.278,0,0,1,862.295,711.826Z" fill="#0899d7"/>
        </g>
      </g>
      <path id="Trazado_3660" data-name="Trazado 3660" d="M788.316,701.431a5.579,5.579,0,0,0,3.284,2.292,7.833,7.833,0,0,0,4.408-.08,10.73,10.73,0,0,0,4.017-2.435,16.774,16.774,0,0,0,3.023-3.869.276.276,0,0,1,.493.248,17.632,17.632,0,0,1-2.685,4.41,12.175,12.175,0,0,1-4.214,3.266,9.851,9.851,0,0,1-5.515.745,8.226,8.226,0,0,1-5.158-2.827l-.036-.044a1.469,1.469,0,1,1,2.383-1.706Z" fill="#0899d7"/>
    </g>
  </g>
</svg>
