<svg xmlns="http://www.w3.org/2000/svg" width="131.859" height="105.738" viewBox="0 0 131.859 105.738">
  <g id="Grupo_2365" data-name="Grupo 2365" transform="translate(-558 -563)">
    <g id="Grupo_2364" data-name="Grupo 2364" transform="translate(168.927 70.36)">
      <g id="Grupo_2363" data-name="Grupo 2363">
        <g id="Grupo_2362" data-name="Grupo 2362">
          <path id="Trazado_3702" data-name="Trazado 3702" d="M416.218,502.488a2.607,2.607,0,0,1-.315,1.256q-.315.587-.674,1.145t-.673,1.143a2.627,2.627,0,0,0-.315,1.256.743.743,0,0,0,.163.456,1.589,1.589,0,0,0,.4.371,2.068,2.068,0,0,0,.543.252,2,2,0,0,0,.586.093,1.651,1.651,0,0,0,.772-.186,3.812,3.812,0,0,0,.662-.437,7.075,7.075,0,0,0,.576-.53,4.015,4.015,0,0,1,.532-.465.787.787,0,0,1,.293-.074,2.869,2.869,0,0,1,.315-.039,3.793,3.793,0,0,1-.228,1.34,2.854,2.854,0,0,1-.684,1.061,3.147,3.147,0,0,1-1.14.7,4.507,4.507,0,0,1-1.554.251,3.556,3.556,0,0,1-1.249-.241,4.136,4.136,0,0,1-1.14-.643,3.792,3.792,0,0,1-.826-.9,1.893,1.893,0,0,1-.326-1.042,3.457,3.457,0,0,1,.207-1.219,6.271,6.271,0,0,1,.489-1.023q.282-.474.587-.92a6.092,6.092,0,0,0,.52-.931,3.064,3.064,0,0,0,.261-1.032,3.409,3.409,0,0,0-.174-1.256.52.52,0,0,1,.174-.12c.087-.044.178-.084.271-.121l.283-.112a.627.627,0,0,1,.207-.056,1.233,1.233,0,0,1,.76.214,1.568,1.568,0,0,1,.445.521,1.9,1.9,0,0,1,.207.66A5.446,5.446,0,0,1,416.218,502.488Zm-1.455-7.2a.911.911,0,0,1-.2.5,3,3,0,0,1-.468.521,2.959,2.959,0,0,1-.585.409,1.277,1.277,0,0,1-.6.168q-.043,0-.228-.159a3.167,3.167,0,0,1-.271-.251c-.029-.037-.069-.1-.12-.176s-.1-.164-.152-.251a2.393,2.393,0,0,1-.12-.233.54.54,0,0,1-.043-.121,1.025,1.025,0,0,1,.109-.53.551.551,0,0,1,.282-.241,1.129,1.129,0,0,1,.4-.066h.489c.057,0,.167,0,.326-.009a3.718,3.718,0,0,1,.509.018,1.649,1.649,0,0,1,.468.112A.307.307,0,0,1,414.763,495.29Z" fill="#0899d7"/>
          <path id="Trazado_3703" data-name="Trazado 3703" d="M419.359,494.8a2.1,2.1,0,0,1,.2-.978,1.71,1.71,0,0,1,.555-.623,2.555,2.555,0,0,1,.783-.354,5.7,5.7,0,0,1,.9-.162,7.173,7.173,0,0,1,.906-.039c.293.006.562.009.81.009a6.878,6.878,0,0,1,1.442.154,3.5,3.5,0,0,1,1.275.536,2.951,2.951,0,0,1,.907,1.025,3.3,3.3,0,0,1,.352,1.6,4.818,4.818,0,0,1-.308,1.677,8.4,8.4,0,0,1-1.892,2.969,9.717,9.717,0,0,1-1.223,1.064,6.535,6.535,0,0,1-1.161.69,1.7,1.7,0,0,1-.924.192,7.323,7.323,0,0,0-.255,1.6q-.044.855-.026,1.667t.053,1.553a5.628,5.628,0,0,1-.062,1.265,1.439,1.439,0,0,1-.361.785.885.885,0,0,1-.81.163q-.157-1.36-.237-2.76t-.132-2.778q-.053-1.379-.1-2.692t-.124-2.5q-.078-1.188-.219-2.222A15.717,15.717,0,0,0,419.359,494.8Zm4.347-.5c-.176,0-.394.007-.651.019a3.269,3.269,0,0,0-.749.125,1.349,1.349,0,0,0-.606.364,1.027,1.027,0,0,0-.247.738v5.019a3.325,3.325,0,0,0,1.531-.42,6.3,6.3,0,0,0,1.479-1.074,5.994,5.994,0,0,0,1.108-1.475,3.44,3.44,0,0,0,.44-1.629,1.742,1.742,0,0,0-.2-.919,1.342,1.342,0,0,0-.528-.5,1.92,1.92,0,0,0-.729-.211C424.28,494.312,424,494.3,423.706,494.3Z" fill="#0899d7"/>
          <path id="Trazado_3704" data-name="Trazado 3704" d="M435.776,507.462q-.668.5-1.152.891a7.589,7.589,0,0,1-.942.661,3.762,3.762,0,0,1-.976.4,5.149,5.149,0,0,1-1.275.135A2.987,2.987,0,0,1,429,508.6a4.325,4.325,0,0,1-.792-2.827,6.823,6.823,0,0,1,.177-1.513,8.362,8.362,0,0,1,.518-1.562,9.427,9.427,0,0,1,.818-1.475,6.757,6.757,0,0,1,1.074-1.236,5.223,5.223,0,0,1,1.275-.852,3.351,3.351,0,0,1,1.435-.317,3.955,3.955,0,0,1,1.988.68,3.443,3.443,0,0,1,1.091,1.4,7.219,7.219,0,0,1,.511,1.9q.14,1.044.219,2.156t.2,2.223a7.5,7.5,0,0,0,.511,2.05,3.472,3.472,0,0,1-.431.89.3.3,0,0,1-.449.087,2.319,2.319,0,0,1-.572-.844Q436.251,508.689,435.776,507.462Zm-6.07-1.648a2.7,2.7,0,0,0,.378,1.6,1.578,1.578,0,0,0,1.347.508,3.522,3.522,0,0,0,1.38-.278,3.585,3.585,0,0,0,1.153-.767,3.716,3.716,0,0,0,.792-1.178,3.819,3.819,0,0,0,.3-1.533c0-.229,0-.552.017-.968a7.485,7.485,0,0,0-.07-1.235,3.161,3.161,0,0,0-.335-1.064.8.8,0,0,0-.739-.45,3.014,3.014,0,0,0-1.689.508,5.038,5.038,0,0,0-1.338,1.293,6.525,6.525,0,0,0-.88,1.734A5.772,5.772,0,0,0,429.706,505.814Z" fill="#0899d7"/>
          <path id="Trazado_3705" data-name="Trazado 3705" d="M439.172,497.211a.639.639,0,0,1,.035-.173,1.9,1.9,0,0,1,.1-.249q.06-.133.123-.249a.875.875,0,0,1,.1-.153.259.259,0,0,0,.088-.019.192.192,0,0,0,.062-.01.137.137,0,0,1,.044-.009.82.82,0,0,1,.589.249,2.15,2.15,0,0,1,.431.613,3.186,3.186,0,0,1,.255.757,2.819,2.819,0,0,1,.026,1.207,2.877,2.877,0,0,1-.167.623,1.866,1.866,0,0,1-.3.508.568.568,0,0,1-.45.219q-.3,0-.465-.43a6.073,6.073,0,0,1-.282-1,8.074,8.074,0,0,1-.15-1.112C439.183,497.623,439.172,497.364,439.172,497.211Z" fill="#0899d7"/>
          <path id="Trazado_3706" data-name="Trazado 3706" d="M449.537,504.166a4.861,4.861,0,0,1,.325-1.686,6.183,6.183,0,0,1,.871-1.6,5.244,5.244,0,0,1,1.259-1.2,2.65,2.65,0,0,1,1.5-.48,2.3,2.3,0,0,1,.81.153,2.368,2.368,0,0,1,.73.442,2.247,2.247,0,0,1,.527.689,1.98,1.98,0,0,1,.2.9,2.026,2.026,0,0,1-.572-.076,4.872,4.872,0,0,1-.5-.183c-.164-.069-.325-.131-.483-.182a1.688,1.688,0,0,0-.52-.077,1.713,1.713,0,0,0-1.17.394,2.817,2.817,0,0,0-.713.986,4.836,4.836,0,0,0-.36,1.274,9.157,9.157,0,0,0-.1,1.275q0,.094.009.363c.006.18.012.368.018.566s.012.386.017.565a2.873,2.873,0,0,0,.027.364,3.487,3.487,0,0,0,.378.709,1.376,1.376,0,0,0,.4.373,1.138,1.138,0,0,0,.457.154,5.139,5.139,0,0,0,.581.029,1.954,1.954,0,0,0,.8-.153,3.846,3.846,0,0,0,.642-.365,4.485,4.485,0,0,0,.563-.469,5.722,5.722,0,0,1,.555-.479,2.91,2.91,0,0,1,.633-.364,2.006,2.006,0,0,1,.783-.144,4.25,4.25,0,0,1-.308,1.667,3.6,3.6,0,0,1-.862,1.245,3.833,3.833,0,0,1-1.3.8,4.617,4.617,0,0,1-1.627.279,2.128,2.128,0,0,1-1.487-.614,5.5,5.5,0,0,1-1.126-1.5,8.354,8.354,0,0,1-.713-1.887A7.462,7.462,0,0,1,449.537,504.166Z" fill="#0899d7"/>
          <path id="Trazado_3707" data-name="Trazado 3707" d="M458.193,502.116c0-.077,0-.214.009-.412s.009-.4.009-.623,0-.418.009-.6.008-.317.008-.393a3.307,3.307,0,0,1,.291-.45.986.986,0,0,1,.352-.307.587.587,0,0,1,.4-.029.885.885,0,0,1,.448.384v.4c-.011.064-.035.214-.07.45s-.076.495-.123.777-.091.539-.132.775a3.424,3.424,0,0,0-.061.45,7.3,7.3,0,0,0,.07.91q.07.548.2,1.141a11.211,11.211,0,0,0,.334,1.187,5.437,5.437,0,0,0,.485,1.064,3.283,3.283,0,0,0,.624.776,1.167,1.167,0,0,0,.8.307,1.608,1.608,0,0,0,.995-.326,3.01,3.01,0,0,0,.748-.843,5.25,5.25,0,0,0,.519-1.169,11.488,11.488,0,0,0,.325-1.313q.123-.66.176-1.274c.035-.408.053-.767.053-1.072a5.894,5.894,0,0,0-.062-.872c-.041-.275-.091-.546-.149-.815s-.109-.533-.15-.8a5.126,5.126,0,0,1-.061-.8.566.566,0,0,1,.237-.516.96.96,0,0,1,.537-.153.791.791,0,0,1,.6.239,1.727,1.727,0,0,1,.361.6,3.362,3.362,0,0,1,.176.833c.029.314.044.623.044.93s-.006.6-.018.872-.017.5-.017.661a13.964,13.964,0,0,1-.088,1.476,12.4,12.4,0,0,1-.309,1.695,14.713,14.713,0,0,1-.545,1.715,6.922,6.922,0,0,1-.792,1.5,4.025,4.025,0,0,1-1.073,1.063,2.53,2.53,0,0,1-2.754-.009,3.521,3.521,0,0,1-1.011-1.092,7.305,7.305,0,0,1-.7-1.542,12.385,12.385,0,0,1-.43-1.725q-.152-.862-.212-1.677T458.193,502.116Z" fill="#0899d7"/>
          <path id="Trazado_3708" data-name="Trazado 3708" d="M474.8,507.462q-.669.5-1.153.891a7.658,7.658,0,0,1-.941.661,3.783,3.783,0,0,1-.977.4,5.137,5.137,0,0,1-1.275.135,2.987,2.987,0,0,1-2.429-.949,4.33,4.33,0,0,1-.792-2.827,6.881,6.881,0,0,1,.177-1.513,8.36,8.36,0,0,1,.518-1.562,9.346,9.346,0,0,1,.819-1.475,6.75,6.75,0,0,1,1.073-1.236,5.222,5.222,0,0,1,1.275-.852,3.354,3.354,0,0,1,1.435-.317,3.951,3.951,0,0,1,1.988.68,3.434,3.434,0,0,1,1.091,1.4,7.222,7.222,0,0,1,.511,1.9q.141,1.044.22,2.156t.2,2.223a7.534,7.534,0,0,0,.51,2.05,3.441,3.441,0,0,1-.431.89.3.3,0,0,1-.448.087,2.317,2.317,0,0,1-.573-.844Q475.281,508.689,474.8,507.462Zm-6.071-1.648a2.7,2.7,0,0,0,.378,1.6,1.578,1.578,0,0,0,1.347.508,3.531,3.531,0,0,0,1.381-.278,3.592,3.592,0,0,0,1.152-.767,3.7,3.7,0,0,0,.792-1.178,3.819,3.819,0,0,0,.3-1.533c0-.229,0-.552.017-.968a7.383,7.383,0,0,0-.07-1.235,3.14,3.14,0,0,0-.335-1.064.8.8,0,0,0-.739-.45,3.017,3.017,0,0,0-1.689.508,5.035,5.035,0,0,0-1.337,1.293,6.525,6.525,0,0,0-.88,1.734A5.774,5.774,0,0,0,468.734,505.814Zm5.085-11.765-1.9,3.066c-.141.179-.281.256-.422.23a.466.466,0,0,1-.325-.22.9.9,0,0,1-.124-.46.872.872,0,0,1,.185-.547,1.016,1.016,0,0,0,.115-.162c.041-.07.067-.118.079-.143.117-.206.252-.435.4-.691s.31-.495.475-.719a7.443,7.443,0,0,1,.484-.593,1.321,1.321,0,0,1,.449-.345.328.328,0,0,1,.36.038A.925.925,0,0,1,473.819,494.049Z" fill="#0899d7"/>
          <path id="Trazado_3709" data-name="Trazado 3709" d="M478.165,503.477a.963.963,0,0,1,.229-.719,1.04,1.04,0,0,1,.739-.221h.176c.036.205.077.442.123.709a5.8,5.8,0,0,0,.211.824,4.782,4.782,0,0,0,.334.777,1.717,1.717,0,0,0,.476.565,3.231,3.231,0,0,1,.308-1.294,4.615,4.615,0,0,1,1.671-1.935,3.24,3.24,0,0,1,1.03-.451h.386a2.484,2.484,0,0,1,1.444.413,3.417,3.417,0,0,1,.994,1.073,5.515,5.515,0,0,1,.607,1.5,15.265,15.265,0,0,1,.326,1.715c.076.582.123,1.143.14,1.686s.027,1.006.027,1.389H486.1q-.105-1.149-.264-2.2-.053-.423-.141-.891c-.058-.314-.123-.607-.193-.882s-.147-.53-.229-.766a2.912,2.912,0,0,0-.281-.6c-.048-.051-.109-.121-.186-.211s-.155-.179-.237-.267-.158-.167-.228-.231a.531.531,0,0,0-.123-.1.882.882,0,0,0-.915.221,3.375,3.375,0,0,0-.687,1.006,7.046,7.046,0,0,0-.483,1.436c-.124.538-.227,1.051-.309,1.543s-.141.92-.176,1.284-.058.585-.07.661a.834.834,0,0,1-.827.2,1.682,1.682,0,0,1-.731-.6,5,5,0,0,1-.615-1.149q-.275-.69-.5-1.466t-.413-1.561Q478.307,504.147,478.165,503.477Z" fill="#0899d7"/>
          <path id="Trazado_3710" data-name="Trazado 3710" d="M487.967,507.673a3.8,3.8,0,0,1,.51-1.974,5.877,5.877,0,0,1,1.267-1.5,8.491,8.491,0,0,1,1.637-1.092q.879-.45,1.635-.748t1.268-.479q.51-.182.51-.3,0-.669-.062-1.312t-.132-1.293q-.069-.652-.131-1.293t-.062-1.275V495.16q.721-.287,1.029.058a1.3,1.3,0,0,1,.1,1.188c.047.282.111.722.193,1.323s.173,1.277.273,2.03.205,1.546.317,2.376.217,1.626.317,2.386.184,1.437.255,2.031.123,1.038.159,1.332c.01.063.022.188.035.373s.019.384.026.594.011.406.018.585.009.306.009.382a4.575,4.575,0,0,1-.907-.057.379.379,0,0,1-.3-.23,1.554,1.554,0,0,1-.062-.5,3.317,3.317,0,0,0-.176-.9,10.466,10.466,0,0,1-1.231.919,6.652,6.652,0,0,1-1.161.585,5.605,5.605,0,0,1-1.171.306,8.633,8.633,0,0,1-1.258.086,5.442,5.442,0,0,1-1.082-.1,2.589,2.589,0,0,1-.924-.373,1.968,1.968,0,0,1-.651-.729A2.413,2.413,0,0,1,487.967,507.673Zm1.531-.4a.91.91,0,0,0,.123.5,1.184,1.184,0,0,0,.729.507,1.972,1.972,0,0,0,.432.048,3.892,3.892,0,0,0,1.328-.259,4.851,4.851,0,0,0,1.321-.728,4.119,4.119,0,0,0,1-1.12,2.682,2.682,0,0,0,.4-1.418,1.315,1.315,0,0,0-.193-.824.939.939,0,0,0-.74-.231,3.745,3.745,0,0,0-1.31.288,6.905,6.905,0,0,0-1.444.767,4.894,4.894,0,0,0-1.169,1.12A2.239,2.239,0,0,0,489.5,507.271Z" fill="#0899d7"/>
          <path id="Trazado_3711" data-name="Trazado 3711" d="M498.173,506.044a4.9,4.9,0,0,1,.51-2.213,5.744,5.744,0,0,1,1.346-1.763,6.465,6.465,0,0,1,1.883-1.159,5.637,5.637,0,0,1,2.121-.422,1.548,1.548,0,0,1,1.065.422,3.641,3.641,0,0,1,.782,1.025,5.629,5.629,0,0,1,.484,1.274,4.949,4.949,0,0,1,.167,1.169,4.811,4.811,0,0,1-.475,2.079,6.5,6.5,0,0,1-1.232,1.782,6.381,6.381,0,0,1-1.706,1.255,4.186,4.186,0,0,1-1.9.479,2.945,2.945,0,0,1-1.426-.317,2.588,2.588,0,0,1-.933-.842,3.754,3.754,0,0,1-.518-1.246A6.619,6.619,0,0,1,498.173,506.044Zm1.5.191a4.234,4.234,0,0,0,.079.872,1.6,1.6,0,0,0,.281.642,1.3,1.3,0,0,0,.537.412,2.092,2.092,0,0,0,.827.144,2.5,2.5,0,0,0,1.3-.393,4.838,4.838,0,0,0,1.17-1,5.2,5.2,0,0,0,.836-1.332,3.544,3.544,0,0,0,.317-1.418,4.731,4.731,0,0,0-.052-.671,2.963,2.963,0,0,0-.177-.67,1.394,1.394,0,0,0-.352-.517.819.819,0,0,0-.581-.211,1.647,1.647,0,0,0-.747.23,6.136,6.136,0,0,0-.9.594,8.978,8.978,0,0,0-.915.823q-.45.461-.819.92a5.454,5.454,0,0,0-.589.882A1.59,1.59,0,0,0,499.669,506.235Z" fill="#0899d7"/>
          <path id="Trazado_3712" data-name="Trazado 3712" d="M389.191,523.615a8.166,8.166,0,0,0-.07-1.083,4.248,4.248,0,0,1-.035-.938,1.053,1.053,0,0,1,.272-.661,1.188,1.188,0,0,1,.871-.249,7.108,7.108,0,0,1,.378,1.34q.185.9.362,2.07t.334,2.539q.157,1.37.29,2.749t.229,2.712q.1,1.331.15,2.424-.582.42-.933.057a2.815,2.815,0,0,1-.581-1.236,13.9,13.9,0,0,1-.352-2.127q-.123-1.254-.237-2.606t-.273-2.663A20.386,20.386,0,0,0,389.191,523.615Z" fill="#0899d7"/>
          <path id="Trazado_3713" data-name="Trazado 3713" d="M400.452,531.988q-.668.5-1.152.891a7.549,7.549,0,0,1-.942.661,3.709,3.709,0,0,1-.976.4,5.154,5.154,0,0,1-1.276.135,2.982,2.982,0,0,1-2.428-.949,4.322,4.322,0,0,1-.792-2.826,6.886,6.886,0,0,1,.176-1.514,8.356,8.356,0,0,1,.519-1.561,9.357,9.357,0,0,1,.818-1.476,6.718,6.718,0,0,1,1.074-1.235,5.2,5.2,0,0,1,1.275-.853,3.349,3.349,0,0,1,1.434-.316,3.959,3.959,0,0,1,1.989.679,3.454,3.454,0,0,1,1.091,1.4,7.163,7.163,0,0,1,.51,1.9q.141,1.045.22,2.157t.2,2.222a7.5,7.5,0,0,0,.511,2.05,3.43,3.43,0,0,1-.432.891.3.3,0,0,1-.448.087,2.338,2.338,0,0,1-.572-.844Q400.928,533.214,400.452,531.988Zm-6.07-1.647a2.7,2.7,0,0,0,.378,1.6,1.577,1.577,0,0,0,1.346.508,3.523,3.523,0,0,0,1.381-.278,3.581,3.581,0,0,0,1.152-.767,3.679,3.679,0,0,0,.792-1.177,3.806,3.806,0,0,0,.3-1.534c0-.229.005-.551.018-.967a7.5,7.5,0,0,0-.07-1.236,3.155,3.155,0,0,0-.335-1.063.8.8,0,0,0-.74-.45,3.018,3.018,0,0,0-1.688.507,5.038,5.038,0,0,0-1.338,1.293,6.532,6.532,0,0,0-.88,1.735A5.767,5.767,0,0,0,394.382,530.341Z" fill="#0899d7"/>
          <path id="Trazado_3714" data-name="Trazado 3714" d="M412.348,523.615a8.165,8.165,0,0,0-.071-1.083,4.308,4.308,0,0,1-.035-.938,1.052,1.052,0,0,1,.272-.661,1.192,1.192,0,0,1,.872-.249,7.262,7.262,0,0,1,.378,1.34q.184.9.361,2.07t.334,2.539q.157,1.37.29,2.749t.229,2.712q.1,1.331.15,2.424c-.388.28-.7.3-.933.057a2.815,2.815,0,0,1-.581-1.236,13.909,13.909,0,0,1-.351-2.127q-.123-1.254-.238-2.606t-.273-2.663A20.4,20.4,0,0,0,412.348,523.615Z" fill="#0899d7"/>
          <path id="Trazado_3715" data-name="Trazado 3715" d="M416.043,526.643c0-.078,0-.214.009-.413s.008-.4.008-.623,0-.418.009-.6.009-.316.009-.393a3.367,3.367,0,0,1,.291-.45.988.988,0,0,1,.352-.307.587.587,0,0,1,.4-.029.889.889,0,0,1,.448.384v.4c-.012.065-.035.214-.07.451s-.076.495-.123.776-.091.539-.132.775a3.523,3.523,0,0,0-.062.45,7.347,7.347,0,0,0,.071.911c.047.364.114.745.2,1.14a11.228,11.228,0,0,0,.334,1.188,5.483,5.483,0,0,0,.484,1.063,3.32,3.32,0,0,0,.624.777,1.168,1.168,0,0,0,.8.306,1.6,1.6,0,0,0,.994-.326,3.009,3.009,0,0,0,.748-.843,5.186,5.186,0,0,0,.52-1.169,11.684,11.684,0,0,0,.325-1.312c.082-.441.141-.865.176-1.275s.052-.766.052-1.072a5.922,5.922,0,0,0-.061-.872c-.041-.274-.091-.546-.15-.814s-.108-.534-.149-.8a5.148,5.148,0,0,1-.061-.8.569.569,0,0,1,.237-.517.968.968,0,0,1,.537-.153.792.792,0,0,1,.6.239,1.723,1.723,0,0,1,.361.6,3.4,3.4,0,0,1,.176.833q.043.469.044.929t-.018.872q-.018.412-.018.662a14.211,14.211,0,0,1-.087,1.475,12.556,12.556,0,0,1-.309,1.7,14.6,14.6,0,0,1-.545,1.715,6.919,6.919,0,0,1-.792,1.5,4.044,4.044,0,0,1-1.073,1.064,2.418,2.418,0,0,1-1.364.4,2.386,2.386,0,0,1-1.39-.412,3.524,3.524,0,0,1-1.012-1.092,7.3,7.3,0,0,1-.695-1.542,12.375,12.375,0,0,1-.431-1.724q-.15-.864-.212-1.677T416.043,526.643Z" fill="#0899d7"/>
          <path id="Trazado_3716" data-name="Trazado 3716" d="M425.087,528a.965.965,0,0,1,.229-.719,1.044,1.044,0,0,1,.739-.221h.176q.053.309.123.709a5.847,5.847,0,0,0,.211.825,4.769,4.769,0,0,0,.334.776,1.707,1.707,0,0,0,.476.565,3.242,3.242,0,0,1,.307-1.293,4.621,4.621,0,0,1,1.672-1.936,3.216,3.216,0,0,1,1.03-.45h.386a2.483,2.483,0,0,1,1.444.412,3.427,3.427,0,0,1,.994,1.073,5.541,5.541,0,0,1,.607,1.5,15.129,15.129,0,0,1,.325,1.715,16.88,16.88,0,0,1,.141,1.686q.027.815.026,1.389h-1.284q-.105-1.149-.264-2.2c-.036-.281-.082-.578-.141-.891s-.123-.607-.193-.881-.147-.531-.229-.767a2.934,2.934,0,0,0-.281-.6c-.048-.05-.109-.121-.186-.211s-.155-.178-.237-.267-.158-.166-.228-.231a.483.483,0,0,0-.124-.095.881.881,0,0,0-.915.22,3.393,3.393,0,0,0-.686,1.006,7.055,7.055,0,0,0-.483,1.437q-.187.805-.309,1.543t-.176,1.283c-.035.364-.058.585-.07.661a.832.832,0,0,1-.827.2,1.679,1.679,0,0,1-.731-.6,5.031,5.031,0,0,1-.615-1.15q-.275-.69-.5-1.465t-.413-1.562Q425.229,528.674,425.087,528Z" fill="#0899d7"/>
          <path id="Trazado_3717" data-name="Trazado 3717" d="M442.842,531.988q-.669.5-1.153.891a7.467,7.467,0,0,1-.941.661,3.715,3.715,0,0,1-.977.4,5.14,5.14,0,0,1-1.275.135,2.985,2.985,0,0,1-2.429-.949,4.328,4.328,0,0,1-.792-2.826,6.891,6.891,0,0,1,.177-1.514,8.286,8.286,0,0,1,.519-1.561,9.354,9.354,0,0,1,.818-1.476,6.712,6.712,0,0,1,1.073-1.235,5.2,5.2,0,0,1,1.276-.853,3.346,3.346,0,0,1,1.434-.316,3.952,3.952,0,0,1,1.988.679,3.437,3.437,0,0,1,1.091,1.4,7.2,7.2,0,0,1,.511,1.9q.141,1.045.22,2.157t.2,2.222a7.5,7.5,0,0,0,.511,2.05,3.462,3.462,0,0,1-.432.891.3.3,0,0,1-.448.087,2.337,2.337,0,0,1-.573-.844Q443.318,533.214,442.842,531.988Zm-6.071-1.647a2.7,2.7,0,0,0,.378,1.6,1.578,1.578,0,0,0,1.347.508,3.531,3.531,0,0,0,1.381-.278,3.592,3.592,0,0,0,1.152-.767,3.7,3.7,0,0,0,.792-1.177,3.824,3.824,0,0,0,.3-1.534c0-.229.005-.551.018-.967a7.5,7.5,0,0,0-.071-1.236,3.133,3.133,0,0,0-.335-1.063.794.794,0,0,0-.739-.45,3.018,3.018,0,0,0-1.688.507,5.039,5.039,0,0,0-1.338,1.293,6.531,6.531,0,0,0-.88,1.735A5.77,5.77,0,0,0,436.771,530.341Z" fill="#0899d7"/>
          <path id="Trazado_3718" data-name="Trazado 3718" d="M453.928,532.2a3.8,3.8,0,0,1,.51-1.973,5.845,5.845,0,0,1,1.267-1.5,8.5,8.5,0,0,1,1.637-1.093q.879-.45,1.635-.747t1.268-.48c.34-.121.51-.219.51-.3q0-.669-.062-1.312c-.041-.428-.085-.858-.132-1.293s-.09-.865-.131-1.293-.062-.853-.062-1.274v-1.246c.48-.192.824-.172,1.029.057a1.3,1.3,0,0,1,.1,1.189q.07.422.193,1.322t.273,2.03q.148,1.131.317,2.376t.317,2.386q.148,1.141.254,2.031t.16,1.332c.01.064.022.189.035.373s.019.384.026.594.011.406.018.585.009.307.009.383a4.552,4.552,0,0,1-.907-.058.381.381,0,0,1-.3-.229,1.566,1.566,0,0,1-.061-.5,3.323,3.323,0,0,0-.176-.9,10.548,10.548,0,0,1-1.231.919,6.585,6.585,0,0,1-1.161.585,5.608,5.608,0,0,1-1.171.307,8.775,8.775,0,0,1-1.258.086,5.368,5.368,0,0,1-1.082-.106,2.572,2.572,0,0,1-.924-.373,1.972,1.972,0,0,1-.651-.728A2.42,2.42,0,0,1,453.928,532.2Zm1.531-.4a.909.909,0,0,0,.123.5,1.191,1.191,0,0,0,.729.508,2.032,2.032,0,0,0,.432.048,3.891,3.891,0,0,0,1.328-.259,4.833,4.833,0,0,0,1.32-.729,4.076,4.076,0,0,0,1-1.12,2.679,2.679,0,0,0,.4-1.418,1.317,1.317,0,0,0-.193-.824.942.942,0,0,0-.74-.23,3.722,3.722,0,0,0-1.31.288,6.9,6.9,0,0,0-1.444.766,4.938,4.938,0,0,0-1.17,1.12A2.244,2.244,0,0,0,455.459,531.8Z" fill="#0899d7"/>
          <path id="Trazado_3719" data-name="Trazado 3719" d="M464.133,529.133a9.543,9.543,0,0,1,.229-2.07,6.07,6.07,0,0,1,.73-1.858,4.14,4.14,0,0,1,1.3-1.341,3.516,3.516,0,0,1,1.945-.517,2.429,2.429,0,0,1,1.143.258,2.563,2.563,0,0,1,.827.68,2.884,2.884,0,0,1,.5.987,4.118,4.118,0,0,1,.168,1.179,4.576,4.576,0,0,1-.414,1.9,5.431,5.431,0,0,1-1.108,1.619,4.616,4.616,0,0,1-1.593,1.054,3.153,3.153,0,0,1-1.83.163,1.279,1.279,0,0,0,.344.89,2.1,2.1,0,0,0,.783.508,3.689,3.689,0,0,0,.95.221q.492.048.879.048a3.484,3.484,0,0,0,.757-.078c.234-.05.47-.108.7-.171s.472-.122.713-.173a3.677,3.677,0,0,1,.766-.076,2.586,2.586,0,0,1,.316.018.992.992,0,0,1,.3.087.529.529,0,0,1,.228.21.669.669,0,0,1,.089.354.806.806,0,0,1-.247.6,2.156,2.156,0,0,1-.624.412,3.665,3.665,0,0,1-.836.259c-.306.057-.6.1-.889.135s-.551.05-.792.056-.419.01-.537.01a5,5,0,0,1-2.023-.393,4.262,4.262,0,0,1-1.513-1.091,4.784,4.784,0,0,1-.941-1.687A6.947,6.947,0,0,1,464.133,529.133ZM466,527.888a2.131,2.131,0,0,0,.168.977c.111.2.384.307.817.307a2.315,2.315,0,0,0,.9-.183,2.736,2.736,0,0,0,.8-.508,2.418,2.418,0,0,0,.573-.766,2.193,2.193,0,0,0,.211-.958,4.229,4.229,0,0,0-.044-.594,1.684,1.684,0,0,0-.185-.565,1.29,1.29,0,0,0-.361-.421.933.933,0,0,0-.571-.163,1.828,1.828,0,0,0-.959.258,2.426,2.426,0,0,0-.731.671,3.174,3.174,0,0,0-.457.919A3.42,3.42,0,0,0,466,527.888Z" fill="#0899d7"/>
          <path id="Trazado_3720" data-name="Trazado 3720" d="M481.677,526.412a1.546,1.546,0,0,1,.149-.747.673.673,0,0,1,.643-.269c.035,0,.1,0,.2.01s.161.01.184.01c.082.4.167.827.255,1.293s.192.937.309,1.409.249.939.395,1.4a6.5,6.5,0,0,0,.537,1.245,2.191,2.191,0,0,0,.457-.863,7.3,7.3,0,0,0,.211-1.005c.047-.338.091-.665.133-.977a2.166,2.166,0,0,1,.255-.806,1.135,1.135,0,0,1,.571-.488,1.8,1.8,0,0,1,1.048,0,2.088,2.088,0,0,1,1.179.3,3.067,3.067,0,0,1,.766.747q.324.452.632.958a3.672,3.672,0,0,0,.784.91l.263-.622a7.636,7.636,0,0,1,.4-.786q.237-.411.509-.823a6.558,6.558,0,0,1,.573-.748,3.53,3.53,0,0,1,.616-.556,1.086,1.086,0,0,1,.615-.22,1.777,1.777,0,0,1,1.25.489,4.353,4.353,0,0,1,.906,1.226,8.428,8.428,0,0,1,.624,1.648c.165.607.293,1.191.388,1.753s.161,1.077.2,1.542.062.8.062,1.006a.608.608,0,0,1-.106.384.656.656,0,0,1-.264.2,1.159,1.159,0,0,1-.343.086,3.264,3.264,0,0,1-.343.019.917.917,0,0,1-.1-.009c-.047-.007-.1-.017-.159-.029s-.112-.032-.194-.058l-1.143-5.728c0-.039-.047-.113-.141-.221a.947.947,0,0,0-.211-.2.171.171,0,0,1-.088-.02.118.118,0,0,1-.053-.009.079.079,0,0,0-.035-.009.973.973,0,0,0-.7.325,3.779,3.779,0,0,0-.607.824,9.289,9.289,0,0,0-.528,1.111q-.248.615-.44,1.217c-.129.4-.243.774-.343,1.111s-.18.6-.237.777a.961.961,0,0,1-.283.066,2.485,2.485,0,0,1-.281.03.871.871,0,0,1-.757-.374,3.216,3.216,0,0,1-.43-.929,10.258,10.258,0,0,1-.283-1.217,10.179,10.179,0,0,0-.281-1.217,2.8,2.8,0,0,0-.457-.929.978.978,0,0,0-.818-.374c-.13,0-.253.141-.37.421a6.405,6.405,0,0,0-.317,1.064c-.093.429-.181.888-.263,1.38s-.15.951-.2,1.379-.1.936-.15,1.523a.428.428,0,0,1-.141.125q-.1.067-.219.144a1.023,1.023,0,0,1-.229.115.625.625,0,0,1-.167.038,1.314,1.314,0,0,1-.95-.488,5.1,5.1,0,0,1-.836-1.265,13.433,13.433,0,0,1-.686-1.715q-.307-.939-.52-1.84t-.325-1.629A7.772,7.772,0,0,1,481.677,526.412Z" fill="#0899d7"/>
          <path id="Trazado_3721" data-name="Trazado 3721" d="M498.5,520.089a1.339,1.339,0,0,1,.563.5.982.982,0,0,1,.2.622c-.018.186-.15.313-.4.384a2.242,2.242,0,0,1-1.231-.221,2.054,2.054,0,0,1,.184-.9A.683.683,0,0,1,498.5,520.089Zm-.246,7.185c0-.076,0-.2.009-.373s.011-.354.017-.547.012-.375.018-.555.009-.307.009-.383a1.548,1.548,0,0,1,.5-.5,3.371,3.371,0,0,1,.625-.307,14.088,14.088,0,0,0,.3,2.2q.246,1.17.528,2.348t.5,2.328a11.514,11.514,0,0,1,.219,2.146q0,.863-.809.862a1,1,0,0,1-.827-.44,3.483,3.483,0,0,1-.537-1.121,10.9,10.9,0,0,1-.326-1.514q-.123-.834-.167-1.638t-.052-1.475C498.255,527.862,498.252,527.518,498.252,527.274Z" fill="#0899d7"/>
          <path id="Trazado_3722" data-name="Trazado 3722" d="M501.666,529.133a9.543,9.543,0,0,1,.229-2.07,6.1,6.1,0,0,1,.73-1.858,4.133,4.133,0,0,1,1.3-1.341,3.51,3.51,0,0,1,1.944-.517,2.427,2.427,0,0,1,1.143.258,2.567,2.567,0,0,1,.828.68,2.919,2.919,0,0,1,.5.987,4.154,4.154,0,0,1,.168,1.179,4.592,4.592,0,0,1-.414,1.9,5.453,5.453,0,0,1-1.109,1.619,4.616,4.616,0,0,1-1.593,1.054,3.153,3.153,0,0,1-1.83.163,1.279,1.279,0,0,0,.344.89,2.11,2.11,0,0,0,.783.508,3.689,3.689,0,0,0,.95.221c.329.032.621.048.879.048a3.484,3.484,0,0,0,.757-.078c.235-.05.47-.108.7-.171s.472-.122.713-.173a3.676,3.676,0,0,1,.766-.076,2.576,2.576,0,0,1,.316.018.984.984,0,0,1,.3.087.537.537,0,0,1,.229.21.678.678,0,0,1,.088.354.806.806,0,0,1-.247.6,2.157,2.157,0,0,1-.624.412,3.666,3.666,0,0,1-.836.259q-.458.086-.888.135t-.792.056c-.241.007-.42.01-.537.01a5,5,0,0,1-2.024-.393,4.27,4.27,0,0,1-1.513-1.091,4.784,4.784,0,0,1-.941-1.687A6.947,6.947,0,0,1,501.666,529.133Zm1.865-1.245a2.131,2.131,0,0,0,.168.977c.111.2.384.307.817.307a2.315,2.315,0,0,0,.9-.183,2.754,2.754,0,0,0,.8-.508,2.43,2.43,0,0,0,.572-.766,2.179,2.179,0,0,0,.211-.958,4.234,4.234,0,0,0-.044-.594,1.663,1.663,0,0,0-.185-.565,1.267,1.267,0,0,0-.361-.421.931.931,0,0,0-.571-.163,1.828,1.828,0,0,0-.959.258,2.45,2.45,0,0,0-.731.671,3.174,3.174,0,0,0-.457.919A3.421,3.421,0,0,0,503.531,527.888Z" fill="#0899d7"/>
          <path id="Trazado_3723" data-name="Trazado 3723" d="M511.907,523.615a8.166,8.166,0,0,0-.07-1.083,4.248,4.248,0,0,1-.035-.938,1.053,1.053,0,0,1,.272-.661,1.188,1.188,0,0,1,.871-.249,7.111,7.111,0,0,1,.378,1.34q.184.9.361,2.07t.334,2.539q.159,1.37.29,2.749t.23,2.712q.094,1.331.149,2.424-.581.42-.932.057a2.8,2.8,0,0,1-.581-1.236,13.771,13.771,0,0,1-.352-2.127q-.123-1.254-.237-2.606t-.274-2.663A20.181,20.181,0,0,0,511.907,523.615Z" fill="#0899d7"/>
          <path id="Trazado_3724" data-name="Trazado 3724" d="M517.467,526.221a3.268,3.268,0,0,1,.256-1.293q.254-.6.544-1.179t.546-1.179a3.285,3.285,0,0,0,.255-1.293.9.9,0,0,0-.132-.469,1.5,1.5,0,0,0-.325-.383,1.56,1.56,0,0,0-.44-.259,1.328,1.328,0,0,0-.475-.1,1.111,1.111,0,0,0-.625.192,3.135,3.135,0,0,0-.537.45,6.813,6.813,0,0,0-.466.546,3.534,3.534,0,0,1-.431.479.547.547,0,0,1-.238.076,1.787,1.787,0,0,1-.255.04,4.91,4.91,0,0,1,.185-1.38,3.11,3.11,0,0,1,.555-1.093,2.54,2.54,0,0,1,.923-.718,2.935,2.935,0,0,1,1.258-.259,2.334,2.334,0,0,1,1.012.249,3.283,3.283,0,0,1,.924.661,3.774,3.774,0,0,1,.669.929,2.335,2.335,0,0,1,.263,1.073,4.392,4.392,0,0,1-.167,1.255,7.462,7.462,0,0,1-.4,1.054q-.228.489-.475.949a6.89,6.89,0,0,0-.422.958,3.862,3.862,0,0,0-.211,1.064,4.39,4.39,0,0,0,.14,1.293.443.443,0,0,1-.14.125,2.507,2.507,0,0,1-.22.124l-.229.115a.453.453,0,0,1-.167.058.85.85,0,0,1-.616-.221,1.58,1.58,0,0,1-.36-.536,2.3,2.3,0,0,1-.168-.681C517.478,526.63,517.467,526.412,517.467,526.221Zm1.179,7.415a1.089,1.089,0,0,1,.159-.517,2.968,2.968,0,0,1,.377-.537,2.464,2.464,0,0,1,.476-.421.872.872,0,0,1,.483-.173c.024,0,.085.055.185.163s.173.2.221.259c.023.038.054.1.1.182s.082.169.123.259a2.3,2.3,0,0,1,.1.239.633.633,0,0,1,.035.125,1.3,1.3,0,0,1-.088.546.5.5,0,0,1-.228.249.751.751,0,0,1-.326.067h-.4c-.047,0-.135,0-.263.009a2.285,2.285,0,0,1-.415-.019,1.059,1.059,0,0,1-.377-.115A.327.327,0,0,1,518.646,533.636Z" fill="#0899d7"/>
        </g>
      </g>
      <path id="Trazado_3725" data-name="Trazado 3725" d="M499.224,598.053a40.609,40.609,0,0,1-35.73-13.774,40.062,40.062,0,0,1-7.568-37,.637.637,0,0,1,1.222.36,38.248,38.248,0,0,0,8.138,35.083,37.7,37.7,0,0,0,33.435,11.894,1.737,1.737,0,1,1,.557,3.429Z" fill="#0899d7"/>
    </g>
  </g>
</svg>
