<svg xmlns="http://www.w3.org/2000/svg" width="109.783" height="92.257" viewBox="0 0 109.783 92.257">
  <g id="Grupo_2311" data-name="Grupo 2311" transform="translate(-663 -369)">
    <g id="Grupo_2310" data-name="Grupo 2310" transform="translate(-113.742 39.862)">
      <g id="Grupo_2309" data-name="Grupo 2309">
        <g id="Grupo_2308" data-name="Grupo 2308">
          <path id="Trazado_3629" data-name="Trazado 3629" d="M777.886,344.447q-.07-.306-.185-.881t-.246-1.264q-.132-.69-.256-1.448c-.082-.5-.158-1-.229-1.474s-.125-.92-.166-1.322-.062-.732-.062-.988c0-.114.012-.312.035-.593s.059-.576.105-.881.092-.6.133-.863a3.556,3.556,0,0,1,.114-.555.6.6,0,0,1,.185-.02,2.162,2.162,0,0,0,.281-.019c.1-.013.194-.022.282-.029s.15-.009.185-.009a3.665,3.665,0,0,1,1.6.364,7.411,7.411,0,0,1,1.443.92,13.646,13.646,0,0,1,1.336,1.245q.651.69,1.311,1.341a14.223,14.223,0,0,0,1.347,1.178,5.129,5.129,0,0,0,1.459.8c0-.063,0-.162.01-.3s.008-.277.008-.43,0-.3.01-.432.007-.232.007-.3a19.552,19.552,0,0,0-.14-2.356q-.141-1.15-.317-2.3t-.316-2.309a19.723,19.723,0,0,1-.141-2.385c.082,0,.186,0,.309.009a2.043,2.043,0,0,1,.377.058,1.14,1.14,0,0,1,.353.153.512.512,0,0,1,.211.317,22.411,22.411,0,0,0,.317,2.768q.246,1.389.509,2.779t.467,2.778a19.041,19.041,0,0,1,.2,2.75c0,.166,0,.345-.007.536a2.727,2.727,0,0,1-.071.546,1.063,1.063,0,0,1-.2.432.515.515,0,0,1-.422.172,3.292,3.292,0,0,1-1.689-.451,8.557,8.557,0,0,1-1.5-1.121,17.6,17.6,0,0,1-1.426-1.475,17.425,17.425,0,0,0-1.426-1.475,8.947,8.947,0,0,0-1.511-1.131,3.28,3.28,0,0,0-1.682-.46,14.544,14.544,0,0,0,.141,2.06c.093.658.2,1.312.308,1.964s.213,1.3.309,1.945a13.616,13.616,0,0,1,.14,1.964.521.521,0,0,1-.238.5,1.033,1.033,0,0,1-.519.135,1.894,1.894,0,0,1-.43-.048C778.058,344.809,777.957,344.678,777.886,344.447Z" fill="#0899d7"/>
          <path id="Trazado_3630" data-name="Trazado 3630" d="M789.166,341.382a4.914,4.914,0,0,1,.509-2.213,5.717,5.717,0,0,1,1.346-1.763,6.492,6.492,0,0,1,1.883-1.159,5.644,5.644,0,0,1,2.121-.422,1.542,1.542,0,0,1,1.064.422,3.637,3.637,0,0,1,.784,1.024,5.7,5.7,0,0,1,.484,1.275,4.941,4.941,0,0,1,.166,1.169,4.811,4.811,0,0,1-.475,2.079,6.459,6.459,0,0,1-1.232,1.782,6.376,6.376,0,0,1-1.7,1.255,4.2,4.2,0,0,1-1.9.479,2.939,2.939,0,0,1-1.426-.317,2.585,2.585,0,0,1-.934-.843,3.74,3.74,0,0,1-.517-1.245A6.564,6.564,0,0,1,789.166,341.382Zm1.5.191a4.239,4.239,0,0,0,.078.872,1.6,1.6,0,0,0,.281.642,1.3,1.3,0,0,0,.537.412,2.094,2.094,0,0,0,.828.144,2.5,2.5,0,0,0,1.3-.393,4.84,4.84,0,0,0,1.17-1,5.176,5.176,0,0,0,.836-1.332,3.545,3.545,0,0,0,.318-1.418,4.726,4.726,0,0,0-.052-.671,3.071,3.071,0,0,0-.178-.67,1.4,1.4,0,0,0-.352-.517.819.819,0,0,0-.58-.211,1.65,1.65,0,0,0-.748.23,6.179,6.179,0,0,0-.9.594,8.884,8.884,0,0,0-.916.823c-.3.307-.573.613-.819.92a5.528,5.528,0,0,0-.59.882A1.6,1.6,0,0,0,790.662,341.573Z" fill="#0899d7"/>
          <path id="Trazado_3631" data-name="Trazado 3631" d="M806.744,334.427a8.153,8.153,0,0,0-.071-1.083,4.45,4.45,0,0,1-.035-.939,1.062,1.062,0,0,1,.274-.661,1.186,1.186,0,0,1,.871-.249,7.116,7.116,0,0,1,.377,1.341q.185.9.361,2.069t.334,2.539q.159,1.369.291,2.749t.229,2.712q.1,1.332.15,2.424c-.389.28-.7.3-.934.058a2.842,2.842,0,0,1-.58-1.237,13.917,13.917,0,0,1-.351-2.127c-.082-.835-.162-1.705-.239-2.605s-.167-1.788-.273-2.663A20.174,20.174,0,0,0,806.744,334.427Z" fill="#0899d7"/>
          <path id="Trazado_3632" data-name="Trazado 3632" d="M810.439,341.382a4.9,4.9,0,0,1,.51-2.213,5.717,5.717,0,0,1,1.346-1.763,6.474,6.474,0,0,1,1.882-1.159,5.652,5.652,0,0,1,2.121-.422,1.544,1.544,0,0,1,1.065.422,3.653,3.653,0,0,1,.783,1.024,5.7,5.7,0,0,1,.484,1.275,4.891,4.891,0,0,1,.166,1.169,4.824,4.824,0,0,1-.474,2.079,6.486,6.486,0,0,1-1.233,1.782,6.36,6.36,0,0,1-1.705,1.255,4.2,4.2,0,0,1-1.9.479,2.945,2.945,0,0,1-1.426-.317,2.574,2.574,0,0,1-.933-.843,3.721,3.721,0,0,1-.518-1.245A6.621,6.621,0,0,1,810.439,341.382Zm1.5.191a4.308,4.308,0,0,0,.078.872,1.605,1.605,0,0,0,.282.642,1.286,1.286,0,0,0,.537.412,2.09,2.09,0,0,0,.828.144,2.5,2.5,0,0,0,1.3-.393,4.835,4.835,0,0,0,1.169-1,5.176,5.176,0,0,0,.836-1.332,3.547,3.547,0,0,0,.319-1.418,4.736,4.736,0,0,0-.053-.671,3.017,3.017,0,0,0-.178-.67,1.4,1.4,0,0,0-.351-.517.822.822,0,0,0-.58-.211,1.65,1.65,0,0,0-.748.23,6.238,6.238,0,0,0-.9.594,8.986,8.986,0,0,0-.916.823q-.449.461-.818.92a5.46,5.46,0,0,0-.59.882A1.587,1.587,0,0,0,811.935,341.573Z" fill="#0899d7"/>
          <path id="Trazado_3633" data-name="Trazado 3633" d="M827.595,338.2a4.1,4.1,0,0,1,.791-2.759,3.073,3.073,0,0,1,2.43-.9,7.42,7.42,0,0,1,1.381.135,4.28,4.28,0,0,1,1.31.469,2.724,2.724,0,0,1,.977.929,2.815,2.815,0,0,1,.379,1.533,4.658,4.658,0,0,1-.414,1.945,8.239,8.239,0,0,1-1.039,1.7,12.036,12.036,0,0,1-1.371,1.475q-.75.683-1.4,1.294a1.139,1.139,0,0,0-.062.316c-.018.16-.028.265-.028.316a2.7,2.7,0,0,0,.344,1.275q.344.64.748,1.3a14.187,14.187,0,0,1,.738,1.37,3.42,3.42,0,0,1,.336,1.476c0,.307-.058.488-.175.546a2.02,2.02,0,0,1-.741.086,1.722,1.722,0,0,1-.7-.718,10.491,10.491,0,0,1-.685-1.39q-.344-.824-.668-1.848t-.618-2.089q-.289-1.063-.545-2.107c-.169-.7-.32-1.338-.449-1.926s-.242-1.1-.342-1.524S827.63,338.38,827.595,338.2Zm1.5.173q0,.287.036.833a7.454,7.454,0,0,0,.148,1.083,3.122,3.122,0,0,0,.344.929.7.7,0,0,0,.633.392,1.862,1.862,0,0,0,1.1-.4,4.249,4.249,0,0,0,.987-1.016,6.157,6.157,0,0,0,.7-1.312,3.56,3.56,0,0,0,.273-1.274,1.217,1.217,0,0,0-.211-.756,1.518,1.518,0,0,0-.537-.442,2.155,2.155,0,0,0-.7-.21,5.462,5.462,0,0,0-.7-.048,1.983,1.983,0,0,0-1.539.584A2.325,2.325,0,0,0,829.091,338.374Z" fill="#0899d7"/>
          <path id="Trazado_3634" data-name="Trazado 3634" d="M836.886,330.9a1.358,1.358,0,0,1,.563.5.985.985,0,0,1,.2.622q-.027.279-.4.384a2.236,2.236,0,0,1-1.23-.22,2.059,2.059,0,0,1,.184-.9A.683.683,0,0,1,836.886,330.9Zm-.246,7.186c0-.076,0-.2.008-.373s.012-.355.018-.547.011-.376.017-.556.01-.306.01-.382a1.544,1.544,0,0,1,.5-.5,3.323,3.323,0,0,1,.623-.306,14,14,0,0,0,.3,2.2q.246,1.168.527,2.348t.5,2.328a11.414,11.414,0,0,1,.219,2.145q0,.863-.809.863a1.007,1.007,0,0,1-.828-.441,3.481,3.481,0,0,1-.535-1.121,10.582,10.582,0,0,1-.326-1.514q-.123-.833-.168-1.637t-.053-1.476C836.642,338.674,836.64,338.329,836.64,338.086Z" fill="#0899d7"/>
          <path id="Trazado_3635" data-name="Trazado 3635" d="M840.052,339.944a9.475,9.475,0,0,1,.231-2.069,6.057,6.057,0,0,1,.728-1.858,4.164,4.164,0,0,1,1.3-1.341,3.505,3.505,0,0,1,1.945-.518,2.415,2.415,0,0,1,1.143.259,2.564,2.564,0,0,1,.828.68,2.872,2.872,0,0,1,.5.987,4.152,4.152,0,0,1,.168,1.179,4.588,4.588,0,0,1-.414,1.9,5.435,5.435,0,0,1-1.107,1.619,4.616,4.616,0,0,1-1.594,1.054,3.153,3.153,0,0,1-1.83.163,1.287,1.287,0,0,0,.343.891,2.138,2.138,0,0,0,.784.508,3.679,3.679,0,0,0,.951.22q.492.048.879.048a3.5,3.5,0,0,0,.756-.077c.234-.051.47-.108.7-.172s.47-.121.713-.173a3.669,3.669,0,0,1,.765-.076,2.593,2.593,0,0,1,.317.019.95.95,0,0,1,.3.087.534.534,0,0,1,.229.209.67.67,0,0,1,.088.355.808.808,0,0,1-.246.6,2.183,2.183,0,0,1-.625.412,3.6,3.6,0,0,1-.836.258c-.3.058-.6.1-.889.135s-.551.051-.791.057-.42.01-.537.01a4.991,4.991,0,0,1-2.023-.393,4.268,4.268,0,0,1-1.514-1.092,4.779,4.779,0,0,1-.941-1.686A6.981,6.981,0,0,1,840.052,339.944Zm1.866-1.245a2.136,2.136,0,0,0,.168.978q.167.306.818.306a2.307,2.307,0,0,0,.9-.182,2.739,2.739,0,0,0,.8-.508,2.43,2.43,0,0,0,.572-.767,2.178,2.178,0,0,0,.211-.958,4.084,4.084,0,0,0-.043-.593,1.668,1.668,0,0,0-.185-.566,1.288,1.288,0,0,0-.361-.421.938.938,0,0,0-.571-.163,1.819,1.819,0,0,0-.959.259,2.41,2.41,0,0,0-.73.671,3.137,3.137,0,0,0-.457.919A3.352,3.352,0,0,0,841.918,338.7Z" fill="#0899d7"/>
          <path id="Trazado_3636" data-name="Trazado 3636" d="M849.873,338.814a.965.965,0,0,1,.228-.718,1.039,1.039,0,0,1,.738-.221h.178q.052.307.123.709a5.673,5.673,0,0,0,.211.824,4.823,4.823,0,0,0,.334.777,1.727,1.727,0,0,0,.475.565,3.233,3.233,0,0,1,.308-1.294,4.644,4.644,0,0,1,.721-1.111,4.556,4.556,0,0,1,.951-.824,3.209,3.209,0,0,1,1.03-.451h.386a2.5,2.5,0,0,1,1.444.412,3.431,3.431,0,0,1,.994,1.074,5.579,5.579,0,0,1,.607,1.5,15.061,15.061,0,0,1,.324,1.714c.077.582.123,1.144.141,1.687s.027,1.006.027,1.389h-1.285q-.105-1.149-.263-2.2c-.036-.281-.082-.578-.141-.89s-.123-.608-.193-.882-.147-.53-.229-.767a2.922,2.922,0,0,0-.281-.6c-.049-.051-.11-.121-.186-.211s-.156-.179-.238-.268-.158-.166-.229-.23a.46.46,0,0,0-.123-.1.882.882,0,0,0-.914.221,3.376,3.376,0,0,0-.687,1.006,7.047,7.047,0,0,0-.483,1.436c-.125.537-.226,1.051-.308,1.543s-.141.92-.176,1.283-.059.585-.07.662a.838.838,0,0,1-.828.2,1.687,1.687,0,0,1-.731-.6,5,5,0,0,1-.615-1.149q-.273-.69-.5-1.466t-.412-1.561C850.076,339.747,849.966,339.262,849.873,338.814Z" fill="#0899d7"/>
          <path id="Trazado_3637" data-name="Trazado 3637" d="M863.439,344.409c.188-.14.412-.322.678-.546s.529-.463.8-.718a9.088,9.088,0,0,0,.757-.8,4.5,4.5,0,0,0,.555-.815,1.61,1.61,0,0,0,.2-.737.687.687,0,0,0-.316-.575c-.375,0-.785.016-1.233.048s-.89.045-1.335.038a7.743,7.743,0,0,1-1.293-.124,3.175,3.175,0,0,1-1.118-.422,2.151,2.151,0,0,1-.783-.872,3.137,3.137,0,0,1-.291-1.446,4.636,4.636,0,0,1,.361-1.869,5.144,5.144,0,0,1,.959-1.475,7.185,7.185,0,0,1,1.346-1.13,11.362,11.362,0,0,1,1.5-.834,2.214,2.214,0,0,1,.846.479,4.014,4.014,0,0,1,.668.767,1.118,1.118,0,0,1-.485.651,4.257,4.257,0,0,1-.826.4c-.31.114-.637.236-.976.363a3.577,3.577,0,0,0-.924.508,2.61,2.61,0,0,0-.7.824,2.735,2.735,0,0,0-.282,1.332,1.242,1.242,0,0,0,.282.9,1.457,1.457,0,0,0,.738.393,3.821,3.821,0,0,0,1.039.077q.581-.029,1.187-.087t1.188-.066a2.949,2.949,0,0,1,1.039.153,1.519,1.519,0,0,1,.728.527,1.759,1.759,0,0,1,.274,1.073,2.292,2.292,0,0,1-.184.785,8.146,8.146,0,0,1-.494,1.025,8.892,8.892,0,0,1-.721,1.083,8.5,8.5,0,0,1-.863.968,5.427,5.427,0,0,1-.9.708,1.6,1.6,0,0,1-.836.278.467.467,0,0,1-.485-.287A1.549,1.549,0,0,1,863.439,344.409Z" fill="#0899d7"/>
          <path id="Trazado_3638" data-name="Trazado 3638" d="M868.734,339.944a9.474,9.474,0,0,1,.23-2.069,6.085,6.085,0,0,1,.729-1.858,4.165,4.165,0,0,1,1.3-1.341,3.5,3.5,0,0,1,1.945-.518,2.417,2.417,0,0,1,1.143.259,2.564,2.564,0,0,1,.828.68,2.909,2.909,0,0,1,.5.987,4.152,4.152,0,0,1,.168,1.179,4.588,4.588,0,0,1-.414,1.9,5.437,5.437,0,0,1-1.108,1.619,4.606,4.606,0,0,1-1.594,1.054,3.152,3.152,0,0,1-1.83.163,1.288,1.288,0,0,0,.344.891,2.143,2.143,0,0,0,.783.508,3.687,3.687,0,0,0,.952.22q.492.048.878.048a3.483,3.483,0,0,0,.756-.077c.235-.051.471-.108.705-.172s.471-.121.713-.173a3.671,3.671,0,0,1,.766-.076,2.576,2.576,0,0,1,.316.019.955.955,0,0,1,.3.087.534.534,0,0,1,.229.209.68.68,0,0,1,.088.355.809.809,0,0,1-.247.6,2.183,2.183,0,0,1-.625.412,3.6,3.6,0,0,1-.836.258c-.3.058-.6.1-.888.135s-.551.051-.791.057-.42.01-.537.01a5,5,0,0,1-2.024-.393A4.273,4.273,0,0,1,870,343.825a4.781,4.781,0,0,1-.942-1.686A6.983,6.983,0,0,1,868.734,339.944ZM870.6,338.7a2.149,2.149,0,0,0,.168.978q.168.306.819.306a2.311,2.311,0,0,0,.9-.182,2.739,2.739,0,0,0,.8-.508,2.446,2.446,0,0,0,.572-.767,2.179,2.179,0,0,0,.211-.958,4.226,4.226,0,0,0-.043-.593,1.69,1.69,0,0,0-.185-.566,1.279,1.279,0,0,0-.362-.421.935.935,0,0,0-.57-.163,1.817,1.817,0,0,0-.959.259,2.425,2.425,0,0,0-.731.671,3.163,3.163,0,0,0-.457.919A3.384,3.384,0,0,0,870.6,338.7Z" fill="#0899d7"/>
          <path id="Trazado_3639" data-name="Trazado 3639" d="M881.933,344.409c.188-.14.412-.322.678-.546s.529-.463.8-.718a9.258,9.258,0,0,0,.758-.8,4.5,4.5,0,0,0,.554-.815,1.61,1.61,0,0,0,.2-.737.687.687,0,0,0-.316-.575q-.562,0-1.232.048t-1.336.038a7.744,7.744,0,0,1-1.293-.124,3.162,3.162,0,0,1-1.117-.422,2.146,2.146,0,0,1-.784-.872,3.137,3.137,0,0,1-.291-1.446,4.619,4.619,0,0,1,.362-1.869,5.1,5.1,0,0,1,.959-1.475,7.147,7.147,0,0,1,1.345-1.13,11.362,11.362,0,0,1,1.5-.834,2.214,2.214,0,0,1,.846.479,4.013,4.013,0,0,1,.668.767,1.12,1.12,0,0,1-.484.651,4.3,4.3,0,0,1-.827.4c-.31.114-.636.236-.976.363a3.579,3.579,0,0,0-.924.508,2.623,2.623,0,0,0-.7.824,2.735,2.735,0,0,0-.282,1.332,1.242,1.242,0,0,0,.282.9,1.457,1.457,0,0,0,.738.393,3.824,3.824,0,0,0,1.039.077q.58-.029,1.187-.087t1.188-.066a2.949,2.949,0,0,1,1.039.153,1.527,1.527,0,0,1,.729.527,1.766,1.766,0,0,1,.273,1.073,2.292,2.292,0,0,1-.184.785,8.139,8.139,0,0,1-.494,1.025,9,9,0,0,1-.72,1.083,8.6,8.6,0,0,1-.864.968,5.386,5.386,0,0,1-.9.708,1.6,1.6,0,0,1-.836.278.467.467,0,0,1-.485-.287A1.547,1.547,0,0,1,881.933,344.409Z" fill="#0899d7"/>
          <path id="Trazado_3640" data-name="Trazado 3640" d="M818.129,368.974q-.546-1.725-1.03-3.229t-.845-2.95a28.758,28.758,0,0,1-.571-2.941,22.724,22.724,0,0,1-.213-3.2c0-.089,0-.252.01-.488s.008-.482.008-.738,0-.5.01-.738.007-.4.007-.488a1.862,1.862,0,0,1,.555-.709,1.254,1.254,0,0,1,.8-.326q0,1.418.035,3.018t.221,3.19a21.25,21.25,0,0,0,.6,3.114,11.043,11.043,0,0,0,1.17,2.788c.012-.306.024-.645.036-1.015a9.936,9.936,0,0,1,.1-1.112,5.947,5.947,0,0,1,.254-1.073,2.784,2.784,0,0,1,.52-.92,2.32,2.32,0,0,1,.9-.632,3.483,3.483,0,0,1,1.4-.211,2.989,2.989,0,0,1,1.363.307,3.029,3.029,0,0,1,1.021.833,3.816,3.816,0,0,1,.633,1.227,4.905,4.905,0,0,1,.221,1.484,4.807,4.807,0,0,1-.477,2.07,6.682,6.682,0,0,1-3.008,3.114,4.339,4.339,0,0,1-1.97.488,2.49,2.49,0,0,1-.987-.2A1.605,1.605,0,0,1,818.129,368.974Zm4.169-6.994q-.351.211-.738.5a2.63,2.63,0,0,0-.713.89,6.426,6.426,0,0,0-.554,1.639,15.309,15.309,0,0,0-.282,2.74c.024,0,.084.006.184.019s.168.019.2.019a2.334,2.334,0,0,0,1.082-.326,7.031,7.031,0,0,0,1.18-.8,5.864,5.864,0,0,0,.994-1.063,2.7,2.7,0,0,0,.51-1.121,1.385,1.385,0,0,0-.123-.747,3.985,3.985,0,0,0-.467-.815,3.418,3.418,0,0,0-.633-.661A1.066,1.066,0,0,0,822.3,361.98Z" fill="#0899d7"/>
          <path id="Trazado_3641" data-name="Trazado 3641" d="M826.4,364.471a9.421,9.421,0,0,1,.231-2.07,6.067,6.067,0,0,1,.728-1.858,4.165,4.165,0,0,1,1.3-1.341,3.5,3.5,0,0,1,1.945-.517,2.426,2.426,0,0,1,1.143.258,2.577,2.577,0,0,1,.828.68,2.909,2.909,0,0,1,.5.987,4.153,4.153,0,0,1,.168,1.179,4.6,4.6,0,0,1-.414,1.9,5.45,5.45,0,0,1-1.108,1.619,4.623,4.623,0,0,1-1.593,1.053,3.148,3.148,0,0,1-1.831.163,1.286,1.286,0,0,0,.344.891,2.118,2.118,0,0,0,.783.508,3.729,3.729,0,0,0,.952.221c.328.032.621.047.878.047a3.483,3.483,0,0,0,.756-.077c.235-.05.471-.108.705-.172s.471-.121.713-.172a3.677,3.677,0,0,1,.766-.077,2.576,2.576,0,0,1,.316.019.982.982,0,0,1,.3.087.537.537,0,0,1,.229.21.678.678,0,0,1,.088.354.8.8,0,0,1-.247.6,2.162,2.162,0,0,1-.625.412,3.643,3.643,0,0,1-.835.259c-.3.057-.6.1-.889.135s-.551.05-.791.056-.42.01-.537.01a5,5,0,0,1-2.024-.393,4.27,4.27,0,0,1-1.513-1.091,4.786,4.786,0,0,1-.942-1.687A6.977,6.977,0,0,1,826.4,364.471Zm1.865-1.245a2.144,2.144,0,0,0,.168.977c.112.2.385.307.819.307a2.312,2.312,0,0,0,.9-.183,2.74,2.74,0,0,0,.8-.508,2.415,2.415,0,0,0,.572-.766,2.182,2.182,0,0,0,.211-.958,4.229,4.229,0,0,0-.043-.594,1.678,1.678,0,0,0-.185-.565,1.269,1.269,0,0,0-.362-.421.928.928,0,0,0-.57-.163,1.825,1.825,0,0,0-.959.258,2.438,2.438,0,0,0-.731.671,3.176,3.176,0,0,0-.457.919A3.39,3.39,0,0,0,828.263,363.226Z" fill="#0899d7"/>
          <path id="Trazado_3642" data-name="Trazado 3642" d="M838.875,368.974q-.546-1.725-1.03-3.229T837,362.8a28.758,28.758,0,0,1-.571-2.941,22.715,22.715,0,0,1-.213-3.2c0-.089,0-.252.01-.488s.008-.482.008-.738,0-.5.01-.738.008-.4.008-.488a1.859,1.859,0,0,1,.554-.709,1.256,1.256,0,0,1,.8-.326q0,1.418.035,3.018t.221,3.19a21.124,21.124,0,0,0,.6,3.114,11.042,11.042,0,0,0,1.169,2.788c.012-.306.024-.645.036-1.015a10.173,10.173,0,0,1,.1-1.112,5.948,5.948,0,0,1,.254-1.073,2.783,2.783,0,0,1,.52-.92,2.321,2.321,0,0,1,.9-.632,3.483,3.483,0,0,1,1.4-.211,2.983,2.983,0,0,1,1.363.307,3.029,3.029,0,0,1,1.021.833,3.816,3.816,0,0,1,.633,1.227,4.907,4.907,0,0,1,.221,1.484,4.807,4.807,0,0,1-.477,2.07,6.673,6.673,0,0,1-3.007,3.114,4.346,4.346,0,0,1-1.971.488,2.49,2.49,0,0,1-.987-.2A1.606,1.606,0,0,1,838.875,368.974Zm4.17-6.994q-.352.211-.739.5a2.629,2.629,0,0,0-.713.89,6.464,6.464,0,0,0-.554,1.639,15.4,15.4,0,0,0-.282,2.74c.024,0,.084.006.184.019s.168.019.2.019a2.331,2.331,0,0,0,1.082-.326,7.031,7.031,0,0,0,1.18-.8,5.866,5.866,0,0,0,.994-1.063,2.7,2.7,0,0,0,.51-1.121,1.385,1.385,0,0,0-.123-.747,3.94,3.94,0,0,0-.467-.815,3.389,3.389,0,0,0-.633-.661A1.066,1.066,0,0,0,843.045,361.98Z" fill="#0899d7"/>
          <path id="Trazado_3643" data-name="Trazado 3643" d="M847.144,364.471a9.541,9.541,0,0,1,.229-2.07,6.07,6.07,0,0,1,.73-1.858,4.123,4.123,0,0,1,1.3-1.341,3.5,3.5,0,0,1,1.943-.517,2.435,2.435,0,0,1,1.145.258,2.57,2.57,0,0,1,.826.68,2.877,2.877,0,0,1,.5.987,4.155,4.155,0,0,1,.168,1.179,4.6,4.6,0,0,1-.414,1.9,5.455,5.455,0,0,1-1.11,1.619,4.606,4.606,0,0,1-1.591,1.053,3.146,3.146,0,0,1-1.83.163,1.277,1.277,0,0,0,.343.891,2.1,2.1,0,0,0,.783.508,3.743,3.743,0,0,0,.95.221c.328.032.621.047.879.047a3.486,3.486,0,0,0,.757-.077c.235-.05.469-.108.7-.172s.472-.121.712-.172a3.7,3.7,0,0,1,.766-.077,2.565,2.565,0,0,1,.316.019.974.974,0,0,1,.3.087.537.537,0,0,1,.229.21.679.679,0,0,1,.09.354.807.807,0,0,1-.248.6,2.151,2.151,0,0,1-.623.412,3.7,3.7,0,0,1-.836.259c-.307.057-.6.1-.889.135s-.553.05-.793.056-.42.01-.537.01a5.006,5.006,0,0,1-2.024-.393,4.263,4.263,0,0,1-1.511-1.091,4.771,4.771,0,0,1-.942-1.687A6.949,6.949,0,0,1,847.144,364.471Zm1.865-1.245a2.118,2.118,0,0,0,.168.977c.112.2.383.307.817.307a2.315,2.315,0,0,0,.9-.183,2.74,2.74,0,0,0,.8-.508,2.416,2.416,0,0,0,.572-.766,2.182,2.182,0,0,0,.211-.958,4.1,4.1,0,0,0-.045-.594,1.676,1.676,0,0,0-.183-.565,1.292,1.292,0,0,0-.362-.421.934.934,0,0,0-.572-.163,1.833,1.833,0,0,0-.959.258,2.446,2.446,0,0,0-.73.671,3.124,3.124,0,0,0-.457.919A3.42,3.42,0,0,0,849.009,363.226Zm2.85-8.048-1.9,3.066c-.141.179-.282.255-.422.23a.464.464,0,0,1-.324-.221.868.868,0,0,1-.125-.459.878.878,0,0,1,.185-.547.958.958,0,0,0,.115-.162,1.4,1.4,0,0,0,.078-.145c.118-.2.252-.433.4-.689s.31-.495.476-.719a7.22,7.22,0,0,1,.483-.594,1.33,1.33,0,0,1,.449-.344.33.33,0,0,1,.361.038A.923.923,0,0,1,851.859,355.178Z" fill="#0899d7"/>
        </g>
      </g>
      <path id="Trazado_3644" data-name="Trazado 3644" d="M865.434,419.452a17.1,17.1,0,0,0,6.357-4.264,25.128,25.128,0,0,0,4.337-6.509,37.92,37.92,0,0,0,3.327-15.487,32.317,32.317,0,0,0-3.375-15.454,28.96,28.96,0,0,0-10.943-11.514,19.97,19.97,0,0,1,7.077,4.25,25.5,25.5,0,0,1,5.1,6.6,33.907,33.907,0,0,1,3.938,16.122,39.085,39.085,0,0,1-3.3,16.331,25.621,25.621,0,0,1-4.7,7.059,19.115,19.115,0,0,1-7.142,4.744,1,1,0,0,1-.7-1.872Z" fill="#0899d7"/>
    </g>
  </g>
</svg>
