<svg xmlns="http://www.w3.org/2000/svg" width="178.102" height="54.98" viewBox="0 0 178.102 54.98">
  <g id="Grupo_2368" data-name="Grupo 2368" transform="translate(-703.559 -693.831)">
    <g id="Grupo_2367" data-name="Grupo 2367">
      <g id="Grupo_2366" data-name="Grupo 2366">
        <path id="Trazado_3726" data-name="Trazado 3726" d="M740.927,724.132a1.046,1.046,0,0,1-.254-.048c-.112-.032-.227-.07-.344-.115s-.229-.089-.334-.134a1.187,1.187,0,0,1-.211-.106.174.174,0,0,1-.018-.077.238.238,0,0,1-.017-.095.624.624,0,0,1,.193-.46,1.706,1.706,0,0,1,.449-.317,2.945,2.945,0,0,1,.5-.191,3.378,3.378,0,0,1,.389-.086h.387c.281.025.639.064,1.072.115s.895.106,1.383.162.978.116,1.476.173.952.115,1.356.173.744.1,1.021.134.436.048.483.048c.094.012.215.035.361.067a2.186,2.186,0,0,1,.449.153,2.442,2.442,0,0,1,.422.249.843.843,0,0,1,.282.355,3.845,3.845,0,0,1-.247.469.886.886,0,0,1-.228.25.452.452,0,0,1-.256.086h-.324q-.741,0-1.488-.058l-1.487-.115q-.738-.057-1.486-.116c-.5-.038-1-.056-1.506-.056a9.826,9.826,0,0,1-.078,1.034q-.08.69-.123,1.456a9.424,9.424,0,0,0,.035,1.523,2.994,2.994,0,0,0,.4,1.275,2.436,2.436,0,0,1,1.283-.422c.445-.013.9-.019,1.355-.019h.756a3.463,3.463,0,0,1,.889.115,1.751,1.751,0,0,1,.73.384,1.025,1.025,0,0,1,.3.8.967.967,0,0,1-.141.575c-.093.127-.31.192-.65.192a.936.936,0,0,1-.221-.058c-.111-.038-.228-.083-.351-.134s-.239-.1-.344-.134a.825.825,0,0,0-.211-.058l-.131-.009c-.076-.007-.168-.01-.273-.01s-.209,0-.309-.009-.178-.01-.236-.01a5.114,5.114,0,0,0-.783.058,1.772,1.772,0,0,0-.661.229,1.227,1.227,0,0,0-.449.5,1.852,1.852,0,0,0-.166.843q0,.172.035.594c.024.281.055.59.1.929s.1.687.168,1.044a5.755,5.755,0,0,0,.281.987,3.236,3.236,0,0,0,.4.748.647.647,0,0,0,.537.3c.023,0,.08-.006.176-.019a1.745,1.745,0,0,1,.175-.019q.6-.441,1.206-.958a15.5,15.5,0,0,1,1.257-.967,8.474,8.474,0,0,1,1.356-.767,3.52,3.52,0,0,1,1.461-.316v.939q0,.077-.344.421c-.229.23-.527.5-.9.8s-.784.632-1.241.977-.914.661-1.373.948a11.4,11.4,0,0,1-1.31.719,2.617,2.617,0,0,1-1.047.287,1.346,1.346,0,0,1-1.065-.584,5.858,5.858,0,0,1-.836-1.551,13.593,13.593,0,0,1-.615-2.233q-.246-1.266-.431-2.606t-.3-2.673q-.114-1.332-.186-2.462t-.1-1.964C740.954,724.735,740.938,724.349,740.927,724.132Z" fill="#0899d7"/>
        <path id="Trazado_3727" data-name="Trazado 3727" d="M752.241,728.481a8.166,8.166,0,0,0-.07-1.083,4.31,4.31,0,0,1-.035-.938,1.056,1.056,0,0,1,.273-.661,1.186,1.186,0,0,1,.871-.249,7.116,7.116,0,0,1,.377,1.341q.185.9.361,2.069t.334,2.539q.159,1.369.291,2.749t.229,2.712q.1,1.332.15,2.424c-.388.28-.7.3-.933.057a2.816,2.816,0,0,1-.58-1.236,13.787,13.787,0,0,1-.352-2.127q-.123-1.254-.238-2.6t-.274-2.663A20.206,20.206,0,0,0,752.241,728.481Z" fill="#0899d7"/>
        <path id="Trazado_3728" data-name="Trazado 3728" d="M763.661,737.065a3.781,3.781,0,0,1,.512-1.973,5.891,5.891,0,0,1,1.265-1.5,8.527,8.527,0,0,1,1.637-1.093c.586-.3,1.133-.549,1.637-.747s.926-.357,1.267-.479.51-.22.51-.3q0-.67-.062-1.313c-.041-.428-.084-.858-.131-1.293s-.092-.865-.133-1.293-.061-.853-.061-1.274v-1.246c.481-.192.825-.172,1.03.057a1.305,1.305,0,0,1,.095,1.189q.07.422.194,1.322t.273,2.03q.15,1.131.317,2.376t.316,2.386q.15,1.141.256,2.031t.158,1.332c.012.064.023.189.035.373s.02.384.028.594.009.406.017.585.008.307.008.383a4.547,4.547,0,0,1-.906-.058.378.378,0,0,1-.3-.229,1.548,1.548,0,0,1-.063-.5,3.313,3.313,0,0,0-.175-.9,10.43,10.43,0,0,1-1.231.919,6.523,6.523,0,0,1-1.162.585,5.579,5.579,0,0,1-1.17.307,8.617,8.617,0,0,1-1.258.086,5.356,5.356,0,0,1-1.082-.106,2.57,2.57,0,0,1-.924-.373,1.959,1.959,0,0,1-.652-.728A2.42,2.42,0,0,1,763.661,737.065Zm1.531-.4a.909.909,0,0,0,.123.5,1.195,1.195,0,0,0,.731.508,2.019,2.019,0,0,0,.431.048,3.9,3.9,0,0,0,1.329-.259,4.879,4.879,0,0,0,1.32-.729,4.088,4.088,0,0,0,1-1.12,2.688,2.688,0,0,0,.4-1.418,1.312,1.312,0,0,0-.193-.824.944.944,0,0,0-.74-.23,3.727,3.727,0,0,0-1.311.288,6.948,6.948,0,0,0-1.443.766,4.9,4.9,0,0,0-1.17,1.121A2.234,2.234,0,0,0,765.192,736.663Z" fill="#0899d7"/>
        <path id="Trazado_3729" data-name="Trazado 3729" d="M773.866,734a9.416,9.416,0,0,1,.231-2.069,6.064,6.064,0,0,1,.728-1.859,4.164,4.164,0,0,1,1.3-1.341,3.511,3.511,0,0,1,1.945-.517,2.415,2.415,0,0,1,1.143.259,2.574,2.574,0,0,1,.828.679,2.923,2.923,0,0,1,.5.988,4.146,4.146,0,0,1,.168,1.178,4.588,4.588,0,0,1-.414,1.9,5.449,5.449,0,0,1-1.108,1.619,4.627,4.627,0,0,1-1.593,1.054,3.157,3.157,0,0,1-1.831.163,1.284,1.284,0,0,0,.344.89,2.118,2.118,0,0,0,.783.508,3.687,3.687,0,0,0,.952.221q.492.048.878.048a3.549,3.549,0,0,0,.756-.077c.235-.051.471-.109.705-.172s.471-.121.713-.173a3.681,3.681,0,0,1,.766-.076,2.784,2.784,0,0,1,.316.018.982.982,0,0,1,.3.087.537.537,0,0,1,.229.21.68.68,0,0,1,.088.355.8.8,0,0,1-.247.6,2.164,2.164,0,0,1-.625.412,3.6,3.6,0,0,1-.835.259c-.3.058-.6.1-.889.135s-.551.051-.791.056-.42.01-.537.01a5.016,5.016,0,0,1-2.024-.392,4.273,4.273,0,0,1-1.513-1.092,4.778,4.778,0,0,1-.942-1.687A6.97,6.97,0,0,1,773.866,734Zm1.865-1.245a2.146,2.146,0,0,0,.168.977q.168.307.819.307a2.294,2.294,0,0,0,.9-.183,2.757,2.757,0,0,0,.8-.507,2.431,2.431,0,0,0,.572-.767,2.179,2.179,0,0,0,.211-.958,4.24,4.24,0,0,0-.043-.594,1.686,1.686,0,0,0-.185-.565,1.269,1.269,0,0,0-.362-.421.935.935,0,0,0-.57-.163,1.818,1.818,0,0,0-.959.259,2.424,2.424,0,0,0-.731.671,3.162,3.162,0,0,0-.457.919A3.379,3.379,0,0,0,775.731,732.754Z" fill="#0899d7"/>
        <path id="Trazado_3730" data-name="Trazado 3730" d="M794.454,738.5a1.262,1.262,0,0,1,.449-.757,5.011,5.011,0,0,1,.828-.546c.311-.166.635-.322.977-.47a9.065,9.065,0,0,0,.941-.468,2.646,2.646,0,0,0,.711-.585,1.223,1.223,0,0,0,.283-.815,1.688,1.688,0,0,0-.291-1.015,2.519,2.519,0,0,0-.775-.69,5.136,5.136,0,0,0-1.1-.478c-.41-.128-.83-.259-1.257-.394s-.848-.28-1.258-.44a4.547,4.547,0,0,1-1.1-.6,2.8,2.8,0,0,1-.773-.882,2.561,2.561,0,0,1-.291-1.283,3.027,3.027,0,0,1,.238-1.2,4.7,4.7,0,0,1,.633-1.073,5.7,5.7,0,0,1,.914-.93,6.045,6.045,0,0,1,1.092-.709,6.423,6.423,0,0,1,1.152-.45,3.973,3.973,0,0,1,1.074-.163h.194a4.041,4.041,0,0,1,.421.192l.51.258c.164.084.3.16.422.23a.714.714,0,0,1,.178.124v.442c-.225.025-.512.073-.863.143s-.721.163-1.11.278a10.635,10.635,0,0,0-1.178.431,5.568,5.568,0,0,0-1.074.6,3.1,3.1,0,0,0-.773.795,1.813,1.813,0,0,0-.3,1.025,1.642,1.642,0,0,0,.527,1.293,4.275,4.275,0,0,0,1.321.777,15.064,15.064,0,0,0,1.732.545,12.279,12.279,0,0,1,1.734.576,3.95,3.95,0,0,1,1.319.88,2.026,2.026,0,0,1,.529,1.466,2.35,2.35,0,0,1-.273,1.045,5.247,5.247,0,0,1-.723,1.072,8.593,8.593,0,0,1-1.012,1.006,8.434,8.434,0,0,1-1.152.834,7.729,7.729,0,0,1-1.152.576,2.808,2.808,0,0,1-1,.219,1.244,1.244,0,0,1-.3-.038.726.726,0,0,1-.274-.125.531.531,0,0,1-.175-.258A.685.685,0,0,1,794.454,738.5Z" fill="#0899d7"/>
        <path id="Trazado_3731" data-name="Trazado 3731" d="M808.778,736.854q-.668.5-1.152.891a7.374,7.374,0,0,1-.942.661,3.732,3.732,0,0,1-.976.4,5.207,5.207,0,0,1-1.276.134,2.985,2.985,0,0,1-2.429-.949,4.322,4.322,0,0,1-.791-2.826,6.9,6.9,0,0,1,.176-1.514,8.433,8.433,0,0,1,.519-1.561,9.435,9.435,0,0,1,.818-1.476,6.713,6.713,0,0,1,1.073-1.235,5.2,5.2,0,0,1,1.275-.853,3.355,3.355,0,0,1,1.436-.316,3.956,3.956,0,0,1,1.988.68,3.44,3.44,0,0,1,1.09,1.4,7.2,7.2,0,0,1,.511,1.9q.141,1.046.219,2.157t.2,2.222a7.521,7.521,0,0,0,.51,2.05,3.4,3.4,0,0,1-.432.891.294.294,0,0,1-.447.087,2.325,2.325,0,0,1-.572-.844Q809.254,738.082,808.778,736.854Zm-6.07-1.647a2.7,2.7,0,0,0,.377,1.6,1.579,1.579,0,0,0,1.347.507,3.506,3.506,0,0,0,1.381-.278,3.578,3.578,0,0,0,1.153-.766,3.742,3.742,0,0,0,.791-1.178,3.822,3.822,0,0,0,.3-1.533c0-.23,0-.552.018-.968a7.735,7.735,0,0,0-.07-1.236,3.179,3.179,0,0,0-.336-1.063.793.793,0,0,0-.738-.45,3.017,3.017,0,0,0-1.69.508,5.053,5.053,0,0,0-1.338,1.293,6.478,6.478,0,0,0-.879,1.734A5.767,5.767,0,0,0,802.708,735.207Z" fill="#0899d7"/>
        <path id="Trazado_3732" data-name="Trazado 3732" d="M812.139,732.869a.969.969,0,0,1,.229-.719,1.04,1.04,0,0,1,.738-.22h.178q.052.308.123.709a5.707,5.707,0,0,0,.211.824,4.768,4.768,0,0,0,.334.776,1.72,1.72,0,0,0,.475.566,3.228,3.228,0,0,1,.308-1.294,4.675,4.675,0,0,1,.721-1.112,4.56,4.56,0,0,1,.951-.824,3.233,3.233,0,0,1,1.029-.45h.387a2.489,2.489,0,0,1,1.443.412,3.429,3.429,0,0,1,.995,1.073,5.638,5.638,0,0,1,.607,1.5,15.119,15.119,0,0,1,.324,1.715q.114.873.141,1.687c.017.543.027,1.005.027,1.388h-1.285c-.07-.765-.158-1.5-.264-2.2q-.052-.422-.14-.89c-.059-.314-.123-.608-.194-.882s-.146-.531-.228-.767a2.927,2.927,0,0,0-.281-.6c-.049-.051-.11-.121-.186-.211s-.156-.179-.238-.268-.158-.166-.229-.23a.462.462,0,0,0-.123-.1.88.88,0,0,0-.914.221,3.364,3.364,0,0,0-.687,1.005,7,7,0,0,0-.483,1.437c-.125.537-.226,1.051-.308,1.543s-.141.92-.176,1.283-.059.585-.07.661a.835.835,0,0,1-.829.2,1.675,1.675,0,0,1-.73-.6,4.944,4.944,0,0,1-.615-1.149q-.273-.69-.5-1.466c-.153-.518-.289-1.038-.412-1.562S812.233,733.316,812.139,732.869Z" fill="#0899d7"/>
        <path id="Trazado_3733" data-name="Trazado 3733" d="M834.239,722.5c.07-.23.174-.364.309-.4a1.72,1.72,0,0,1,.466-.058,1.339,1.339,0,0,1,.907.585,8.969,8.969,0,0,1,1.029,1.561q.528.978,1.064,2.242t1.038,2.615q.5,1.352.941,2.692t.766,2.462q.324,1.122.5,1.946a6.552,6.552,0,0,1,.175,1.13,1.354,1.354,0,0,1-.13.584.474.474,0,0,1-.467.279.505.505,0,0,1-.362-.145,1.315,1.315,0,0,1-.254-.354c-.07-.14-.136-.281-.2-.421s-.111-.262-.158-.365c-.047-.14-.143-.409-.289-.8s-.3-.812-.457-1.245-.309-.844-.449-1.227-.241-.658-.3-.824q-1.233-.23-2.473-.431t-2.613-.393H833.1q-.633,2.97-1.118,4.694a20.057,20.057,0,0,1-.81,2.453q-.325.729-.51.6t-.246-.882a14.752,14.752,0,0,1,.018-2.022q.078-1.263.3-2.787t.537-3.19q.316-1.668.766-3.22a27.225,27.225,0,0,1,1-2.883A10.111,10.111,0,0,1,834.239,722.5Zm-.422,6.744a1.254,1.254,0,0,0,.422,1.045,2.165,2.165,0,0,0,1.022.431,6.676,6.676,0,0,0,1.257.077q.66-.02,1.135-.02a6.713,6.713,0,0,0-.228-1.657,14.653,14.653,0,0,0-.58-1.772q-.352-.881-.748-1.715t-.731-1.5a2.6,2.6,0,0,0-.414.775q-.219.566-.439,1.265t-.4,1.37q-.176.671-.264,1.093c0,.038-.005.136-.017.3S833.817,729.2,833.817,729.247Z" fill="#0899d7"/>
        <path id="Trazado_3734" data-name="Trazado 3734" d="M842.932,728.481a8.166,8.166,0,0,0-.07-1.083,4.372,4.372,0,0,1-.035-.938,1.055,1.055,0,0,1,.273-.661,1.19,1.19,0,0,1,.872-.249,7.209,7.209,0,0,1,.376,1.341q.186.9.362,2.069t.334,2.539q.157,1.369.291,2.749t.228,2.712q.1,1.332.151,2.424c-.389.28-.7.3-.934.057a2.826,2.826,0,0,1-.58-1.236,14.02,14.02,0,0,1-.352-2.127q-.123-1.254-.238-2.6t-.273-2.663A20.18,20.18,0,0,0,842.932,728.481Z" fill="#0899d7"/>
        <path id="Trazado_3735" data-name="Trazado 3735" d="M846.628,734a9.592,9.592,0,0,1,.228-2.069,6.092,6.092,0,0,1,.731-1.859,4.122,4.122,0,0,1,1.3-1.341,3.515,3.515,0,0,1,1.944-.517,2.422,2.422,0,0,1,1.144.259,2.56,2.56,0,0,1,.827.679,2.928,2.928,0,0,1,.5.988,4.148,4.148,0,0,1,.167,1.178,4.573,4.573,0,0,1-.414,1.9,5.434,5.434,0,0,1-1.109,1.619,4.613,4.613,0,0,1-1.592,1.054,3.154,3.154,0,0,1-1.83.163,1.275,1.275,0,0,0,.344.89,2.094,2.094,0,0,0,.783.508,3.693,3.693,0,0,0,.949.221q.492.048.879.048a3.555,3.555,0,0,0,.758-.077c.234-.051.469-.109.7-.172s.473-.121.713-.173a3.688,3.688,0,0,1,.766-.076,2.785,2.785,0,0,1,.316.018.983.983,0,0,1,.3.087.529.529,0,0,1,.228.21.67.67,0,0,1,.09.355.806.806,0,0,1-.248.6,2.152,2.152,0,0,1-.623.412,3.633,3.633,0,0,1-.836.259c-.306.058-.6.1-.888.135s-.553.051-.793.056-.42.01-.537.01a5.023,5.023,0,0,1-2.024-.392,4.269,4.269,0,0,1-1.512-1.092,4.76,4.76,0,0,1-.941-1.687A6.915,6.915,0,0,1,846.628,734Zm1.865-1.245a2.118,2.118,0,0,0,.168.977q.166.307.816.307a2.3,2.3,0,0,0,.9-.183,2.77,2.77,0,0,0,.8-.507,2.447,2.447,0,0,0,.572-.767,2.193,2.193,0,0,0,.211-.958,4.251,4.251,0,0,0-.045-.594,1.662,1.662,0,0,0-.184-.565,1.29,1.29,0,0,0-.361-.421.943.943,0,0,0-.572-.163,1.822,1.822,0,0,0-.959.259,2.437,2.437,0,0,0-.731.671,3.163,3.163,0,0,0-.457.919A3.44,3.44,0,0,0,848.493,732.754Z" fill="#0899d7"/>
        <path id="Trazado_3736" data-name="Trazado 3736" d="M852.276,745.362a1.623,1.623,0,0,1,.932.287q.422.288.889.623a8.682,8.682,0,0,0,1.011.623,2.692,2.692,0,0,0,1.268.288,4.963,4.963,0,0,0,1.408-.2,3.753,3.753,0,0,0,1.23-.612,3.035,3.035,0,0,0,.881-1.073,3.423,3.423,0,0,0,.334-1.562,23.019,23.019,0,0,0-.22-3.1q-.22-1.609-.563-3.209t-.738-3.114q-.4-1.514-.731-2.8a.557.557,0,0,0-.017-.1.6.6,0,0,1-.018-.1.559.559,0,0,1,.246-.527,1.028,1.028,0,0,1,.528-.144,1.888,1.888,0,0,1,.211.019,1.569,1.569,0,0,0,.175.02q.546,1.494,1.03,3.056t.853,3.171q.369,1.609.582,3.229a24.736,24.736,0,0,1,.211,3.209,6.2,6.2,0,0,1-.4,2.261,4.985,4.985,0,0,1-1.1,1.724,4.815,4.815,0,0,1-1.68,1.093,5.772,5.772,0,0,1-2.121.383,6.355,6.355,0,0,1-1.5-.182,4.229,4.229,0,0,1-1.355-.585,3.015,3.015,0,0,1-.977-1.064A3.275,3.275,0,0,1,852.276,745.362Zm4.135-19.391v-.23a1.894,1.894,0,0,1,.035-.354.9.9,0,0,1,.123-.317.3.3,0,0,1,.264-.133.984.984,0,0,1,.457.085.58.58,0,0,1,.23.211.829.829,0,0,1,.088.307c.01.121.018.259.018.412,0,.1-.008.217-.018.345a1.91,1.91,0,0,1-.07.364.6.6,0,0,1-.178.277.579.579,0,0,1-.668,0,.656.656,0,0,1-.185-.258,1.2,1.2,0,0,1-.078-.345C856.417,726.208,856.411,726.086,856.411,725.971Z" fill="#0899d7"/>
        <path id="Trazado_3737" data-name="Trazado 3737" d="M861.743,735.437a4.9,4.9,0,0,1,.51-2.213,5.73,5.73,0,0,1,1.345-1.763,6.49,6.49,0,0,1,1.883-1.159,5.652,5.652,0,0,1,2.121-.422,1.544,1.544,0,0,1,1.065.422,3.653,3.653,0,0,1,.783,1.024,5.686,5.686,0,0,1,.484,1.275,4.89,4.89,0,0,1,.166,1.169,4.827,4.827,0,0,1-.474,2.079,6.5,6.5,0,0,1-1.233,1.782,6.421,6.421,0,0,1-1.705,1.255,4.193,4.193,0,0,1-1.9.478,2.942,2.942,0,0,1-1.426-.316,2.573,2.573,0,0,1-.933-.843,3.736,3.736,0,0,1-.518-1.245A6.624,6.624,0,0,1,861.743,735.437Zm1.5.191a4.235,4.235,0,0,0,.078.872,1.617,1.617,0,0,0,.281.642,1.3,1.3,0,0,0,.538.412,2.109,2.109,0,0,0,.828.143,2.5,2.5,0,0,0,1.3-.392,4.82,4.82,0,0,0,1.17-1,5.2,5.2,0,0,0,.836-1.332,3.551,3.551,0,0,0,.319-1.418,4.734,4.734,0,0,0-.053-.671,3.013,3.013,0,0,0-.178-.67,1.416,1.416,0,0,0-.351-.518.826.826,0,0,0-.58-.211,1.641,1.641,0,0,0-.748.231,6.179,6.179,0,0,0-.9.593,9.114,9.114,0,0,0-.916.824q-.449.459-.818.92a5.414,5.414,0,0,0-.59.881A1.589,1.589,0,0,0,863.239,735.628Z" fill="#0899d7"/>
        <path id="Trazado_3738" data-name="Trazado 3738" d="M872.882,737.774q.79,0,.791.9a1.343,1.343,0,0,1-.492.737.8.8,0,0,1-.555.135.806.806,0,0,1-.457-.278.849.849,0,0,1-.221-.518.836.836,0,0,1,.193-.564A1.29,1.29,0,0,1,872.882,737.774Z" fill="#0899d7"/>
        <path id="Trazado_3739" data-name="Trazado 3739" d="M876.876,737.774q.791,0,.791.9a1.343,1.343,0,0,1-.492.737.794.794,0,0,1-.555.135.805.805,0,0,1-.457-.278.81.81,0,0,1-.025-1.082A1.284,1.284,0,0,1,876.876,737.774Z" fill="#0899d7"/>
        <path id="Trazado_3740" data-name="Trazado 3740" d="M880.87,737.774q.79,0,.791.9a1.344,1.344,0,0,1-.492.737.793.793,0,0,1-.555.135.806.806,0,0,1-.457-.278.81.81,0,0,1-.025-1.082A1.284,1.284,0,0,1,880.87,737.774Z" fill="#0899d7"/>
      </g>
    </g>
    <path id="Trazado_3741" data-name="Trazado 3741" d="M709.2,695.39A23.555,23.555,0,0,0,729.342,732a.542.542,0,0,1,.03,1.083,25.1,25.1,0,0,1-21.842-38.795,1,1,0,1,1,1.681,1.084Z" fill="#0899d7"/>
  </g>
</svg>
