<svg xmlns="http://www.w3.org/2000/svg" width="246.316" height="30.232" viewBox="0 0 246.316 30.232">
  <g id="Grupo_2197" data-name="Grupo 2197" transform="translate(-319.611 -3939.29)">
    <g id="Grupo_2196" data-name="Grupo 2196">
      <path id="Trazado_2703" data-name="Trazado 2703" d="M324.072,3953.443a.54.54,0,0,0-.05-.139.255.255,0,0,1-.027-.112l-.218-.154a3.686,3.686,0,0,0-.32-.2,2.6,2.6,0,0,0-.333-.154.779.779,0,0,0-.2-.055,1.24,1.24,0,0,0-.32.084l-.527.18c-.187.066-.358.131-.512.2a1.176,1.176,0,0,1-.282.1,2.573,2.573,0,0,0-.282.041,2.037,2.037,0,0,1-.359.042,1.278,1.278,0,0,1-.692-.209.8.8,0,0,1-.334-.74,2.01,2.01,0,0,1,.4-1.284,2.9,2.9,0,0,1,.974-.795,4.625,4.625,0,0,1,1.256-.419c.453-.084.859-.143,1.218-.182q-.1-.222-.346-.725t-.512-1.089q-.27-.587-.5-1.1c-.155-.343-.257-.581-.308-.711,0-.038,0-.122-.013-.251s-.013-.243-.013-.335c0-.075,0-.182.013-.322a1.827,1.827,0,0,1,.064-.39.877.877,0,0,1,.167-.322.425.425,0,0,1,.346-.139.532.532,0,0,1,.217.07c.094.046.205.1.334.167s.244.126.346.182a.522.522,0,0,1,.2.167,5.573,5.573,0,0,1,.475.67q.319.5.666,1.075t.641,1.089c.2.344.337.591.423.739q.486-.642.961-1.2a7.563,7.563,0,0,1,1.013-.991,4.232,4.232,0,0,1,1.166-.67,4.011,4.011,0,0,1,1.423-.238,2.343,2.343,0,0,1-.294,1.2,10.3,10.3,0,0,1-.642.962,11.117,11.117,0,0,0-.64.95,2.3,2.3,0,0,0-.295,1.213c0,.056.008.159.025.308s.026.233.026.251c.273.019.628.027,1.064.027a5.518,5.518,0,0,1,1.3.155,2.7,2.7,0,0,1,1.089.516,1.355,1.355,0,0,1,.449,1.117,1.234,1.234,0,0,1-.27.92,1.068,1.068,0,0,1-.678.28,3.818,3.818,0,0,1-.9-.056,6.809,6.809,0,0,0-.923-.1,1.686,1.686,0,0,0-.744.126.765.765,0,0,0-.384.642c.034.074.094.237.179.488s.2.545.334.88.277.712.423,1.131.273.813.385,1.186.2.708.268,1a2.274,2.274,0,0,1,.077.7.766.766,0,0,1-.128.2,3.827,3.827,0,0,1-.32.363q-.193.195-.372.364a2.537,2.537,0,0,1-.308.251.887.887,0,0,0-.127.055.4.4,0,0,1-.129.029,1.1,1.1,0,0,1-.974-.573,5.774,5.774,0,0,1-.6-1.368q-.244-.8-.449-1.619a6.315,6.315,0,0,0-.461-1.326,7.307,7.307,0,0,0-.769,1.926,14.3,14.3,0,0,1-.538,1.787,3.145,3.145,0,0,1-.9,1.311,2.8,2.8,0,0,1-1.845.5,9.278,9.278,0,0,1,.192-1.9,16.451,16.451,0,0,1,.487-1.815q.294-.892.6-1.786t.563-1.787a.323.323,0,0,1,.027-.14A.984.984,0,0,0,324.072,3953.443Z" fill="#ff3b67"/>
      <path id="Trazado_2704" data-name="Trazado 2704" d="M333.327,3943.282a.724.724,0,0,1,.346-.726,1.707,1.707,0,0,1,.757-.167,2.924,2.924,0,0,1,.294.027,2.626,2.626,0,0,0,.269.028q.078.865.155,2.08t.178,2.624q.1,1.41.257,2.917t.436,2.946a25.165,25.165,0,0,0,.692,2.735,9.832,9.832,0,0,0,1,2.247,1.688,1.688,0,0,0,.243.377,1.021,1.021,0,0,0,.231.195.6.6,0,0,0,.269.084c.1.01.231.014.385.014a5.3,5.3,0,0,0,2.013-.391q.96-.389,1.909-.865t1.923-.865a5.445,5.445,0,0,1,2.05-.391c.155,0,.351,0,.59-.014a3.106,3.106,0,0,1,.667.042,1.031,1.031,0,0,1,.538.279.889.889,0,0,1,.231.67q0,.419-.693.907a10.752,10.752,0,0,1-1.768.978q-1.077.487-2.346.963t-2.435.837q-1.167.363-2.064.573a6.815,6.815,0,0,1-1.179.209,2.266,2.266,0,0,1-1.628-.684,5.976,5.976,0,0,1-1.231-1.843,14.793,14.793,0,0,1-.884-2.652q-.36-1.493-.59-3.112t-.359-3.21q-.129-1.593-.179-2.96t-.064-2.4Q333.326,3943.7,333.327,3943.282Z" fill="#ff3b67"/>
      <path id="Trazado_2705" data-name="Trazado 2705" d="M360.784,3957.993q-.975.728-1.679,1.3a11.307,11.307,0,0,1-1.372.963,5.515,5.515,0,0,1-1.422.586,7.533,7.533,0,0,1-1.86.195,4.344,4.344,0,0,1-3.537-1.382,6.3,6.3,0,0,1-1.154-4.117,10.08,10.08,0,0,1,.257-2.205,12.244,12.244,0,0,1,.756-2.275,13.573,13.573,0,0,1,1.192-2.15,9.829,9.829,0,0,1,1.563-1.8,7.617,7.617,0,0,1,1.86-1.242,4.873,4.873,0,0,1,2.089-.461,5.734,5.734,0,0,1,2.9.992,4.987,4.987,0,0,1,1.59,2.038,10.424,10.424,0,0,1,.743,2.763q.205,1.522.321,3.141t.294,3.238a11.022,11.022,0,0,0,.745,2.987,5.068,5.068,0,0,1-.628,1.3.432.432,0,0,1-.655.125,3.4,3.4,0,0,1-.833-1.228Q361.476,3959.78,360.784,3957.993Zm-8.844-2.4a3.934,3.934,0,0,0,.55,2.331,2.3,2.3,0,0,0,1.961.739,5.15,5.15,0,0,0,2.013-.4,5.3,5.3,0,0,0,1.68-1.116,5.461,5.461,0,0,0,1.153-1.718,5.564,5.564,0,0,0,.436-2.233c0-.335.008-.8.025-1.41a10.522,10.522,0,0,0-.1-1.8,4.55,4.55,0,0,0-.486-1.548,1.159,1.159,0,0,0-1.077-.657,4.4,4.4,0,0,0-2.461.74,7.364,7.364,0,0,0-1.948,1.884,9.449,9.449,0,0,0-1.283,2.527A8.416,8.416,0,0,0,351.94,3955.593Z" fill="#ff3b67"/>
      <path id="Trazado_2706" data-name="Trazado 2706" d="M377.5,3949.87a5.063,5.063,0,0,1,.026-.516,1.879,1.879,0,0,1,.1-.475.815.815,0,0,1,.243-.349.729.729,0,0,1,.475-.139q.256,0,.577.432a7.732,7.732,0,0,1,.653,1.089q.333.657.655,1.438c.212.521.4,1,.563,1.437s.3.815.4,1.131a3.829,3.829,0,0,0,.179.5q.333-.975.743-2.121a11.774,11.774,0,0,1,1.013-2.136,6.308,6.308,0,0,1,1.436-1.661,3.15,3.15,0,0,1,2.038-.67,3.277,3.277,0,0,1,1.167.209,2.883,2.883,0,0,1,.973.614,3.127,3.127,0,0,1,.68.964,3.044,3.044,0,0,1,.256,1.284.911.911,0,0,1-.448.866,2.043,2.043,0,0,1-1.013.251h-.257l-1.1-1.2a.1.1,0,0,1-.078-.028.241.241,0,0,1-.089-.014.3.3,0,0,0-.09-.013,1.8,1.8,0,0,0-1.4.544,3.567,3.567,0,0,0-.756,1.339,7.1,7.1,0,0,0-.32,1.675q-.064.88-.064,1.606a6.446,6.446,0,0,0,.1,1.131c.069.381.146.754.231,1.116s.163.735.231,1.117a6.847,6.847,0,0,1,.1,1.187,1.028,1.028,0,0,1-1.155,1.171,1.918,1.918,0,0,1-1.333-.739,10.836,10.836,0,0,1-1.371-1.885,24.235,24.235,0,0,1-1.295-2.526q-.615-1.381-1.076-2.694t-.731-2.372A7.168,7.168,0,0,1,377.5,3949.87Z" fill="#ff3b67"/>
      <path id="Trazado_2707" data-name="Trazado 2707" d="M390.6,3950.205c0-.111,0-.311.012-.6s.014-.589.014-.907,0-.609.013-.879.012-.461.012-.572a4.878,4.878,0,0,1,.423-.656,1.4,1.4,0,0,1,.513-.446.846.846,0,0,1,.59-.042,1.282,1.282,0,0,1,.653.557v.587c-.016.093-.051.312-.1.656s-.112.721-.18,1.13-.132.787-.191,1.131a5.137,5.137,0,0,0-.09.656,10.791,10.791,0,0,0,.1,1.327q.1.8.295,1.66a16.242,16.242,0,0,0,.487,1.731,7.954,7.954,0,0,0,.705,1.549,4.817,4.817,0,0,0,.91,1.131,1.693,1.693,0,0,0,1.167.446,2.332,2.332,0,0,0,1.448-.474,4.387,4.387,0,0,0,1.09-1.228,7.569,7.569,0,0,0,.756-1.7,17.11,17.11,0,0,0,.474-1.912q.178-.965.256-1.857c.052-.595.077-1.117.077-1.563a8.582,8.582,0,0,0-.09-1.271q-.088-.6-.217-1.186t-.218-1.158a7.326,7.326,0,0,1-.09-1.159.83.83,0,0,1,.346-.754,1.418,1.418,0,0,1,.782-.223,1.156,1.156,0,0,1,.872.349,2.481,2.481,0,0,1,.525.879,4.939,4.939,0,0,1,.256,1.215q.064.684.065,1.354c0,.446-.009.87-.026,1.27s-.026.721-.026.963a20.55,20.55,0,0,1-.128,2.149,17.992,17.992,0,0,1-.448,2.471,21.822,21.822,0,0,1-.795,2.5,10.085,10.085,0,0,1-1.153,2.192,5.926,5.926,0,0,1-1.565,1.549,3.693,3.693,0,0,1-4.012-.013,5.138,5.138,0,0,1-1.474-1.592,10.687,10.687,0,0,1-1.013-2.247A18.166,18.166,0,0,1,391,3954.7q-.217-1.255-.307-2.442T390.6,3950.205Z" fill="#ff3b67"/>
      <path id="Trazado_2708" data-name="Trazado 2708" d="M403.212,3947.525a.349.349,0,0,1,.025-.139.513.513,0,0,1,.027-.14,4.256,4.256,0,0,1,.307-.363c.137-.149.222-.224.256-.224h5.154a9.478,9.478,0,0,0-.078-.976c-.05-.447-.1-.94-.14-1.48a15.582,15.582,0,0,1-.039-1.689,6.875,6.875,0,0,1,.218-1.591,2.759,2.759,0,0,1,.616-1.173,1.533,1.533,0,0,1,1.191-.46,22.748,22.748,0,0,0,.359,4.523,7.853,7.853,0,0,0,.961,2.624,2.86,2.86,0,0,0,1.373,1.2,3.968,3.968,0,0,0,1.576.237,6.87,6.87,0,0,0,1.577-.266,9.872,9.872,0,0,1,1.371-.306,1.485,1.485,0,0,1,.962.126q.357.208.358.99a1.183,1.183,0,0,1-.243.838,1.84,1.84,0,0,1-.936.39l-.679.1c-.317.047-.671.089-1.065.126s-.811.079-1.255.125-.864.089-1.256.126-.753.061-1.077.07-.564.014-.718.014c0,.093-.009.251-.026.475s-.025.372-.025.446a8.025,8.025,0,0,0,.358,2.387q.36,1.158.783,2.3t.781,2.289a7.894,7.894,0,0,1,.359,2.374,2.813,2.813,0,0,1-.038.459,1.1,1.1,0,0,1-.154.419.749.749,0,0,1-.333.28.828.828,0,0,1-.6-.042,2.274,2.274,0,0,1-1.448-1.2,7.83,7.83,0,0,1-.7-2.192,21.513,21.513,0,0,1-.308-2.694q-.076-1.423-.244-2.666a8.733,8.733,0,0,0-.525-2.121,1.657,1.657,0,0,0-1.154-1.076l-4.948-1.228c-.068,0-.171-.078-.307-.237a1.785,1.785,0,0,1-.256-.349.336.336,0,0,1-.027-.14A.435.435,0,0,1,403.212,3947.525Z" fill="#ff3b67"/>
      <path id="Trazado_2709" data-name="Trazado 2709" d="M431.284,3957.993q-.975.728-1.679,1.3a11.307,11.307,0,0,1-1.372.963,5.515,5.515,0,0,1-1.422.586,7.533,7.533,0,0,1-1.86.195,4.344,4.344,0,0,1-3.537-1.382,6.3,6.3,0,0,1-1.154-4.117,10.08,10.08,0,0,1,.257-2.205,12.244,12.244,0,0,1,.756-2.275,13.573,13.573,0,0,1,1.192-2.15,9.829,9.829,0,0,1,1.563-1.8,7.617,7.617,0,0,1,1.86-1.242,4.873,4.873,0,0,1,2.089-.461,5.734,5.734,0,0,1,2.9.992,4.987,4.987,0,0,1,1.59,2.038,10.424,10.424,0,0,1,.743,2.763q.205,1.522.321,3.141t.294,3.238a11.022,11.022,0,0,0,.745,2.987,5.068,5.068,0,0,1-.628,1.3.432.432,0,0,1-.655.125,3.4,3.4,0,0,1-.833-1.228Q431.976,3959.78,431.284,3957.993Zm-8.844-2.4a3.934,3.934,0,0,0,.55,2.331,2.3,2.3,0,0,0,1.961.739,5.15,5.15,0,0,0,2.013-.4,5.3,5.3,0,0,0,1.68-1.116,5.461,5.461,0,0,0,1.153-1.718,5.564,5.564,0,0,0,.436-2.233c0-.335.008-.8.025-1.41a10.522,10.522,0,0,0-.1-1.8,4.55,4.55,0,0,0-.486-1.548,1.159,1.159,0,0,0-1.077-.657,4.4,4.4,0,0,0-2.461.74,7.364,7.364,0,0,0-1.948,1.884,9.449,9.449,0,0,0-1.283,2.527A8.416,8.416,0,0,0,422.44,3955.593Z" fill="#ff3b67"/>
      <path id="Trazado_2710" data-name="Trazado 2710" d="M452.921,3960.339q.41-.308.987-.8t1.166-1.047a13.561,13.561,0,0,0,1.1-1.173,6.5,6.5,0,0,0,.807-1.186,2.352,2.352,0,0,0,.295-1.074,1,1,0,0,0-.462-.838q-.819,0-1.793.07c-.651.047-1.3.065-1.949.056a11.3,11.3,0,0,1-1.884-.182,4.611,4.611,0,0,1-1.628-.614,3.141,3.141,0,0,1-1.141-1.27,4.6,4.6,0,0,1-.423-2.108,6.777,6.777,0,0,1,.526-2.722,7.449,7.449,0,0,1,1.4-2.149,10.572,10.572,0,0,1,1.961-1.648,16.811,16.811,0,0,1,2.191-1.214,3.207,3.207,0,0,1,1.232.7,5.845,5.845,0,0,1,.973,1.116,1.631,1.631,0,0,1-.7.949,6.23,6.23,0,0,1-1.205.586l-1.423.53a5.282,5.282,0,0,0-1.345.74,3.794,3.794,0,0,0-1.013,1.2,4,4,0,0,0-.41,1.94,1.816,1.816,0,0,0,.41,1.312,2.134,2.134,0,0,0,1.077.572,5.551,5.551,0,0,0,1.513.112q.844-.042,1.73-.126t1.731-.1a4.285,4.285,0,0,1,1.511.223,2.228,2.228,0,0,1,1.065.768,2.583,2.583,0,0,1,.4,1.563,3.334,3.334,0,0,1-.269,1.145,11.549,11.549,0,0,1-.718,1.493,13.132,13.132,0,0,1-1.051,1.577,12.572,12.572,0,0,1-1.257,1.41,7.919,7.919,0,0,1-1.306,1.033,2.349,2.349,0,0,1-1.218.405.677.677,0,0,1-.7-.419A2.258,2.258,0,0,1,452.921,3960.339Z" fill="#ff3b67"/>
      <path id="Trazado_2711" data-name="Trazado 2711" d="M462.073,3940.657a1.981,1.981,0,0,1,.821.727,1.442,1.442,0,0,1,.295.907c-.026.27-.218.456-.578.558a3.276,3.276,0,0,1-1.794-.321,2.984,2.984,0,0,1,.269-1.312A1,1,0,0,1,462.073,3940.657Zm-.359,10.469c0-.111,0-.293.013-.544s.017-.517.026-.8.017-.549.025-.809.013-.447.013-.559a2.3,2.3,0,0,1,.731-.726,4.844,4.844,0,0,1,.91-.446,20.607,20.607,0,0,0,.436,3.21q.358,1.7.769,3.42t.73,3.392a16.673,16.673,0,0,1,.321,3.127q0,1.254-1.179,1.255a1.461,1.461,0,0,1-1.205-.641,5.063,5.063,0,0,1-.782-1.634,15.749,15.749,0,0,1-.474-2.205q-.18-1.215-.244-2.387t-.077-2.149Q461.713,3951.656,461.714,3951.126Z" fill="#ff3b67"/>
      <path id="Trazado_2712" data-name="Trazado 2712" d="M466.688,3952.188a1.4,1.4,0,0,1,.334-1.047,1.509,1.509,0,0,1,1.076-.322h.257q.075.447.178,1.033a8.356,8.356,0,0,0,.308,1.2,6.969,6.969,0,0,0,.487,1.13,2.527,2.527,0,0,0,.693.824,4.711,4.711,0,0,1,.448-1.885,6.747,6.747,0,0,1,1.052-1.619,6.649,6.649,0,0,1,1.383-1.2,4.71,4.71,0,0,1,1.5-.657h.565a3.613,3.613,0,0,1,2.1.6,4.948,4.948,0,0,1,1.449,1.564A8.035,8.035,0,0,1,479.4,3954a22.074,22.074,0,0,1,.475,2.5c.11.847.18,1.666.205,2.457s.038,1.465.038,2.023H478.25q-.153-1.674-.385-3.209c-.05-.41-.12-.842-.2-1.3s-.179-.883-.282-1.284-.214-.772-.333-1.117a4.325,4.325,0,0,0-.41-.879c-.068-.074-.158-.176-.27-.307s-.226-.261-.345-.391-.231-.241-.333-.335a.684.684,0,0,0-.18-.139,1.282,1.282,0,0,0-1.333.321,4.935,4.935,0,0,0-1,1.465,10.269,10.269,0,0,0-.705,2.093q-.27,1.174-.448,2.248c-.121.716-.2,1.34-.257,1.871s-.086.851-.1.962a1.216,1.216,0,0,1-1.205.293,2.43,2.43,0,0,1-1.063-.878,7.308,7.308,0,0,1-.9-1.675q-.4-1-.73-2.136t-.6-2.275Q466.894,3953.164,466.688,3952.188Z" fill="#ff3b67"/>
      <path id="Trazado_2713" data-name="Trazado 2713" d="M493.35,3951.294a5.962,5.962,0,0,1,1.153-4.021,4.47,4.47,0,0,1,3.538-1.311,10.915,10.915,0,0,1,2.013.2,6.257,6.257,0,0,1,1.909.684,3.964,3.964,0,0,1,1.423,1.354,4.1,4.1,0,0,1,.552,2.234,6.777,6.777,0,0,1-.6,2.833,12.1,12.1,0,0,1-1.513,2.484,17.455,17.455,0,0,1-2,2.15q-1.089.991-2.038,1.884a1.869,1.869,0,0,0-.09.461c-.025.233-.038.386-.038.46a3.92,3.92,0,0,0,.5,1.857q.5.934,1.09,1.9a20.9,20.9,0,0,1,1.076,2,4.982,4.982,0,0,1,.488,2.15c0,.446-.086.711-.256.795a2.926,2.926,0,0,1-1.077.125,2.486,2.486,0,0,1-1.013-1.046,15.224,15.224,0,0,1-1-2.024q-.5-1.2-.974-2.694t-.9-3.042q-.423-1.549-.795-3.071t-.653-2.806q-.283-1.284-.5-2.219T493.35,3951.294Zm2.178.251q0,.419.052,1.215a10.936,10.936,0,0,0,.218,1.577,4.506,4.506,0,0,0,.5,1.353,1.024,1.024,0,0,0,.923.573,2.732,2.732,0,0,0,1.6-.586,6.255,6.255,0,0,0,1.436-1.48,9.016,9.016,0,0,0,1.025-1.912,5.166,5.166,0,0,0,.4-1.856,1.787,1.787,0,0,0-.308-1.1,2.209,2.209,0,0,0-.782-.641,3.126,3.126,0,0,0-1.013-.307,7.931,7.931,0,0,0-1.025-.07,2.893,2.893,0,0,0-2.243.851A3.4,3.4,0,0,0,495.528,3951.545Z" fill="#ff3b67"/>
      <path id="Trazado_2714" data-name="Trazado 2714" d="M506.886,3940.657a1.985,1.985,0,0,1,.82.727,1.436,1.436,0,0,1,.3.907c-.025.27-.218.456-.577.558a3.276,3.276,0,0,1-1.794-.321,2.984,2.984,0,0,1,.269-1.312A1,1,0,0,1,506.886,3940.657Zm-.36,10.469c0-.111,0-.293.013-.544s.018-.517.027-.8.016-.549.025-.809.013-.447.013-.559a2.282,2.282,0,0,1,.73-.726,4.9,4.9,0,0,1,.91-.446,20.74,20.74,0,0,0,.437,3.21q.357,1.7.768,3.42t.731,3.392a16.665,16.665,0,0,1,.32,3.127q0,1.254-1.179,1.255a1.463,1.463,0,0,1-1.205-.641,5.063,5.063,0,0,1-.782-1.634,16.041,16.041,0,0,1-.474-2.205q-.18-1.215-.244-2.387t-.077-2.149Q506.525,3951.656,506.526,3951.126Z" fill="#ff3b67"/>
      <path id="Trazado_2715" data-name="Trazado 2715" d="M511.5,3953.834a13.877,13.877,0,0,1,.334-3.015,8.812,8.812,0,0,1,1.064-2.708,6.025,6.025,0,0,1,1.9-1.954,5.1,5.1,0,0,1,2.832-.754,3.536,3.536,0,0,1,1.667.377,3.732,3.732,0,0,1,1.205.991,4.235,4.235,0,0,1,.731,1.438,6.033,6.033,0,0,1,.243,1.717,6.663,6.663,0,0,1-.6,2.763,7.9,7.9,0,0,1-1.615,2.36,6.739,6.739,0,0,1-2.319,1.535,4.584,4.584,0,0,1-2.667.237,1.868,1.868,0,0,0,.5,1.3,3.076,3.076,0,0,0,1.141.74,5.379,5.379,0,0,0,1.384.321q.719.071,1.282.07a5.157,5.157,0,0,0,1.1-.112q.512-.112,1.025-.251t1.038-.251a5.387,5.387,0,0,1,1.116-.112,3.729,3.729,0,0,1,.46.028,1.37,1.37,0,0,1,.437.126.788.788,0,0,1,.333.306.982.982,0,0,1,.128.517,1.184,1.184,0,0,1-.358.88,3.21,3.21,0,0,1-.911.6,5.283,5.283,0,0,1-1.217.377c-.446.084-.876.15-1.295.2s-.8.074-1.154.084-.611.013-.782.013a7.271,7.271,0,0,1-2.948-.572,6.191,6.191,0,0,1-2.205-1.591,6.961,6.961,0,0,1-1.371-2.457A10.132,10.132,0,0,1,511.5,3953.834Zm2.718-1.814a3.124,3.124,0,0,0,.243,1.423q.243.447,1.192.447a3.389,3.389,0,0,0,1.308-.265,4.053,4.053,0,0,0,1.166-.74,3.572,3.572,0,0,0,.834-1.116,3.193,3.193,0,0,0,.308-1.4,6.215,6.215,0,0,0-.065-.865,2.451,2.451,0,0,0-.269-.823,1.867,1.867,0,0,0-.526-.615,1.365,1.365,0,0,0-.833-.237,2.668,2.668,0,0,0-1.4.377,3.557,3.557,0,0,0-1.064.978,4.6,4.6,0,0,0-.667,1.339A5.021,5.021,0,0,0,514.218,3952.02Z" fill="#ff3b67"/>
      <path id="Trazado_2716" data-name="Trazado 2716" d="M525.806,3949.87c0-.168.008-.34.025-.516a1.924,1.924,0,0,1,.1-.475.806.806,0,0,1,.243-.349.724.724,0,0,1,.474-.139q.257,0,.578.432a7.832,7.832,0,0,1,.653,1.089q.333.657.654,1.438t.564,1.437q.243.657.4,1.131a3.728,3.728,0,0,0,.18.5q.333-.975.743-2.121a11.645,11.645,0,0,1,1.013-2.136,6.323,6.323,0,0,1,1.435-1.661,3.154,3.154,0,0,1,2.038-.67,3.273,3.273,0,0,1,1.167.209,2.878,2.878,0,0,1,.974.614,3.144,3.144,0,0,1,.68.964,3.044,3.044,0,0,1,.256,1.284.91.91,0,0,1-.449.866,2.039,2.039,0,0,1-1.012.251h-.257l-1.1-1.2a.1.1,0,0,1-.077-.028.25.25,0,0,1-.09-.014.293.293,0,0,0-.09-.013,1.8,1.8,0,0,0-1.4.544,3.568,3.568,0,0,0-.756,1.339,7.1,7.1,0,0,0-.32,1.675q-.064.88-.065,1.606a6.351,6.351,0,0,0,.1,1.131c.068.381.145.754.23,1.116s.163.735.232,1.117a6.845,6.845,0,0,1,.1,1.187,1.027,1.027,0,0,1-1.154,1.171,1.916,1.916,0,0,1-1.333-.739,10.837,10.837,0,0,1-1.371-1.885,24.235,24.235,0,0,1-1.295-2.526q-.615-1.381-1.076-2.694t-.732-2.372A7.214,7.214,0,0,1,525.806,3949.87Z" fill="#ff3b67"/>
      <path id="Trazado_2717" data-name="Trazado 2717" d="M538.342,3958.3a5.538,5.538,0,0,1,.743-2.876,8.572,8.572,0,0,1,1.846-2.192,12.363,12.363,0,0,1,2.385-1.59q1.28-.656,2.383-1.089t1.846-.7c.5-.176.743-.321.743-.433q0-.977-.089-1.912t-.192-1.884q-.1-.95-.192-1.885t-.09-1.856v-1.815q1.05-.419,1.5.084a1.9,1.9,0,0,1,.14,1.731c.069.41.162,1.052.283,1.927s.252,1.861.4,2.958.3,2.252.461,3.461.316,2.37.462,3.476.268,2.094.371,2.96.18,1.512.231,1.939c.017.094.034.276.051.545s.029.558.039.866.017.59.026.851.012.446.012.558a6.808,6.808,0,0,1-1.32-.083.558.558,0,0,1-.436-.335,2.266,2.266,0,0,1-.089-.727,4.825,4.825,0,0,0-.257-1.311,15.487,15.487,0,0,1-1.794,1.34,9.66,9.66,0,0,1-1.693.851,8.057,8.057,0,0,1-1.705.446,12.63,12.63,0,0,1-1.833.126,7.93,7.93,0,0,1-1.576-.153,3.729,3.729,0,0,1-1.345-.545,2.87,2.87,0,0,1-.95-1.06A3.523,3.523,0,0,1,538.342,3958.3Zm2.23-.586a1.322,1.322,0,0,0,.179.725,1.685,1.685,0,0,0,.462.475,1.664,1.664,0,0,0,.6.265,2.889,2.889,0,0,0,.627.07,5.7,5.7,0,0,0,1.936-.377,7.067,7.067,0,0,0,1.923-1.06,5.979,5.979,0,0,0,1.461-1.634,3.9,3.9,0,0,0,.577-2.066,1.906,1.906,0,0,0-.282-1.2,1.366,1.366,0,0,0-1.076-.335,5.462,5.462,0,0,0-1.911.418,10.056,10.056,0,0,0-2.1,1.117,7.175,7.175,0,0,0-1.705,1.633A3.263,3.263,0,0,0,540.572,3957.715Z" fill="#ff3b67"/>
      <path id="Trazado_2718" data-name="Trazado 2718" d="M553.211,3953.834a13.876,13.876,0,0,1,.333-3.015,8.838,8.838,0,0,1,1.064-2.708,6.035,6.035,0,0,1,1.9-1.954,5.1,5.1,0,0,1,2.833-.754,3.538,3.538,0,0,1,1.666.377,3.732,3.732,0,0,1,1.2.991,4.235,4.235,0,0,1,.731,1.438,6.035,6.035,0,0,1,.244,1.717,6.663,6.663,0,0,1-.6,2.763,7.942,7.942,0,0,1-1.615,2.36,6.743,6.743,0,0,1-2.32,1.535,4.581,4.581,0,0,1-2.666.237,1.863,1.863,0,0,0,.5,1.3,3.08,3.08,0,0,0,1.14.74,5.386,5.386,0,0,0,1.385.321q.717.071,1.281.07a5.143,5.143,0,0,0,1.1-.112q.513-.112,1.025-.251t1.038-.251a5.391,5.391,0,0,1,1.115-.112,3.748,3.748,0,0,1,.462.028,1.364,1.364,0,0,1,.436.126.777.777,0,0,1,.333.306.973.973,0,0,1,.129.517,1.178,1.178,0,0,1-.36.88,3.176,3.176,0,0,1-.91.6,5.268,5.268,0,0,1-1.217.377q-.668.126-1.294.2c-.42.046-.8.074-1.155.084s-.611.013-.781.013a7.264,7.264,0,0,1-2.948-.572,6.183,6.183,0,0,1-2.205-1.591,6.948,6.948,0,0,1-1.372-2.457A10.132,10.132,0,0,1,553.211,3953.834Zm2.717-1.814a3.108,3.108,0,0,0,.244,1.423q.243.447,1.192.447a3.385,3.385,0,0,0,1.307-.265,4.044,4.044,0,0,0,1.167-.74,3.585,3.585,0,0,0,.833-1.116,3.194,3.194,0,0,0,.308-1.4,6.069,6.069,0,0,0-.065-.865,2.428,2.428,0,0,0-.268-.823,1.89,1.89,0,0,0-.526-.615,1.368,1.368,0,0,0-.834-.237,2.662,2.662,0,0,0-1.4.377,3.572,3.572,0,0,0-1.065.978,4.572,4.572,0,0,0-.666,1.339A4.991,4.991,0,0,0,555.928,3952.02Z" fill="#ff3b67"/>
    </g>
  </g>
</svg>
