<svg xmlns="http://www.w3.org/2000/svg" width="18.893" height="13.841" viewBox="0 0 18.893 13.841">
  <g id="Grupo_2499" data-name="Grupo 2499" transform="translate(-707.331 -2975.885)">
    <path id="Trazado_3951" data-name="Trazado 3951" d="M718.221,2984.3a7.006,7.006,0,0,0-4.524-2.23,23.118,23.118,0,0,0-5.318-.011h0l.923-1.3a8.369,8.369,0,0,0,2.662,3.862A13.851,13.851,0,0,0,716.3,2987a18.826,18.826,0,0,0,4.912,1.028,2.431,2.431,0,0,0,.963-.139,1.333,1.333,0,0,0,.62-.54,9.922,9.922,0,0,0,.825-2.264,42.168,42.168,0,0,0,1.122-5.077,3.489,3.489,0,0,0-.223-2.133,1.673,1.673,0,0,0-1.688-.656,5.378,5.378,0,0,0-3.888,2.474,15.329,15.329,0,0,0-2.106,4.622.428.428,0,0,1-.529.3.434.434,0,0,1-.306-.479,12.686,12.686,0,0,1,1.961-5.126,8.037,8.037,0,0,1,1.987-2.063,5.838,5.838,0,0,1,2.765-1.041,3.81,3.81,0,0,1,1.595.157,2.666,2.666,0,0,1,1.381,1.081,4.754,4.754,0,0,1,.487,3.035,43.352,43.352,0,0,1-1.044,5.322,10.842,10.842,0,0,1-.959,2.723,3,3,0,0,1-1.338,1.193,4.031,4.031,0,0,1-1.636.308,20.266,20.266,0,0,1-5.486-1,15.452,15.452,0,0,1-4.969-2.63,11.311,11.311,0,0,1-2-2.1,10.364,10.364,0,0,1-1.346-2.625l-.009-.027a.957.957,0,0,1,.581-1.223.971.971,0,0,1,.35-.054h0a24.669,24.669,0,0,1,5.661.659,9.591,9.591,0,0,1,2.7,1.139,6.615,6.615,0,0,1,2.088,2.047.336.336,0,0,1-.543.394Z" fill="#fff"/>
  </g>
</svg>
