<svg id="Grupo_2441" data-name="Grupo 2441" xmlns="http://www.w3.org/2000/svg" width="43.311" height="42.759" viewBox="0 0 43.311 42.759">
  <g id="Grupo_2439" data-name="Grupo 2439" transform="translate(15.747 8.981)">
    <path id="Trazado_3868" data-name="Trazado 3868" d="M551.579,2183.89v-12.358h-2.138v-4.2h2.134c0-.347-.008-.641,0-.935a30.772,30.772,0,0,1,.138-3.277,4.226,4.226,0,0,1,4.051-3.927,11.625,11.625,0,0,1,1.373-.093c1.358-.012,2.717,0,4.12,0v4.156h-2.043c-1.764,0-2.028.264-2.043,2.014-.005.653,0,1.306,0,2.041h3.812c-.155,1.433-.3,2.778-.451,4.176h-3.351v12.407Z" transform="translate(-549.441 -2159.093)" fill="#ffffff"/>
  </g>
  <g id="Grupo_2440" data-name="Grupo 2440">
    <path id="Trazado_3869" data-name="Trazado 3869" d="M563.443,2193.146H547.256a13.667,13.667,0,0,1-13.562-13.739v-15.281a13.667,13.667,0,0,1,13.562-13.738h16.187a13.667,13.667,0,0,1,13.562,13.738v15.281A13.667,13.667,0,0,1,563.443,2193.146Zm-16.187-40.733a11.65,11.65,0,0,0-11.562,11.712v15.281a11.651,11.651,0,0,0,11.562,11.713h16.187a11.651,11.651,0,0,0,11.562-11.713v-15.281a11.65,11.65,0,0,0-11.562-11.712Z" transform="translate(-533.694 -2150.387)" fill="#ffffff"/>
  </g>
</svg>
