<svg id="Grupo_2450" data-name="Grupo 2450" xmlns="http://www.w3.org/2000/svg" width="43.311" height="42.759" viewBox="0 0 43.311 42.759">
  <g id="Grupo_2448" data-name="Grupo 2448" transform="translate(16.059 11.582)">
    <path id="Trazado_3874" data-name="Trazado 3874" d="M717.629,2181.29v-19.6l16.773,9.8Z" transform="translate(-717.629 -2161.694)" fill="#ffffff"/>
  </g>
  <g id="Grupo_2449" data-name="Grupo 2449">
    <path id="Trazado_3875" data-name="Trazado 3875" d="M731.319,2193.146H715.131a13.667,13.667,0,0,1-13.561-13.739v-15.281a13.666,13.666,0,0,1,13.561-13.738h16.188a13.667,13.667,0,0,1,13.562,13.738v15.281A13.667,13.667,0,0,1,731.319,2193.146Zm-16.188-40.733a11.65,11.65,0,0,0-11.561,11.712v15.281a11.651,11.651,0,0,0,11.561,11.713h16.188a11.651,11.651,0,0,0,11.562-11.713v-15.281a11.65,11.65,0,0,0-11.562-11.712Z" transform="translate(-701.57 -2150.387)" fill="#ffffff"/>
  </g>
</svg>
