<svg xmlns="http://www.w3.org/2000/svg" width="618.698" height="70.953" viewBox="0 0 618.698 70.953">
  <g id="Grupo_2202" data-name="Grupo 2202" transform="translate(-444.408 -4225.143)">
    <g id="Grupo_2200" data-name="Grupo 2200">
      <g id="Grupo_2199" data-name="Grupo 2199">
        <path id="Trazado_2720" data-name="Trazado 2720" d="M863.485,4243.7a.615.615,0,0,0-.319-.426,1.329,1.329,0,0,0-.515-.124,2.694,2.694,0,0,0-.545.035,2.688,2.688,0,0,1-.412.044q-.349-.021-1.215-.089l-1.862-.146c-.666-.053-1.287-.1-1.863-.157s-.982-.086-1.214-.1c0-.03-.008-.1-.021-.224a2.43,2.43,0,0,1-.02-.246,2.725,2.725,0,0,1,.051-.561.563.563,0,0,1,.4-.381q1.935.045,3.818-.022t3.767-.191q1.884-.122,3.767-.235t3.8-.112a1.768,1.768,0,0,1-.371,1.244,1.84,1.84,0,0,1-.916.526,4.379,4.379,0,0,1-1.2.112,12,12,0,0,0-1.266.023,3.1,3.1,0,0,0-1.07.258,1.092,1.092,0,0,0-.607.773c-.014.09-.028.262-.041.516s-.025.522-.032.806-.013.549-.02.8-.01.422-.01.527a10.768,10.768,0,0,0,.3,2.521q.3,1.244.659,2.466t.658,2.443a10.351,10.351,0,0,1,.3,2.477q0,.942-.988.941-.6,0-1.06-.9a10.366,10.366,0,0,1-.8-2.286,28.617,28.617,0,0,1-.557-3.027q-.216-1.635-.35-3.137t-.185-2.645Q863.485,4244.06,863.485,4243.7Z" fill="#ff3b67"/>
        <path id="Trazado_2721" data-name="Trazado 2721" d="M872.254,4250.92a11.2,11.2,0,0,1,.267-2.42,7.076,7.076,0,0,1,.854-2.175,4.829,4.829,0,0,1,1.523-1.568,4.1,4.1,0,0,1,2.275-.606,2.827,2.827,0,0,1,1.337.3,2.985,2.985,0,0,1,.968.795,3.392,3.392,0,0,1,.587,1.154,4.868,4.868,0,0,1,.2,1.379,5.363,5.363,0,0,1-.484,2.219,6.352,6.352,0,0,1-1.3,1.9,5.418,5.418,0,0,1-1.863,1.232,3.69,3.69,0,0,1-2.141.19,1.5,1.5,0,0,0,.4,1.042,2.469,2.469,0,0,0,.916.6,4.333,4.333,0,0,0,1.111.258c.384.037.728.056,1.029.056a4.161,4.161,0,0,0,.885-.09c.274-.06.549-.127.823-.2s.553-.143.834-.2a4.357,4.357,0,0,1,.9-.089,3.033,3.033,0,0,1,.37.022,1.142,1.142,0,0,1,.351.1.615.615,0,0,1,.267.246.785.785,0,0,1,.1.415.946.946,0,0,1-.288.706,2.6,2.6,0,0,1-.731.481,4.234,4.234,0,0,1-.977.3c-.358.067-.7.12-1.041.157s-.644.06-.925.067-.491.011-.628.011a5.827,5.827,0,0,1-2.367-.46,4.96,4.96,0,0,1-1.771-1.277,5.573,5.573,0,0,1-1.1-1.973A8.154,8.154,0,0,1,872.254,4250.92Zm2.181-1.457a2.5,2.5,0,0,0,.2,1.143c.129.24.449.359.957.359a2.7,2.7,0,0,0,1.049-.213,3.237,3.237,0,0,0,.937-.594,2.859,2.859,0,0,0,.669-.9,2.56,2.56,0,0,0,.247-1.121,4.96,4.96,0,0,0-.052-.7,1.931,1.931,0,0,0-.216-.661,1.489,1.489,0,0,0-.421-.493,1.1,1.1,0,0,0-.669-.19,2.141,2.141,0,0,0-1.122.3,2.877,2.877,0,0,0-.854.786,3.637,3.637,0,0,0-.535,1.076A3.982,3.982,0,0,0,874.435,4249.463Z" fill="#ff3b67"/>
        <path id="Trazado_2722" data-name="Trazado 2722" d="M883.74,4249.6a1.128,1.128,0,0,1,.268-.841,1.215,1.215,0,0,1,.864-.257h.206l.143.829a6.664,6.664,0,0,0,.247.964,5.6,5.6,0,0,0,.392.907,1.981,1.981,0,0,0,.556.661,3.77,3.77,0,0,1,.36-1.512,5.4,5.4,0,0,1,1.955-2.264,3.711,3.711,0,0,1,1.2-.526h.453a2.907,2.907,0,0,1,1.688.481,3.97,3.97,0,0,1,1.163,1.255,6.443,6.443,0,0,1,.71,1.76,17.625,17.625,0,0,1,.381,2.006q.133,1.02.165,1.972t.03,1.625h-1.5q-.125-1.344-.309-2.577-.062-.494-.164-1.043c-.07-.365-.145-.709-.227-1.031s-.172-.619-.268-.9a3.4,3.4,0,0,0-.329-.706q-.082-.088-.216-.246c-.089-.1-.182-.209-.278-.313s-.185-.2-.267-.27a.555.555,0,0,0-.145-.112,1.032,1.032,0,0,0-1.07.258,3.971,3.971,0,0,0-.8,1.177,8.184,8.184,0,0,0-.565,1.681c-.145.627-.265,1.23-.361,1.8s-.165,1.076-.206,1.5-.069.683-.082.773a.98.98,0,0,1-.968.236,1.972,1.972,0,0,1-.854-.706,5.8,5.8,0,0,1-.72-1.345q-.319-.806-.587-1.715t-.484-1.826Q883.9,4250.383,883.74,4249.6Z" fill="#ff3b67"/>
        <path id="Trazado_2723" data-name="Trazado 2723" d="M895.658,4250.92a11.138,11.138,0,0,1,.268-2.42,7.05,7.05,0,0,1,.853-2.175,4.84,4.84,0,0,1,1.523-1.568,4.1,4.1,0,0,1,2.275-.606,2.831,2.831,0,0,1,1.338.3,3,3,0,0,1,.968.795,3.39,3.39,0,0,1,.586,1.154,4.868,4.868,0,0,1,.2,1.379,5.349,5.349,0,0,1-.485,2.219,6.367,6.367,0,0,1-1.295,1.9,5.423,5.423,0,0,1-1.864,1.232,3.687,3.687,0,0,1-2.14.19,1.5,1.5,0,0,0,.4,1.042,2.477,2.477,0,0,0,.916.6,4.343,4.343,0,0,0,1.111.258c.384.037.728.056,1.03.056a4.159,4.159,0,0,0,.884-.09c.275-.06.549-.127.824-.2s.552-.143.834-.2a4.348,4.348,0,0,1,.9-.089,3.033,3.033,0,0,1,.37.022,1.142,1.142,0,0,1,.351.1.615.615,0,0,1,.267.246.776.776,0,0,1,.1.415.946.946,0,0,1-.288.706,2.6,2.6,0,0,1-.731.481,4.235,4.235,0,0,1-.977.3c-.358.067-.7.12-1.04.157s-.645.06-.926.067-.491.011-.628.011a5.827,5.827,0,0,1-2.367-.46,4.969,4.969,0,0,1-1.771-1.277,5.587,5.587,0,0,1-1.1-1.973A8.152,8.152,0,0,1,895.658,4250.92Zm2.182-1.457a2.5,2.5,0,0,0,.195,1.143c.13.24.449.359.957.359a2.706,2.706,0,0,0,1.05-.213,3.233,3.233,0,0,0,.936-.594,2.844,2.844,0,0,0,.669-.9,2.56,2.56,0,0,0,.247-1.121,4.955,4.955,0,0,0-.051-.7,1.975,1.975,0,0,0-.216-.661,1.492,1.492,0,0,0-.422-.493,1.1,1.1,0,0,0-.669-.19,2.146,2.146,0,0,0-1.122.3,2.889,2.889,0,0,0-.854.786,3.636,3.636,0,0,0-.535,1.076A3.979,3.979,0,0,0,897.84,4249.463Z" fill="#ff3b67"/>
        <path id="Trazado_2724" data-name="Trazado 2724" d="M906.69,4247.737a1.806,1.806,0,0,1,.175-.874c.116-.209.367-.313.751-.313.042,0,.12,0,.237.011s.189.011.216.011q.144.7.3,1.513t.36,1.647q.205.83.463,1.636a7.541,7.541,0,0,0,.628,1.457,2.579,2.579,0,0,0,.535-1.009,8.645,8.645,0,0,0,.247-1.176q.082-.594.155-1.143a2.515,2.515,0,0,1,.3-.941,1.323,1.323,0,0,1,.669-.572,2.089,2.089,0,0,1,1.225,0,2.438,2.438,0,0,1,1.38.347,3.6,3.6,0,0,1,.895.874q.379.528.741,1.121a4.334,4.334,0,0,0,.916,1.065c.083-.194.185-.437.309-.729a8.491,8.491,0,0,1,.463-.919c.185-.321.384-.641.6-.964a7.818,7.818,0,0,1,.669-.874,4.224,4.224,0,0,1,.72-.649,1.267,1.267,0,0,1,.721-.258,2.083,2.083,0,0,1,1.461.571A5.131,5.131,0,0,1,922.88,4249a9.852,9.852,0,0,1,.73,1.928q.287,1.065.453,2.05t.237,1.805c.047.545.072.938.072,1.177a.705.705,0,0,1-.124.448.764.764,0,0,1-.309.236,1.426,1.426,0,0,1-.4.1,3.881,3.881,0,0,1-.4.023.9.9,0,0,1-.123-.012c-.055-.007-.117-.019-.185-.033s-.131-.037-.227-.068l-1.338-6.7c0-.045-.054-.13-.165-.258a1.141,1.141,0,0,0-.247-.235.2.2,0,0,1-.1-.023.132.132,0,0,1-.062-.01.077.077,0,0,0-.041-.011,1.141,1.141,0,0,0-.813.381,4.429,4.429,0,0,0-.71.964,10.567,10.567,0,0,0-.617,1.3q-.289.717-.515,1.422t-.4,1.3c-.118.4-.21.7-.279.907a1.075,1.075,0,0,1-.329.079,3.285,3.285,0,0,1-.329.034,1.018,1.018,0,0,1-.886-.438,3.72,3.72,0,0,1-.5-1.087,12.077,12.077,0,0,1-.329-1.423,12.189,12.189,0,0,0-.33-1.423,3.285,3.285,0,0,0-.535-1.087,1.142,1.142,0,0,0-.957-.438c-.151,0-.295.165-.433.493a7.578,7.578,0,0,0-.37,1.244q-.165.751-.308,1.615t-.237,1.613q-.093.751-.175,1.782a.521.521,0,0,1-.164.146q-.125.078-.258.168a1.074,1.074,0,0,1-.268.134.655.655,0,0,1-.2.045,1.532,1.532,0,0,1-1.111-.571,5.956,5.956,0,0,1-.978-1.479,15.6,15.6,0,0,1-.8-2.006c-.24-.733-.443-1.449-.607-2.153s-.292-1.336-.381-1.9A8.96,8.96,0,0,1,906.69,4247.737Z" fill="#ff3b67"/>
        <path id="Trazado_2725" data-name="Trazado 2725" d="M925.217,4252.6a5.726,5.726,0,0,1,.6-2.589,6.7,6.7,0,0,1,1.574-2.063,7.56,7.56,0,0,1,2.2-1.355,6.571,6.571,0,0,1,2.479-.493,1.8,1.8,0,0,1,1.246.493,4.269,4.269,0,0,1,.916,1.2,6.651,6.651,0,0,1,.566,1.49,5.792,5.792,0,0,1,.2,1.367,5.627,5.627,0,0,1-.557,2.432,7.6,7.6,0,0,1-1.44,2.085,7.463,7.463,0,0,1-2,1.468,4.9,4.9,0,0,1-2.223.56,3.44,3.44,0,0,1-1.667-.37,3.027,3.027,0,0,1-1.091-.986,4.363,4.363,0,0,1-.607-1.457A7.8,7.8,0,0,1,925.217,4252.6Zm1.749.223a5.038,5.038,0,0,0,.092,1.021,1.884,1.884,0,0,0,.329.75,1.529,1.529,0,0,0,.628.482,2.459,2.459,0,0,0,.968.168,2.938,2.938,0,0,0,1.524-.459,5.682,5.682,0,0,0,1.368-1.166,6.115,6.115,0,0,0,.977-1.557,4.151,4.151,0,0,0,.371-1.66,5.513,5.513,0,0,0-.061-.784,3.517,3.517,0,0,0-.206-.784,1.667,1.667,0,0,0-.412-.6.962.962,0,0,0-.679-.247,1.922,1.922,0,0,0-.875.269,7.3,7.3,0,0,0-1.05.7,10.483,10.483,0,0,0-1.07.963q-.525.54-.957,1.076a6.38,6.38,0,0,0-.69,1.032A1.857,1.857,0,0,0,926.966,4252.825Z" fill="#ff3b67"/>
        <path id="Trazado_2726" data-name="Trazado 2726" d="M939.747,4256.143q.33-.246.793-.639t.936-.841a11,11,0,0,0,.885-.941,5.3,5.3,0,0,0,.649-.952,1.9,1.9,0,0,0,.237-.864.806.806,0,0,0-.371-.672c-.44,0-.919.019-1.441.056s-1.043.053-1.564.045a9.169,9.169,0,0,1-1.513-.145,3.706,3.706,0,0,1-1.307-.494,2.523,2.523,0,0,1-.916-1.02,3.685,3.685,0,0,1-.339-1.692,5.415,5.415,0,0,1,.422-2.185,6,6,0,0,1,1.121-1.727,8.464,8.464,0,0,1,1.575-1.322,13.348,13.348,0,0,1,1.76-.975,2.566,2.566,0,0,1,.988.561,4.673,4.673,0,0,1,.782.9,1.308,1.308,0,0,1-.566.762,5.071,5.071,0,0,1-.968.471c-.363.135-.744.276-1.142.426a4.2,4.2,0,0,0-1.081.593,3.076,3.076,0,0,0-.813.964,3.2,3.2,0,0,0-.329,1.559,1.457,1.457,0,0,0,.329,1.053,1.714,1.714,0,0,0,.865.46,4.429,4.429,0,0,0,1.214.089q.68-.033,1.39-.1c.473-.045.936-.07,1.389-.078a3.416,3.416,0,0,1,1.214.179,1.783,1.783,0,0,1,.855.617,2.079,2.079,0,0,1,.319,1.255,2.665,2.665,0,0,1-.217.918,9.1,9.1,0,0,1-.576,1.2,10.77,10.77,0,0,1-.844,1.266,10.058,10.058,0,0,1-1.009,1.132,6.314,6.314,0,0,1-1.049.829,1.88,1.88,0,0,1-.978.325.542.542,0,0,1-.565-.336A1.79,1.79,0,0,1,939.747,4256.143Z" fill="#ff3b67"/>
        <path id="Trazado_2727" data-name="Trazado 2727" d="M955.926,4244.465a9.548,9.548,0,0,0-.082-1.267,5.172,5.172,0,0,1-.041-1.1,1.234,1.234,0,0,1,.32-.774,1.386,1.386,0,0,1,1.018-.292,8.329,8.329,0,0,1,.443,1.57q.216,1.055.422,2.42t.391,2.97q.185,1.6.34,3.217t.268,3.171q.113,1.559.174,2.836-.68.491-1.09.067a3.282,3.282,0,0,1-.68-1.446,16.123,16.123,0,0,1-.412-2.487q-.144-1.469-.278-3.049t-.319-3.115A23.391,23.391,0,0,0,955.926,4244.465Z" fill="#ff3b67"/>
        <path id="Trazado_2728" data-name="Trazado 2728" d="M969.1,4254.26q-.781.582-1.348,1.042a8.873,8.873,0,0,1-1.1.773,4.444,4.444,0,0,1-1.142.471,6.053,6.053,0,0,1-1.493.157,3.492,3.492,0,0,1-2.84-1.109,5.059,5.059,0,0,1-.926-3.307,8.108,8.108,0,0,1,.205-1.77,9.9,9.9,0,0,1,.607-1.827,11.04,11.04,0,0,1,.957-1.726,7.872,7.872,0,0,1,1.256-1.445,6.1,6.1,0,0,1,1.492-1,3.9,3.9,0,0,1,1.678-.371,4.623,4.623,0,0,1,2.326.8,4.016,4.016,0,0,1,1.277,1.636,8.386,8.386,0,0,1,.6,2.219q.165,1.223.257,2.521t.237,2.6a8.791,8.791,0,0,0,.6,2.4,4.06,4.06,0,0,1-.5,1.042.345.345,0,0,1-.525.1,2.709,2.709,0,0,1-.669-.986Q969.656,4255.695,969.1,4254.26Zm-7.1-1.928a3.154,3.154,0,0,0,.442,1.872,1.846,1.846,0,0,0,1.575.594,4.121,4.121,0,0,0,1.616-.325,4.231,4.231,0,0,0,1.348-.9,4.373,4.373,0,0,0,.926-1.378,4.467,4.467,0,0,0,.351-1.794c0-.268.006-.645.02-1.131a8.51,8.51,0,0,0-.082-1.446,3.655,3.655,0,0,0-.392-1.244.928.928,0,0,0-.864-.526,3.537,3.537,0,0,0-1.976.593,5.926,5.926,0,0,0-1.565,1.513,7.622,7.622,0,0,0-1.028,2.028A6.764,6.764,0,0,0,962,4252.332Z" fill="#ff3b67"/>
        <path id="Trazado_2729" data-name="Trazado 2729" d="M990.9,4259.236q-.432-.875-.957-2.185t-1.08-2.735q-.557-1.423-1.163-2.791a20.419,20.419,0,0,0-1.226-2.376,1.26,1.26,0,0,0-.678-.246,7.191,7.191,0,0,0-.906-.034q-.474.012-.937-.022a1.806,1.806,0,0,1-.8-.236,1.2,1.2,0,0,1-.5-.627,2.62,2.62,0,0,1-.061-1.233h3.458a21.618,21.618,0,0,1,.349-2.487,15.1,15.1,0,0,1,.669-2.354,11.917,11.917,0,0,1,1.02-2.085,6.687,6.687,0,0,1,1.44-1.658,6.594,6.594,0,0,1,1.946-1.1,7.252,7.252,0,0,1,2.5-.4,2.122,2.122,0,0,1,.988.258,3.226,3.226,0,0,1,.885.683,3.571,3.571,0,0,1,.628.964,2.667,2.667,0,0,1,.236,1.076,1.436,1.436,0,0,1-.7-.168,5.136,5.136,0,0,1-.6-.381,6.486,6.486,0,0,0-.617-.4,1.455,1.455,0,0,0-.741-.19,5,5,0,0,0-2.295.538,6.169,6.169,0,0,0-1.853,1.435,6.735,6.735,0,0,0-1.245,2.084,6.963,6.963,0,0,0-.453,2.51c0,.06,0,.168.011.326s.009.324.009.5,0,.352.011.516.01.276.01.336a8.766,8.766,0,0,0,1.709.4,17.869,17.869,0,0,0,1.9.169q.959.033,1.853-.011t1.595-.113l.227.247a.76.76,0,0,1,.185.269.133.133,0,0,0,.021.09l.041.135a.826.826,0,0,1-.453.739,3.434,3.434,0,0,1-1.152.392,12.949,12.949,0,0,1-1.555.168c-.569.031-1.118.056-1.647.078s-1,.053-1.419.09a2.1,2.1,0,0,0-.875.213,9,9,0,0,0,.957,2.6q.69,1.255,1.41,2.51a25.883,25.883,0,0,1,1.276,2.533,6.513,6.513,0,0,1,.556,2.622q-.084,0-.381.012a3.674,3.674,0,0,1-.628-.035,2.047,2.047,0,0,1-.628-.19A.562.562,0,0,1,990.9,4259.236Z" fill="#ff3b67"/>
        <path id="Trazado_2730" data-name="Trazado 2730" d="M997.053,4252.6a5.727,5.727,0,0,1,.6-2.589,6.7,6.7,0,0,1,1.574-2.063,7.569,7.569,0,0,1,2.2-1.355,6.58,6.58,0,0,1,2.48-.493,1.8,1.8,0,0,1,1.246.493,4.269,4.269,0,0,1,.916,1.2,6.654,6.654,0,0,1,.566,1.49,5.791,5.791,0,0,1,.2,1.367,5.626,5.626,0,0,1-.557,2.432,7.6,7.6,0,0,1-1.44,2.085,7.462,7.462,0,0,1-2,1.468,4.9,4.9,0,0,1-2.223.56,3.44,3.44,0,0,1-1.667-.37,3.027,3.027,0,0,1-1.091-.986,4.361,4.361,0,0,1-.607-1.457A7.8,7.8,0,0,1,997.053,4252.6Zm1.749.223a5.028,5.028,0,0,0,.093,1.021,1.884,1.884,0,0,0,.329.75,1.529,1.529,0,0,0,.628.482,2.459,2.459,0,0,0,.968.168,2.932,2.932,0,0,0,1.523-.459,5.667,5.667,0,0,0,1.369-1.166,6.116,6.116,0,0,0,.977-1.557,4.152,4.152,0,0,0,.371-1.66,5.521,5.521,0,0,0-.061-.784,3.524,3.524,0,0,0-.206-.784,1.667,1.667,0,0,0-.412-.6.962.962,0,0,0-.679-.247,1.922,1.922,0,0,0-.875.269,7.3,7.3,0,0,0-1.05.7,10.5,10.5,0,0,0-1.07.963q-.525.54-.957,1.076a6.384,6.384,0,0,0-.69,1.032A1.861,1.861,0,0,0,998.8,4252.825Zm4.941-12.26-2.224,3.586c-.164.209-.329.3-.493.269a.54.54,0,0,1-.381-.258,1.051,1.051,0,0,1-.144-.538,1.027,1.027,0,0,1,.216-.639,1.084,1.084,0,0,0,.133-.19c.048-.082.079-.138.093-.168.138-.239.295-.508.474-.807s.363-.579.555-.84a8.232,8.232,0,0,1,.567-.695,1.545,1.545,0,0,1,.524-.4.39.39,0,0,1,.422.045A1.079,1.079,0,0,1,1003.743,4240.565Z" fill="#ff3b67"/>
        <path id="Trazado_2731" data-name="Trazado 2731" d="M1007.634,4247.737a3.911,3.911,0,0,1,.02-.414,1.528,1.528,0,0,1,.082-.382.665.665,0,0,1,.2-.28.581.581,0,0,1,.381-.111c.137,0,.292.115.463.347a6.191,6.191,0,0,1,.526.875q.266.525.524,1.154c.172.418.322.8.453,1.154s.236.653.319.907a3.007,3.007,0,0,0,.144.4q.268-.784.6-1.7a9.288,9.288,0,0,1,.812-1.715,5.07,5.07,0,0,1,1.152-1.334,2.529,2.529,0,0,1,1.637-.537,2.6,2.6,0,0,1,.937.168,2.294,2.294,0,0,1,.782.493,2.52,2.52,0,0,1,.546.773,2.45,2.45,0,0,1,.206,1.03.733.733,0,0,1-.36.7,1.637,1.637,0,0,1-.814.2h-.206l-.885-.963a.08.08,0,0,1-.061-.022.193.193,0,0,1-.073-.012.223.223,0,0,0-.072-.011,1.449,1.449,0,0,0-1.122.437,2.858,2.858,0,0,0-.606,1.076,5.674,5.674,0,0,0-.258,1.345q-.051.705-.052,1.289a5.032,5.032,0,0,0,.083.907c.055.306.116.6.185.9s.131.591.185.9a5.392,5.392,0,0,1,.082.953.825.825,0,0,1-.926.941,1.541,1.541,0,0,1-1.07-.593,8.776,8.776,0,0,1-1.1-1.514,19.329,19.329,0,0,1-1.039-2.028q-.5-1.11-.865-2.163c-.247-.7-.443-1.337-.587-1.906A5.708,5.708,0,0,1,1007.634,4247.737Z" fill="#ff3b67"/>
        <path id="Trazado_2732" data-name="Trazado 2732" d="M1017.7,4247.737a1.806,1.806,0,0,1,.175-.874c.116-.209.367-.313.751-.313.042,0,.12,0,.237.011s.189.011.216.011q.144.7.3,1.513t.36,1.647q.206.83.463,1.636a7.533,7.533,0,0,0,.628,1.457,2.579,2.579,0,0,0,.535-1.009,8.951,8.951,0,0,0,.247-1.176q.082-.594.154-1.143a2.533,2.533,0,0,1,.3-.941,1.323,1.323,0,0,1,.669-.572,2.089,2.089,0,0,1,1.225,0,2.438,2.438,0,0,1,1.38.347,3.635,3.635,0,0,1,.895.874q.38.528.74,1.121a4.359,4.359,0,0,0,.916,1.065l.31-.729a8.3,8.3,0,0,1,.463-.919c.184-.321.384-.641.6-.964a7.7,7.7,0,0,1,.669-.874,4.226,4.226,0,0,1,.72-.649,1.265,1.265,0,0,1,.721-.258,2.085,2.085,0,0,1,1.461.571,5.108,5.108,0,0,1,1.06,1.435,9.915,9.915,0,0,1,.731,1.928q.287,1.065.453,2.05t.236,1.805c.048.545.073.938.073,1.177a.705.705,0,0,1-.124.448.763.763,0,0,1-.309.236,1.425,1.425,0,0,1-.4.1,3.9,3.9,0,0,1-.4.023.9.9,0,0,1-.123-.012c-.055-.007-.117-.019-.185-.033s-.131-.037-.227-.068l-1.338-6.7c0-.045-.054-.13-.165-.258a1.139,1.139,0,0,0-.247-.235.2.2,0,0,1-.1-.023.131.131,0,0,1-.062-.01.079.079,0,0,0-.041-.011,1.139,1.139,0,0,0-.813.381,4.4,4.4,0,0,0-.71.964,10.711,10.711,0,0,0-.618,1.3q-.288.717-.514,1.422t-.4,1.3q-.176.594-.278.907a1.083,1.083,0,0,1-.329.079,3.283,3.283,0,0,1-.329.034,1.018,1.018,0,0,1-.886-.438,3.72,3.72,0,0,1-.5-1.087,11.885,11.885,0,0,1-.329-1.423,12.177,12.177,0,0,0-.33-1.423,3.306,3.306,0,0,0-.535-1.087,1.144,1.144,0,0,0-.957-.438c-.152,0-.295.165-.433.493a7.392,7.392,0,0,0-.37,1.244q-.165.751-.308,1.615t-.237,1.613q-.093.751-.176,1.782a.51.51,0,0,1-.164.146c-.083.052-.169.108-.257.168a1.075,1.075,0,0,1-.268.134.655.655,0,0,1-.2.045,1.536,1.536,0,0,1-1.112-.571,5.984,5.984,0,0,1-.977-1.479,15.6,15.6,0,0,1-.8-2.006c-.24-.733-.443-1.449-.607-2.153s-.292-1.336-.381-1.9A8.953,8.953,0,0,1,1017.7,4247.737Z" fill="#ff3b67"/>
        <path id="Trazado_2733" data-name="Trazado 2733" d="M1036.224,4248.007c0-.09,0-.251.01-.483s.011-.473.011-.728,0-.489.01-.706.01-.37.01-.459a3.923,3.923,0,0,1,.339-.527,1.172,1.172,0,0,1,.412-.359.684.684,0,0,1,.474-.033,1.027,1.027,0,0,1,.524.448v.471c-.013.074-.041.25-.082.526s-.089.579-.144.908-.107.631-.154.908a4.248,4.248,0,0,0-.072.527,8.765,8.765,0,0,0,.082,1.065q.082.638.237,1.333a13.138,13.138,0,0,0,.391,1.389,6.362,6.362,0,0,0,.566,1.244,3.859,3.859,0,0,0,.731.909,1.36,1.36,0,0,0,.937.358,1.881,1.881,0,0,0,1.163-.381,3.509,3.509,0,0,0,.874-.986,6.036,6.036,0,0,0,.607-1.367,13.438,13.438,0,0,0,.381-1.536q.144-.772.206-1.491t.062-1.255a6.873,6.873,0,0,0-.073-1.019c-.048-.322-.106-.639-.175-.953s-.126-.623-.174-.93a6,6,0,0,1-.073-.931.661.661,0,0,1,.279-.6,1.127,1.127,0,0,1,.628-.18.924.924,0,0,1,.7.28,1.983,1.983,0,0,1,.422.706,3.932,3.932,0,0,1,.206.975q.051.549.052,1.087t-.021,1.02c-.014.322-.02.58-.02.774a16.3,16.3,0,0,1-.1,1.725,14.312,14.312,0,0,1-.359,1.984,17.341,17.341,0,0,1-.639,2.006,8.067,8.067,0,0,1-.926,1.759,4.756,4.756,0,0,1-1.256,1.245,2.827,2.827,0,0,1-1.595.47,2.787,2.787,0,0,1-1.626-.482,4.1,4.1,0,0,1-1.184-1.277,8.562,8.562,0,0,1-.812-1.8,14.36,14.36,0,0,1-.505-2.018q-.175-1.01-.247-1.961T1036.224,4248.007Z" fill="#ff3b67"/>
        <path id="Trazado_2734" data-name="Trazado 2734" d="M1047.3,4244.465a9.705,9.705,0,0,0-.082-1.267,5.041,5.041,0,0,1-.041-1.1,1.228,1.228,0,0,1,.319-.774,1.386,1.386,0,0,1,1.018-.292,8.324,8.324,0,0,1,.443,1.57q.216,1.055.422,2.42t.391,2.97q.185,1.6.34,3.217t.268,3.171q.113,1.559.175,2.836-.681.491-1.091.067a3.282,3.282,0,0,1-.68-1.446,16.227,16.227,0,0,1-.412-2.487q-.144-1.469-.277-3.049t-.32-3.115A23.613,23.613,0,0,0,1047.3,4244.465Z" fill="#ff3b67"/>
        <path id="Trazado_2735" data-name="Trazado 2735" d="M1060.471,4254.26q-.781.582-1.348,1.042a8.873,8.873,0,0,1-1.1.773,4.443,4.443,0,0,1-1.142.471,6.053,6.053,0,0,1-1.493.157,3.491,3.491,0,0,1-2.84-1.109,5.059,5.059,0,0,1-.926-3.307,8.1,8.1,0,0,1,.205-1.77,9.9,9.9,0,0,1,.607-1.827,11.045,11.045,0,0,1,.957-1.726,7.87,7.87,0,0,1,1.256-1.445,6.1,6.1,0,0,1,1.492-1,3.9,3.9,0,0,1,1.678-.371,4.622,4.622,0,0,1,2.326.8,4.016,4.016,0,0,1,1.277,1.636,8.384,8.384,0,0,1,.6,2.219q.165,1.223.257,2.521t.238,2.6a8.753,8.753,0,0,0,.6,2.4,4.028,4.028,0,0,1-.5,1.042.345.345,0,0,1-.525.1,2.721,2.721,0,0,1-.669-.986Q1061.027,4255.695,1060.471,4254.26Zm-7.1-1.928a3.154,3.154,0,0,0,.442,1.872,1.847,1.847,0,0,0,1.575.594,4.121,4.121,0,0,0,1.616-.325,4.22,4.22,0,0,0,1.348-.9,4.373,4.373,0,0,0,.926-1.378,4.466,4.466,0,0,0,.351-1.794q0-.4.02-1.131a8.411,8.411,0,0,0-.082-1.446,3.68,3.68,0,0,0-.391-1.244.93.93,0,0,0-.865-.526,3.537,3.537,0,0,0-1.976.593,5.925,5.925,0,0,0-1.565,1.513,7.624,7.624,0,0,0-1.028,2.028A6.766,6.766,0,0,0,1053.37,4252.332Z" fill="#ff3b67"/>
        <path id="Trazado_2736" data-name="Trazado 2736" d="M855.5,4277.571a4.779,4.779,0,0,1,.926-3.227,3.586,3.586,0,0,1,2.84-1.054,8.781,8.781,0,0,1,1.616.157,5,5,0,0,1,1.534.549,3.2,3.2,0,0,1,1.142,1.087,3.29,3.29,0,0,1,.443,1.793,5.428,5.428,0,0,1-.485,2.275,9.757,9.757,0,0,1-1.214,2,14.1,14.1,0,0,1-1.605,1.725q-.876.795-1.637,1.513a1.471,1.471,0,0,0-.072.37c-.02.186-.03.31-.03.37a3.152,3.152,0,0,0,.4,1.49q.4.75.874,1.525a16.037,16.037,0,0,1,.865,1.6,4.009,4.009,0,0,1,.391,1.726c0,.358-.068.571-.206.638a2.326,2.326,0,0,1-.864.1,1.993,1.993,0,0,1-.813-.84,12.427,12.427,0,0,1-.8-1.625q-.4-.963-.782-2.163t-.72-2.443q-.34-1.244-.639-2.466t-.525-2.252q-.227-1.031-.4-1.782T855.5,4277.571Zm1.749.2c0,.224.013.549.041.975a8.725,8.725,0,0,0,.175,1.266,3.654,3.654,0,0,0,.4,1.088.824.824,0,0,0,.74.459,2.192,2.192,0,0,0,1.287-.471,5,5,0,0,0,1.153-1.188,7.23,7.23,0,0,0,.823-1.536,4.136,4.136,0,0,0,.319-1.49,1.427,1.427,0,0,0-.247-.885,1.764,1.764,0,0,0-.628-.515,2.545,2.545,0,0,0-.813-.247,6.29,6.29,0,0,0-.824-.056,2.32,2.32,0,0,0-1.8.683A2.731,2.731,0,0,0,857.248,4277.773Z" fill="#ff3b67"/>
        <path id="Trazado_2737" data-name="Trazado 2737" d="M874.065,4282.95q-.781.583-1.348,1.042a8.9,8.9,0,0,1-1.1.774,4.4,4.4,0,0,1-1.143.47,5.988,5.988,0,0,1-1.492.158,3.5,3.5,0,0,1-2.841-1.11,5.063,5.063,0,0,1-.925-3.306,8.114,8.114,0,0,1,.2-1.771,9.837,9.837,0,0,1,.607-1.826,11.027,11.027,0,0,1,.957-1.727,7.872,7.872,0,0,1,1.256-1.445,6.1,6.1,0,0,1,1.492-1,3.913,3.913,0,0,1,1.678-.37,4.6,4.6,0,0,1,2.326.8,4.007,4.007,0,0,1,1.276,1.635,8.373,8.373,0,0,1,.6,2.219q.164,1.224.257,2.522t.237,2.6a8.812,8.812,0,0,0,.6,2.4,4.077,4.077,0,0,1-.5,1.042.345.345,0,0,1-.525.1,2.7,2.7,0,0,1-.669-.986Q874.621,4284.386,874.065,4282.95Zm-7.1-1.927a3.158,3.158,0,0,0,.442,1.872,1.848,1.848,0,0,0,1.575.593,4.113,4.113,0,0,0,1.615-.325,4.222,4.222,0,0,0,1.349-.9,4.384,4.384,0,0,0,.926-1.378,4.469,4.469,0,0,0,.35-1.794q0-.4.021-1.132a8.5,8.5,0,0,0-.082-1.445,3.652,3.652,0,0,0-.392-1.245.93.93,0,0,0-.864-.526,3.536,3.536,0,0,0-1.977.594,5.9,5.9,0,0,0-1.564,1.513,7.62,7.62,0,0,0-1.028,2.028A6.755,6.755,0,0,0,866.964,4281.023Z" fill="#ff3b67"/>
        <path id="Trazado_2738" data-name="Trazado 2738" d="M878,4276.428c0-.135.006-.273.02-.414a1.509,1.509,0,0,1,.082-.382.659.659,0,0,1,.2-.28.574.574,0,0,1,.381-.112c.136,0,.292.116.462.347a6.191,6.191,0,0,1,.526.875c.178.351.352.735.524,1.154s.322.8.453,1.155.237.653.32.907a3.256,3.256,0,0,0,.143.4q.269-.783.6-1.7a9.385,9.385,0,0,1,.812-1.715,5.1,5.1,0,0,1,1.153-1.334,2.532,2.532,0,0,1,1.636-.537,2.62,2.62,0,0,1,.937.168,2.284,2.284,0,0,1,.782.493,2.513,2.513,0,0,1,.546.774,2.443,2.443,0,0,1,.206,1.03.733.733,0,0,1-.36.7,1.635,1.635,0,0,1-.814.2h-.206l-.884-.963a.079.079,0,0,1-.062-.022.188.188,0,0,1-.072-.012.235.235,0,0,0-.073-.01,1.449,1.449,0,0,0-1.122.436,2.868,2.868,0,0,0-.606,1.076,5.67,5.67,0,0,0-.258,1.345c-.034.471-.052.9-.052,1.289a5.115,5.115,0,0,0,.083.907q.082.46.185.9t.185.9a5.394,5.394,0,0,1,.083.953.826.826,0,0,1-.926.942,1.541,1.541,0,0,1-1.071-.594,8.7,8.7,0,0,1-1.1-1.514,19.481,19.481,0,0,1-1.039-2.028q-.493-1.108-.864-2.163t-.587-1.9A5.676,5.676,0,0,1,878,4276.428Z" fill="#ff3b67"/>
        <path id="Trazado_2739" data-name="Trazado 2739" d="M897.366,4282.95q-.783.583-1.349,1.042a8.893,8.893,0,0,1-1.1.774,4.429,4.429,0,0,1-1.143.47,5.988,5.988,0,0,1-1.492.158,3.494,3.494,0,0,1-2.841-1.11,5.063,5.063,0,0,1-.926-3.306,8.174,8.174,0,0,1,.2-1.771,9.837,9.837,0,0,1,.608-1.826,10.943,10.943,0,0,1,.957-1.727,7.872,7.872,0,0,1,1.256-1.445,6.1,6.1,0,0,1,1.492-1,3.913,3.913,0,0,1,1.678-.37,4.6,4.6,0,0,1,2.326.8,4.014,4.014,0,0,1,1.276,1.635,8.41,8.41,0,0,1,.6,2.219q.164,1.224.257,2.522t.237,2.6a8.815,8.815,0,0,0,.6,2.4,4.077,4.077,0,0,1-.5,1.042.346.346,0,0,1-.526.1,2.712,2.712,0,0,1-.669-.986Q897.923,4284.386,897.366,4282.95Zm-7.1-1.927a3.158,3.158,0,0,0,.443,1.872,1.848,1.848,0,0,0,1.575.593,4.116,4.116,0,0,0,1.615-.325,4.221,4.221,0,0,0,1.349-.9,4.384,4.384,0,0,0,.926-1.378,4.469,4.469,0,0,0,.35-1.794q0-.4.021-1.132a8.607,8.607,0,0,0-.082-1.445,3.7,3.7,0,0,0-.392-1.245.93.93,0,0,0-.864-.526,3.536,3.536,0,0,0-1.977.594,5.9,5.9,0,0,0-1.564,1.513,7.623,7.623,0,0,0-1.029,2.028A6.755,6.755,0,0,0,890.264,4281.023Z" fill="#ff3b67"/>
        <path id="Trazado_2740" data-name="Trazado 2740" d="M910.334,4274.545a.279.279,0,0,1,.02-.112.394.394,0,0,1,.021-.112,3.37,3.37,0,0,1,.247-.292c.109-.119.178-.178.206-.178h4.137a7.845,7.845,0,0,0-.062-.786q-.062-.537-.113-1.187a12.318,12.318,0,0,1-.03-1.356,5.421,5.421,0,0,1,.174-1.278,2.217,2.217,0,0,1,.494-.941,1.235,1.235,0,0,1,.957-.37,18.248,18.248,0,0,0,.289,3.632,6.247,6.247,0,0,0,.771,2.106,2.3,2.3,0,0,0,1.1.964,3.178,3.178,0,0,0,1.265.19,5.489,5.489,0,0,0,1.266-.213,7.926,7.926,0,0,1,1.1-.246,1.192,1.192,0,0,1,.773.1c.191.112.288.377.288.8a.945.945,0,0,1-.2.672,1.485,1.485,0,0,1-.751.314l-.546.078c-.254.037-.538.071-.854.1s-.652.063-1.008.1-.694.072-1.009.1-.6.049-.865.056-.453.011-.576.011c0,.075-.008.2-.02.381s-.021.3-.021.359a6.441,6.441,0,0,0,.288,1.916q.288.932.627,1.849t.628,1.838a6.3,6.3,0,0,1,.288,1.9,2.25,2.25,0,0,1-.03.37.845.845,0,0,1-.124.336.577.577,0,0,1-.268.224.654.654,0,0,1-.483-.033,1.831,1.831,0,0,1-1.163-.964,6.3,6.3,0,0,1-.566-1.76,17.385,17.385,0,0,1-.247-2.163c-.042-.762-.106-1.474-.2-2.14a6.957,6.957,0,0,0-.422-1.7,1.331,1.331,0,0,0-.925-.862l-3.973-.986c-.056,0-.138-.064-.247-.191a1.37,1.37,0,0,1-.206-.28.262.262,0,0,1-.021-.112A.36.36,0,0,1,910.334,4274.545Z" fill="#ff3b67"/>
        <path id="Trazado_2741" data-name="Trazado 2741" d="M924.022,4281.292a5.715,5.715,0,0,1,.6-2.589,6.684,6.684,0,0,1,1.574-2.062,7.537,7.537,0,0,1,2.2-1.356,6.58,6.58,0,0,1,2.48-.493,1.8,1.8,0,0,1,1.246.493,4.284,4.284,0,0,1,.916,1.2,6.644,6.644,0,0,1,.565,1.491,5.734,5.734,0,0,1,.2,1.367,5.621,5.621,0,0,1-.557,2.431,7.592,7.592,0,0,1-1.441,2.085,7.432,7.432,0,0,1-2,1.468,4.888,4.888,0,0,1-2.222.561,3.44,3.44,0,0,1-1.667-.37,3.021,3.021,0,0,1-1.091-.987,4.333,4.333,0,0,1-.607-1.457A7.8,7.8,0,0,1,924.022,4281.292Zm1.749.224a4.956,4.956,0,0,0,.093,1.02,1.885,1.885,0,0,0,.329.75,1.526,1.526,0,0,0,.628.483,2.459,2.459,0,0,0,.968.168,2.939,2.939,0,0,0,1.523-.459,5.676,5.676,0,0,0,1.368-1.166,6.1,6.1,0,0,0,.978-1.558,4.142,4.142,0,0,0,.371-1.659,5.517,5.517,0,0,0-.061-.784,3.474,3.474,0,0,0-.207-.785,1.642,1.642,0,0,0-.412-.6.961.961,0,0,0-.678-.246,1.931,1.931,0,0,0-.875.268,7.315,7.315,0,0,0-1.05.7,10.375,10.375,0,0,0-1.07.963q-.525.538-.958,1.076a6.344,6.344,0,0,0-.689,1.031A1.865,1.865,0,0,0,925.771,4281.516Z" fill="#ff3b67"/>
        <path id="Trazado_2742" data-name="Trazado 2742" d="M934.149,4283.2a4.431,4.431,0,0,1,.6-2.308,6.853,6.853,0,0,1,1.482-1.76,9.9,9.9,0,0,1,1.914-1.277q1.029-.528,1.914-.875t1.483-.56c.4-.143.6-.258.6-.348q0-.784-.072-1.535t-.154-1.513q-.082-.762-.154-1.513t-.073-1.49v-1.457q.844-.338,1.2.067a1.519,1.519,0,0,1,.114,1.39c.054.329.131.843.226,1.547s.2,1.494.32,2.375.24,1.808.37,2.78.254,1.9.371,2.79.216,1.68.3,2.376.144,1.214.185,1.557a4.328,4.328,0,0,1,.041.438c.014.217.025.448.032.694s.013.475.02.684.01.358.01.448a5.4,5.4,0,0,1-1.06-.067.441.441,0,0,1-.349-.269,1.787,1.787,0,0,1-.073-.583,3.886,3.886,0,0,0-.206-1.053,12.534,12.534,0,0,1-1.44,1.076,7.609,7.609,0,0,1-1.36.683,6.472,6.472,0,0,1-1.368.359,10.224,10.224,0,0,1-1.471.1,6.44,6.44,0,0,1-1.267-.123,3.022,3.022,0,0,1-1.08-.437,2.316,2.316,0,0,1-.762-.852A2.825,2.825,0,0,1,934.149,4283.2Zm1.791-.47a1.059,1.059,0,0,0,.144.582,1.391,1.391,0,0,0,.854.594,2.381,2.381,0,0,0,.5.056,4.568,4.568,0,0,0,1.555-.3,5.675,5.675,0,0,0,1.544-.851,4.808,4.808,0,0,0,1.173-1.312,3.139,3.139,0,0,0,.462-1.658,1.534,1.534,0,0,0-.226-.964,1.1,1.1,0,0,0-.864-.269,4.347,4.347,0,0,0-1.534.337,8.031,8.031,0,0,0-1.688.9,5.705,5.705,0,0,0-1.368,1.312A2.611,2.611,0,0,0,935.94,4282.727Z" fill="#ff3b67"/>
        <path id="Trazado_2743" data-name="Trazado 2743" d="M946.088,4281.292a5.728,5.728,0,0,1,.6-2.589,6.687,6.687,0,0,1,1.575-2.062,7.525,7.525,0,0,1,2.2-1.356,6.571,6.571,0,0,1,2.479-.493,1.8,1.8,0,0,1,1.246.493,4.265,4.265,0,0,1,.916,1.2,6.647,6.647,0,0,1,.566,1.491,5.728,5.728,0,0,1,.2,1.367,5.621,5.621,0,0,1-.557,2.431,7.589,7.589,0,0,1-1.44,2.085,7.462,7.462,0,0,1-2,1.468,4.892,4.892,0,0,1-2.223.561,3.44,3.44,0,0,1-1.667-.37,3.029,3.029,0,0,1-1.091-.987,4.354,4.354,0,0,1-.607-1.457A7.8,7.8,0,0,1,946.088,4281.292Zm1.749.224a5.03,5.03,0,0,0,.092,1.02,1.872,1.872,0,0,0,.33.75,1.529,1.529,0,0,0,.627.483,2.459,2.459,0,0,0,.968.168,2.942,2.942,0,0,0,1.524-.459,5.675,5.675,0,0,0,1.368-1.166,6.121,6.121,0,0,0,.977-1.558,4.143,4.143,0,0,0,.371-1.659,5.517,5.517,0,0,0-.061-.784,3.477,3.477,0,0,0-.206-.785,1.667,1.667,0,0,0-.412-.6.965.965,0,0,0-.679-.246,1.931,1.931,0,0,0-.875.268,7.37,7.37,0,0,0-1.05.7,10.477,10.477,0,0,0-1.07.963q-.525.538-.957,1.076a6.355,6.355,0,0,0-.69,1.031A1.874,1.874,0,0,0,947.837,4281.516Z" fill="#ff3b67"/>
      </g>
    </g>
    <g id="Grupo_2201" data-name="Grupo 2201">
      <path id="Trazado_2744" data-name="Trazado 2744" d="M852.263,4263.869a125.114,125.114,0,0,1-10.539,7.176c-3.629,2.23-7.4,4.213-11.207,6.142a162.467,162.467,0,0,1-23.86,9.178,237.817,237.817,0,0,1-50.279,8.817,397.992,397.992,0,0,1-51.033.188c-16.986-.916-33.915-2.634-50.773-4.861a751.737,751.737,0,0,1-99.835-20.623c-16.392-4.509-32.631-9.553-48.733-14.985-4.037-1.325-8.048-2.725-12.053-4.142s-8.023-2.8-12-4.283c-7.916-3.07-16.2-5.232-23.263-10.494a48.728,48.728,0,0,1,12.474,2.975c3.965,1.486,7.957,2.9,11.934,4.356s7.978,2.841,11.979,4.23,8,2.782,12.026,4.09c16.065,5.359,32.26,10.332,48.6,14.768,16.328,4.473,32.767,8.535,49.327,12.042,16.555,3.537,33.25,6.372,50,8.779,16.757,2.349,33.6,4.191,50.491,5.235a395.273,395.273,0,0,0,50.687.211,235.511,235.511,0,0,0,49.855-8.338,196.681,196.681,0,0,0,23.767-8.639c3.851-1.722,7.691-3.494,11.4-5.525,1.877-.976,3.724-2.007,5.567-3.052.932-.506,1.83-1.066,2.736-1.617Z" fill="#ff3b67"/>
      <path id="Trazado_2745" data-name="Trazado 2745" d="M470.922,4225.148l-6.295,1.215c-2.088.428-4.172.846-6.238,1.34q-6.2,1.477-12.248,3.391h0l.762-2.033q1.866,2.9,3.669,5.847c1.192,1.97,2.41,3.922,3.581,5.906l3.516,5.947a37.611,37.611,0,0,1,3.14,6.191,37.488,37.488,0,0,1-4.379-5.386l-4-5.631c-1.336-1.876-2.625-3.783-3.939-5.673s-2.587-3.807-3.849-5.731l-.011-.017a1.33,1.33,0,0,1,.383-1.842,1.358,1.358,0,0,1,.39-.174h0a112.018,112.018,0,0,1,12.682-2.451c2.132-.282,4.265-.54,6.407-.688C466.629,4225.186,468.777,4225.123,470.922,4225.148Z" fill="#ff3b67"/>
    </g>
  </g>
</svg>
