<svg xmlns="http://www.w3.org/2000/svg" width="293.266" height="35.563" viewBox="0 0 293.266 35.563">
  <path id="Trazado_2719" data-name="Trazado 2719" d="M34.808,3964.589c24.149-4.448,48.422-8.105,72.741-11.407,12.158-1.661,24.338-3.156,36.52-4.626l36.574-4.174,36.609-3.826,36.639-3.509c12.221-1.085,24.438-2.2,36.669-3.17,12.23-.985,24.455-2,36.7-2.865-12.166,1.6-24.346,3.054-36.519,4.577l-36.523,4.481-73.036,8.9-72.992,9.129c-24.337,2.993-48.676,5.966-73.093,8.47a1,1,0,0,1-.284-1.98Z" transform="translate(-33.989 -3931.012)" fill="#ff3b67"/>
</svg>
